CSLSans-ExtraBold.ufo
<glyph name="percent" format="2">
  <advance width="974"/>
  <unicode hex="0025"/>
  <outline>
    <contour>
      <point x="230" y="314" type="qcurve" smooth="yes"/>
      <point x="50" y="316"/>
      <point x="50" y="512" type="qcurve" smooth="yes"/>
      <point x="50" y="610"/>
      <point x="142" y="710"/>
      <point x="230" y="710" type="qcurve" smooth="yes"/>
      <point x="410" y="709"/>
      <point x="410" y="512" type="qcurve" smooth="yes"/>
      <point x="410" y="414"/>
      <point x="318" y="314"/>
    </contour>
    <contour>
      <point x="179" y="0" type="line"/>
      <point x="663" y="698" type="line"/>
      <point x="795" y="698" type="line"/>
      <point x="311" y="0" type="line"/>
    </contour>
    <contour>
      <point x="234" y="400" type="line" smooth="yes"/>
      <point x="282" y="400"/>
      <point x="282" y="486" type="qcurve" smooth="yes"/>
      <point x="282" y="541" type="line" smooth="yes"/>
      <point x="282" y="624"/>
      <point x="230" y="624" type="qcurve" smooth="yes"/>
      <point x="226" y="624" type="line" smooth="yes"/>
      <point x="178" y="624"/>
      <point x="178" y="538" type="qcurve" smooth="yes"/>
      <point x="178" y="486" type="line" smooth="yes"/>
      <point x="178" y="400"/>
      <point x="230" y="400" type="qcurve" smooth="yes"/>
    </contour>
    <contour>
      <point x="744" y="-12" type="qcurve" smooth="yes"/>
      <point x="564" y="-10"/>
      <point x="564" y="186" type="qcurve" smooth="yes"/>
      <point x="564" y="284"/>
      <point x="656" y="384"/>
      <point x="744" y="384" type="qcurve" smooth="yes"/>
      <point x="924" y="383"/>
      <point x="924" y="186" type="qcurve" smooth="yes"/>
      <point x="924" y="88"/>
      <point x="832" y="-12"/>
    </contour>
    <contour>
      <point x="748" y="74" type="line" smooth="yes"/>
      <point x="796" y="74"/>
      <point x="796" y="160" type="qcurve" smooth="yes"/>
      <point x="796" y="215" type="line" smooth="yes"/>
      <point x="796" y="298"/>
      <point x="744" y="298" type="qcurve" smooth="yes"/>
      <point x="740" y="298" type="line" smooth="yes"/>
      <point x="692" y="298"/>
      <point x="692" y="212" type="qcurve" smooth="yes"/>
      <point x="692" y="160" type="line" smooth="yes"/>
      <point x="692" y="74"/>
      <point x="744" y="74" type="qcurve" smooth="yes"/>
    </contour>
  </outline>
</glyph>
<glyph name="period" format="2">
  <advance width="300"/>
  <unicode hex="002E"/>
  <outline>
    <contour>
      <point x="150" y="-11" type="qcurve" smooth="yes"/>
      <point x="105" y="-11"/>
      <point x="62" y="34"/>
      <point x="62" y="69" type="qcurve" smooth="yes"/>
      <point x="62" y="89" type="line" smooth="yes"/>
      <point x="62" y="124"/>
      <point x="105" y="169"/>
      <point x="150" y="169" type="qcurve" smooth="yes"/>
      <point x="195" y="169"/>
      <point x="238" y="124"/>
      <point x="238" y="89" type="qcurve" smooth="yes"/>
      <point x="238" y="69" type="line" smooth="yes"/>
      <point x="238" y="34"/>
      <point x="195" y="-11"/>
    </contour>
  </outline>
</glyph>
<glyph name="six" format="2">
  <advance width="600"/>
  <unicode hex="0036"/>
  <outline>
    <contour>
      <point x="304" y="105" type="qcurve"/>
      <point x="410" y="109"/>
      <point x="410" y="211" type="qcurve" smooth="yes"/>
      <point x="410" y="229" type="line" smooth="yes"/>
      <point x="410" y="280"/>
      <point x="354" y="335"/>
      <point x="304" y="335" type="qcurve"/>
      <point x="198" y="331"/>
      <point x="198" y="229" type="qcurve" smooth="yes"/>
      <point x="198" y="211" type="line" smooth="yes"/>
      <point x="198" y="160"/>
      <point x="254" y="105"/>
    </contour>
    <contour>
      <point x="304" y="-12" type="qcurve" smooth="yes"/>
      <point x="180" y="-12"/>
      <point x="42" y="139"/>
      <point x="42" y="265" type="qcurve" smooth="yes"/>
      <point x="42" y="402"/>
      <point x="123" y="525" type="qcurve" smooth="yes"/>
      <point x="198" y="637"/>
      <point x="292" y="698" type="qcurve"/>
      <point x="499" y="698" type="line"/>
      <point x="371" y="609"/>
      <point x="220" y="446"/>
      <point x="199" y="348" type="qcurve"/>
      <point x="208" y="345" type="line"/>
      <point x="225" y="387"/>
      <point x="301" y="450"/>
      <point x="362" y="450" type="qcurve" smooth="yes"/>
      <point x="448" y="450"/>
      <point x="508" y="391" type="qcurve"/>
      <point x="566" y="331"/>
      <point x="566" y="233" type="qcurve" smooth="yes"/>
      <point x="566" y="125"/>
      <point x="424" y="-12"/>
    </contour>
  </outline>
</glyph>
<glyph name="nine" format="2">
  <advance width="600"/>
  <unicode hex="0039"/>
  <outline>
    <contour>
      <point x="296" y="363" type="qcurve"/>
      <point x="402" y="367"/>
      <point x="402" y="469" type="qcurve" smooth="yes"/>
      <point x="402" y="487" type="line" smooth="yes"/>
      <point x="402" y="538"/>
      <point x="346" y="593"/>
      <point x="296" y="593" type="qcurve"/>
      <point x="190" y="589"/>
      <point x="190" y="487" type="qcurve" smooth="yes"/>
      <point x="190" y="469" type="line" smooth="yes"/>
      <point x="190" y="418"/>
      <point x="246" y="363"/>
    </contour>
    <contour>
      <point x="101" y="0" type="line"/>
      <point x="229" y="89"/>
      <point x="379" y="252"/>
      <point x="401" y="350" type="qcurve"/>
      <point x="392" y="353" type="line"/>
      <point x="350" y="248"/>
      <point x="238" y="248" type="qcurve" smooth="yes"/>
      <point x="153" y="248"/>
      <point x="34" y="365"/>
      <point x="34" y="465" type="qcurve" smooth="yes"/>
      <point x="34" y="573"/>
      <point x="176" y="710"/>
      <point x="296" y="710" type="qcurve" smooth="yes"/>
      <point x="421" y="710"/>
      <point x="558" y="559"/>
      <point x="558" y="433" type="qcurve" smooth="yes"/>
      <point x="558" y="298"/>
      <point x="478" y="174" type="qcurve"/>
      <point x="402" y="62"/>
      <point x="308" y="0" type="qcurve"/>
    </contour>
  </outline>
</glyph>
<glyph name="semicolon" format="2">
  <advance width="300"/>
  <unicode hex="003B"/>
  <outline>
    <contour>
      <point x="31" y="-147" type="line"/>
      <point x="103" y="-85"/>
      <point x="129" y="-9" type="qcurve"/>
      <point x="94" y="-3"/>
      <point x="62" y="40"/>
      <point x="62" y="69" type="qcurve" smooth="yes"/>
      <point x="62" y="89" type="line" smooth="yes"/>
      <point x="62" y="124"/>
      <point x="105" y="169"/>
      <point x="150" y="169" type="qcurve" smooth="yes"/>
      <point x="195" y="169"/>
      <point x="238" y="124"/>
      <point x="238" y="89" type="qcurve" smooth="yes"/>
      <point x="238" y="69" type="line" smooth="yes"/>
      <point x="238" y="8"/>
      <point x="180" y="-109"/>
      <point x="131" y="-147" type="qcurve"/>
    </contour>
    <contour>
      <point x="149" y="355" type="qcurve" smooth="yes"/>
      <point x="104" y="355"/>
      <point x="61" y="400"/>
      <point x="61" y="435" type="qcurve" smooth="yes"/>
      <point x="61" y="455" type="line" smooth="yes"/>
      <point x="61" y="490"/>
      <point x="104" y="535"/>
      <point x="149" y="535" type="qcurve" smooth="yes"/>
      <point x="194" y="535"/>
      <point x="237" y="490"/>
      <point x="237" y="455" type="qcurve" smooth="yes"/>
      <point x="237" y="435" type="line" smooth="yes"/>
      <point x="237" y="400"/>
      <point x="194" y="355"/>
    </contour>
  </outline>
</glyph>
<glyph name="Q" format="2">
  <advance width="714"/>
  <unicode hex="0051"/>
  <outline>
    <contour>
      <point x="357" y="123" type="qcurve" smooth="yes"/>
      <point x="389" y="123"/>
      <point x="414" y="133" type="qcurve"/>
      <point x="281" y="257" type="line"/>
      <point x="445" y="257" type="line"/>
      <point x="491" y="214" type="line"/>
      <point x="503" y="249"/>
      <point x="503" y="297" type="qcurve" smooth="yes"/>
      <point x="503" y="401" type="line" smooth="yes"/>
      <point x="503" y="485"/>
      <point x="426" y="575"/>
      <point x="357" y="575" type="qcurve" smooth="yes"/>
      <point x="288" y="575"/>
      <point x="211" y="485"/>
      <point x="211" y="401" type="qcurve" smooth="yes"/>
      <point x="211" y="297" type="line" smooth="yes"/>
      <point x="211" y="213"/>
      <point x="288" y="123"/>
    </contour>
    <contour>
      <point x="357" y="-12" type="qcurve" smooth="yes"/>
      <point x="288" y="-12"/>
      <point x="174" y="34"/>
      <point x="94" y="125"/>
      <point x="50" y="260"/>
      <point x="50" y="349" type="qcurve" smooth="yes"/>
      <point x="50" y="438"/>
      <point x="94" y="573"/>
      <point x="174" y="664"/>
      <point x="288" y="710"/>
      <point x="357" y="710" type="qcurve" smooth="yes"/>
      <point x="426" y="710"/>
      <point x="540" y="664"/>
      <point x="620" y="573"/>
      <point x="664" y="438"/>
      <point x="664" y="349" type="qcurve" smooth="yes"/>
      <point x="664" y="260"/>
      <point x="642" y="193" type="qcurve" smooth="yes"/>
      <point x="627" y="146"/>
      <point x="603" y="110" type="qcurve"/>
      <point x="721" y="0" type="line"/>
      <point x="557" y="0" type="line"/>
      <point x="523" y="31" type="line"/>
      <point x="504" y="20"/>
      <point x="483" y="11" type="qcurve" smooth="yes"/>
      <point x="426" y="-12"/>
    </contour>
  </outline>
</glyph>
<glyph name="V" format="2">
  <advance width="650"/>
  <unicode hex="0056"/>
  <outline>
    <contour>
      <point x="239" y="0" type="line"/>
      <point x="14" y="698" type="line"/>
      <point x="168" y="698" type="line"/>
      <point x="272" y="363" type="line"/>
      <point x="327" y="144" type="line"/>
      <point x="330" y="144" type="line"/>
      <point x="383" y="363" type="line"/>
      <point x="487" y="698" type="line"/>
      <point x="636" y="698" type="line"/>
      <point x="409" y="0" type="line"/>
    </contour>
  </outline>
</glyph>
<glyph name="j" format="2">
  <advance width="286"/>
  <unicode hex="006A"/>
  <outline>
    <contour>
      <point x="-9" y="-200" type="line"/>
      <point x="-9" y="-85" type="line"/>
      <point x="69" y="-85" type="line"/>
      <point x="69" y="525" type="line"/>
      <point x="217" y="525" type="line"/>
      <point x="217" y="-56" type="line" smooth="yes"/>
      <point x="217" y="-126"/>
      <point x="147" y="-200"/>
      <point x="69" y="-200" type="qcurve" smooth="yes"/>
    </contour>
    <contour>
      <point x="143" y="581" type="qcurve" smooth="yes"/>
      <point x="98" y="581"/>
      <point x="57" y="622"/>
      <point x="57" y="654" type="qcurve" smooth="yes"/>
      <point x="57" y="676" type="line" smooth="yes"/>
      <point x="57" y="708"/>
      <point x="98" y="749"/>
      <point x="143" y="749" type="qcurve" smooth="yes"/>
      <point x="188" y="749"/>
      <point x="229" y="708"/>
      <point x="229" y="676" type="qcurve" smooth="yes"/>
      <point x="229" y="654" type="line" smooth="yes"/>
      <point x="229" y="622"/>
      <point x="188" y="581"/>
    </contour>
  </outline>
</glyph>
<glyph name="t" format="2">
  <advance width="383"/>
  <unicode hex="0074"/>
  <outline>
    <contour>
      <point x="253" y="0" type="line"/>
      <point x="97" y="3"/>
      <point x="97" y="153" type="qcurve" smooth="yes"/>
      <point x="97" y="410" type="line"/>
      <point x="23" y="410" type="line"/>
      <point x="23" y="525" type="line"/>
      <point x="60" y="525" type="line" smooth="yes"/>
      <point x="90" y="525"/>
      <point x="112" y="554"/>
      <point x="112" y="581" type="qcurve" smooth="yes"/>
      <point x="112" y="667" type="line"/>
      <point x="245" y="667" type="line"/>
      <point x="245" y="525" type="line"/>
      <point x="349" y="525" type="line"/>
      <point x="349" y="410" type="line"/>
      <point x="245" y="410" type="line"/>
      <point x="245" y="115" type="line"/>
      <point x="341" y="115" type="line"/>
      <point x="341" y="0" type="line"/>
    </contour>
  </outline>
</glyph>
<glyph name="exclamdown" format="2">
  <advance width="320"/>
  <unicode hex="00A1"/>
  <outline>
    <contour>
      <point x="82" y="-173" type="line"/>
      <point x="82" y="21" type="line"/>
      <point x="128" y="305" type="line"/>
      <point x="191" y="305" type="line"/>
      <point x="238" y="21" type="line"/>
      <point x="238" y="-173" type="line"/>
    </contour>
    <contour>
      <point x="160" y="361" type="qcurve" smooth="yes"/>
      <point x="112" y="361"/>
      <point x="71" y="405"/>
      <point x="71" y="437" type="qcurve" smooth="yes"/>
      <point x="71" y="461" type="line" smooth="yes"/>
      <point x="71" y="493"/>
      <point x="112" y="537"/>
      <point x="160" y="537" type="qcurve" smooth="yes"/>
      <point x="208" y="537"/>
      <point x="249" y="493"/>
      <point x="249" y="461" type="qcurve" smooth="yes"/>
      <point x="249" y="437" type="line" smooth="yes"/>
      <point x="249" y="405"/>
      <point x="208" y="361"/>
    </contour>
  </outline>
</glyph>
<glyph name="cent" format="2">
  <advance width="552"/>
  <unicode hex="00A2"/>
  <outline>
    <contour>
      <point x="247" y="410" type="line"/>
      <point x="182" y="380"/>
      <point x="182" y="300" type="qcurve" smooth="yes"/>
      <point x="182" y="216" type="line" smooth="yes"/>
      <point x="182" y="137"/>
      <point x="247" y="106" type="qcurve"/>
    </contour>
    <contour>
      <point x="237" y="-114" type="line"/>
      <point x="237" y="-7" type="line"/>
      <point x="143" y="12"/>
      <point x="41" y="149"/>
      <point x="41" y="258" type="qcurve" smooth="yes"/>
      <point x="41" y="367"/>
      <point x="143" y="505"/>
      <point x="237" y="523" type="qcurve"/>
      <point x="237" y="630" type="line"/>
      <point x="347" y="630" type="line"/>
      <point x="347" y="524" type="line"/>
      <point x="467" y="501"/>
      <point x="508" y="402" type="qcurve"/>
      <point x="402" y="344" type="line"/>
      <point x="384" y="390"/>
      <point x="338" y="411" type="qcurve"/>
      <point x="338" y="104" type="line"/>
      <point x="389" y="124"/>
      <point x="411" y="173" type="qcurve"/>
      <point x="516" y="114" type="line"/>
      <point x="471" y="14"/>
      <point x="347" y="-8" type="qcurve"/>
      <point x="347" y="-114" type="line"/>
    </contour>
  </outline>
</glyph>
<glyph name="dieresis" format="2">
  <advance width="600"/>
  <unicode hex="00A8"/>
  <outline>
    <contour>
      <point x="410" y="600" type="qcurve" smooth="yes"/>
      <point x="330" y="600"/>
      <point x="330" y="663" type="qcurve" smooth="yes"/>
      <point x="330" y="688" type="line" smooth="yes"/>
      <point x="330" y="751"/>
      <point x="410" y="751" type="qcurve" smooth="yes"/>
      <point x="490" y="751"/>
      <point x="490" y="688" type="qcurve" smooth="yes"/>
      <point x="490" y="663" type="line" smooth="yes"/>
      <point x="490" y="600"/>
    </contour>
    <contour>
      <point x="190" y="600" type="qcurve" smooth="yes"/>
      <point x="110" y="600"/>
      <point x="110" y="663" type="qcurve" smooth="yes"/>
      <point x="110" y="688" type="line" smooth="yes"/>
      <point x="110" y="751"/>
      <point x="190" y="751" type="qcurve" smooth="yes"/>
      <point x="270" y="751"/>
      <point x="270" y="688" type="qcurve" smooth="yes"/>
      <point x="270" y="663" type="line" smooth="yes"/>
      <point x="270" y="600"/>
    </contour>
  </outline>
</glyph>
<glyph name="guillemotleft" format="2">
  <advance width="558"/>
  <unicode hex="00AB"/>
  <outline>
    <contour>
      <point x="279" y="209" type="line"/>
      <point x="279" y="335" type="line"/>
      <point x="465" y="495" type="line"/>
      <point x="508" y="403" type="line"/>
      <point x="388" y="272" type="line"/>
      <point x="508" y="141" type="line"/>
      <point x="465" y="49" type="line"/>
    </contour>
    <contour>
      <point x="38" y="209" type="line"/>
      <point x="38" y="335" type="line"/>
      <point x="224" y="495" type="line"/>
      <point x="267" y="403" type="line"/>
      <point x="147" y="272" type="line"/>
      <point x="267" y="141" type="line"/>
      <point x="224" y="49" type="line"/>
    </contour>
  </outline>
</glyph>
<glyph name="u00AD" format="2">
  <advance width="403"/>
  <unicode hex="00AD"/>
  <outline>
    <contour>
      <point x="53" y="233" type="line"/>
      <point x="53" y="377" type="line"/>
      <point x="350" y="377" type="line"/>
      <point x="350" y="233" type="line"/>
    </contour>
  </outline>
</glyph>
<glyph name="registered" format="2">
  <advance width="464"/>
  <unicode hex="00AE"/>
  <outline>
    <contour>
      <point x="232" y="298" type="qcurve" smooth="yes"/>
      <point x="148" y="298"/>
      <point x="30" y="416"/>
      <point x="30" y="504" type="qcurve" smooth="yes"/>
      <point x="30" y="593"/>
      <point x="148" y="710"/>
      <point x="232" y="710" type="qcurve" smooth="yes"/>
      <point x="316" y="710"/>
      <point x="376" y="652" type="qcurve"/>
      <point x="434" y="593"/>
      <point x="434" y="504" type="qcurve" smooth="yes"/>
      <point x="434" y="416"/>
      <point x="316" y="298"/>
    </contour>
    <contour>
      <point x="232" y="345" type="qcurve" smooth="yes"/>
      <point x="292" y="345"/>
      <point x="380" y="421"/>
      <point x="380" y="488" type="qcurve" smooth="yes"/>
      <point x="380" y="520" type="line" smooth="yes"/>
      <point x="380" y="588"/>
      <point x="292" y="663"/>
      <point x="232" y="663" type="qcurve" smooth="yes"/>
      <point x="172" y="663"/>
      <point x="84" y="588"/>
      <point x="84" y="520" type="qcurve" smooth="yes"/>
      <point x="84" y="488" type="line" smooth="yes"/>
      <point x="84" y="421"/>
      <point x="172" y="345"/>
    </contour>
    <contour>
      <point x="264" y="400" type="line"/>
      <point x="232" y="461" type="line"/>
      <point x="209" y="461" type="line"/>
      <point x="209" y="400" type="line"/>
      <point x="145" y="400" type="line"/>
      <point x="145" y="609" type="line"/>
      <point x="247" y="609" type="line" smooth="yes"/>
      <point x="289" y="609"/>
      <point x="327" y="569"/>
      <point x="327" y="539" type="qcurve" smooth="yes"/>
      <point x="327" y="490"/>
      <point x="290" y="473" type="qcurve"/>
      <point x="333" y="400" type="line"/>
    </contour>
    <contour>
      <point x="234" y="508" type="line"/>
      <point x="262" y="509"/>
      <point x="262" y="531" type="qcurve" smooth="yes"/>
      <point x="262" y="540" type="line" smooth="yes"/>
      <point x="262" y="561"/>
      <point x="234" y="561" type="qcurve" smooth="yes"/>
      <point x="209" y="561" type="line"/>
      <point x="209" y="508" type="line"/>
    </contour>
  </outline>
</glyph>
<glyph name="degree" format="2">
  <advance width="470"/>
  <unicode hex="00B0"/>
  <outline>
    <contour>
      <point x="235" y="334" type="qcurve" smooth="yes"/>
      <point x="157" y="334"/>
      <point x="50" y="440"/>
      <point x="50" y="522" type="qcurve" smooth="yes"/>
      <point x="50" y="602"/>
      <point x="103" y="657" type="qcurve"/>
      <point x="157" y="710"/>
      <point x="235" y="710" type="qcurve" smooth="yes"/>
      <point x="313" y="710"/>
      <point x="367" y="657" type="qcurve"/>
      <point x="420" y="602"/>
      <point x="420" y="522" type="qcurve" smooth="yes"/>
      <point x="420" y="440"/>
      <point x="313" y="334"/>
    </contour>
    <contour>
      <point x="235" y="429" type="qcurve" smooth="yes"/>
      <point x="273" y="429"/>
      <point x="319" y="482"/>
      <point x="319" y="522" type="qcurve" smooth="yes"/>
      <point x="319" y="562"/>
      <point x="273" y="615"/>
      <point x="235" y="615" type="qcurve" smooth="yes"/>
      <point x="197" y="615"/>
      <point x="151" y="562"/>
      <point x="151" y="522" type="qcurve" smooth="yes"/>
      <point x="151" y="482"/>
      <point x="197" y="429"/>
    </contour>
  </outline>
</glyph>
<glyph name="u00B2" format="2">
  <advance width="347"/>
  <unicode hex="00B2"/>
  <outline>
    <contour>
      <point x="33" y="329" type="line"/>
      <point x="33" y="417" type="line"/>
      <point x="142" y="500" type="line" smooth="yes"/>
      <point x="179" y="527"/>
      <point x="209" y="561"/>
      <point x="209" y="584" type="qcurve" smooth="yes"/>
      <point x="209" y="618"/>
      <point x="166" y="618" type="qcurve" smooth="yes"/>
      <point x="123" y="618"/>
      <point x="111" y="573" type="qcurve"/>
      <point x="22" y="606" type="line"/>
      <point x="36" y="649"/>
      <point x="113" y="704"/>
      <point x="176" y="704" type="qcurve" smooth="yes"/>
      <point x="244" y="704"/>
      <point x="318" y="640"/>
      <point x="318" y="590" type="qcurve" smooth="yes"/>
      <point x="318" y="543"/>
      <point x="250" y="469"/>
      <point x="204" y="445" type="qcurve"/>
      <point x="145" y="412" type="line"/>
      <point x="322" y="412" type="line"/>
      <point x="322" y="329" type="line"/>
    </contour>
  </outline>
</glyph>
<glyph name="onesuperior" format="2">
  <advance width="314"/>
  <unicode hex="00B9"/>
  <outline>
    <contour>
      <point x="243" y="329" type="line"/>
      <point x="142" y="329" type="line"/>
      <point x="142" y="606" type="line"/>
      <point x="62" y="570" type="line"/>
      <point x="62" y="661" type="line"/>
      <point x="137" y="698" type="line"/>
      <point x="243" y="698" type="line"/>
    </contour>
  </outline>
</glyph>
<glyph name="guillemotright" format="2">
  <advance width="558"/>
  <unicode hex="00BB"/>
  <outline>
    <contour>
      <point x="50" y="141" type="line"/>
      <point x="170" y="272" type="line"/>
      <point x="50" y="403" type="line"/>
      <point x="93" y="495" type="line"/>
      <point x="279" y="335" type="line"/>
      <point x="279" y="209" type="line"/>
      <point x="93" y="49" type="line"/>
    </contour>
    <contour>
      <point x="291" y="141" type="line"/>
      <point x="411" y="272" type="line"/>
      <point x="291" y="403" type="line"/>
      <point x="334" y="495" type="line"/>
      <point x="520" y="335" type="line"/>
      <point x="520" y="209" type="line"/>
      <point x="334" y="49" type="line"/>
    </contour>
  </outline>
</glyph>
<glyph name="threequarters" format="2">
  <advance width="828"/>
  <unicode hex="00BE"/>
  <outline>
    <contour>
      <point x="665" y="259" type="line"/>
      <point x="658" y="259" type="line"/>
      <point x="578" y="146" type="line"/>
      <point x="665" y="146" type="line"/>
    </contour>
    <contour>
      <point x="665" y="0" type="line"/>
      <point x="665" y="70" type="line"/>
      <point x="499" y="70" type="line"/>
      <point x="499" y="155" type="line"/>
      <point x="648" y="369" type="line"/>
      <point x="763" y="369" type="line"/>
      <point x="763" y="146" type="line"/>
      <point x="809" y="146" type="line"/>
      <point x="809" y="70" type="line"/>
      <point x="763" y="70" type="line"/>
      <point x="763" y="0" type="line"/>
    </contour>
    <contour>
      <point x="159" y="323" type="qcurve" smooth="yes"/>
      <point x="94" y="323"/>
      <point x="23" y="366"/>
      <point x="4" y="398" type="qcurve"/>
      <point x="80" y="456" type="line"/>
      <point x="105" y="402"/>
      <point x="159" y="402" type="qcurve"/>
      <point x="209" y="406"/>
      <point x="209" y="444" type="qcurve" smooth="yes"/>
      <point x="209" y="476"/>
      <point x="148" y="476" type="qcurve" smooth="yes"/>
      <point x="117" y="476" type="line"/>
      <point x="117" y="558" type="line"/>
      <point x="151" y="558" type="line" smooth="yes"/>
      <point x="178" y="558"/>
      <point x="202" y="575"/>
      <point x="202" y="585" type="qcurve" smooth="yes"/>
      <point x="202" y="603"/>
      <point x="179" y="625"/>
      <point x="157" y="625" type="qcurve" smooth="yes"/>
      <point x="115" y="625"/>
      <point x="77" y="582" type="qcurve"/>
      <point x="15" y="641" type="line"/>
      <point x="40" y="672"/>
      <point x="107" y="704"/>
      <point x="160" y="704" type="qcurve" smooth="yes"/>
      <point x="231" y="704"/>
      <point x="310" y="648"/>
      <point x="310" y="603" type="qcurve" smooth="yes"/>
      <point x="310" y="568"/>
      <point x="266" y="526"/>
      <point x="234" y="522" type="qcurve"/>
      <point x="234" y="518" type="line"/>
      <point x="316" y="504"/>
      <point x="316" y="433" type="qcurve" smooth="yes"/>
      <point x="316" y="382"/>
      <point x="229" y="323"/>
    </contour>
    <contour>
      <point x="105" y="0" type="line"/>
      <point x="634" y="698" type="line"/>
      <point x="742" y="698" type="line"/>
      <point x="213" y="0" type="line"/>
    </contour>
  </outline>
</glyph>
<glyph name="questiondown" format="2">
  <advance width="494"/>
  <unicode hex="00BF"/>
  <outline>
    <contour>
      <point x="260" y="-185" type="qcurve" smooth="yes"/>
      <point x="154" y="-185"/>
      <point x="27" y="-70"/>
      <point x="27" y="21" type="qcurve" smooth="yes"/>
      <point x="27" y="105"/>
      <point x="129" y="208"/>
      <point x="202" y="220" type="qcurve"/>
      <point x="202" y="292" type="line"/>
      <point x="342" y="292" type="line"/>
      <point x="342" y="139" type="line"/>
      <point x="263" y="137"/>
      <point x="184" y="89"/>
      <point x="184" y="33" type="qcurve" smooth="yes"/>
      <point x="184" y="19" type="line" smooth="yes"/>
      <point x="184" y="-19"/>
      <point x="229" y="-59"/>
      <point x="265" y="-59" type="qcurve" smooth="yes"/>
      <point x="304" y="-59"/>
      <point x="355" y="-11"/>
      <point x="364" y="26" type="qcurve"/>
      <point x="486" y="-25" type="line"/>
      <point x="469" y="-87"/>
      <point x="416" y="-135" type="qcurve"/>
      <point x="355" y="-185"/>
    </contour>
    <contour>
      <point x="270" y="361" type="qcurve" smooth="yes"/>
      <point x="222" y="361"/>
      <point x="181" y="405"/>
      <point x="181" y="437" type="qcurve" smooth="yes"/>
      <point x="181" y="461" type="line" smooth="yes"/>
      <point x="181" y="493"/>
      <point x="222" y="537"/>
      <point x="270" y="537" type="qcurve" smooth="yes"/>
      <point x="318" y="537"/>
      <point x="359" y="493"/>
      <point x="359" y="461" type="qcurve" smooth="yes"/>
      <point x="359" y="437" type="line" smooth="yes"/>
      <point x="359" y="405"/>
      <point x="318" y="361"/>
    </contour>
  </outline>
</glyph>
<glyph name="Atilde" format="2">
  <advance width="685"/>
  <unicode hex="00C3"/>
  <outline>
    <contour>
      <point x="342" y="560" type="line"/>
      <point x="337" y="560" type="line"/>
      <point x="260" y="295" type="line"/>
      <point x="420" y="295" type="line"/>
    </contour>
    <contour>
      <point x="507" y="0" type="line"/>
      <point x="457" y="166" type="line"/>
      <point x="224" y="166" type="line"/>
      <point x="174" y="0" type="line"/>
      <point x="20" y="0" type="line"/>
      <point x="250" y="698" type="line"/>
      <point x="438" y="698" type="line"/>
      <point x="665" y="0" type="line"/>
    </contour>
    <contour>
      <point x="415" y="762" type="qcurve" smooth="yes"/>
      <point x="392" y="762"/>
      <point x="374" y="768" type="qcurve"/>
      <point x="332" y="784" type="line"/>
      <point x="313" y="793"/>
      <point x="279" y="804"/>
      <point x="260" y="804" type="qcurve" smooth="yes"/>
      <point x="243" y="804"/>
      <point x="216" y="792"/>
      <point x="201" y="779" type="qcurve"/>
      <point x="149" y="847" type="line"/>
      <point x="190" y="911"/>
      <point x="263" y="911" type="qcurve" smooth="yes"/>
      <point x="286" y="911"/>
      <point x="304" y="905" type="qcurve"/>
      <point x="346" y="889" type="line"/>
      <point x="365" y="880"/>
      <point x="399" y="869"/>
      <point x="418" y="869" type="qcurve" smooth="yes"/>
      <point x="435" y="869"/>
      <point x="462" y="881"/>
      <point x="477" y="894" type="qcurve"/>
      <point x="529" y="826" type="line"/>
      <point x="488" y="762"/>
    </contour>
  </outline>
</glyph>
<glyph name="Ntilde" format="2">
  <advance width="724"/>
  <unicode hex="00D1"/>
  <outline>
    <contour>
      <point x="481" y="0" type="line"/>
      <point x="290" y="330" type="line"/>
      <point x="223" y="470" type="line"/>
      <point x="220" y="470" type="line"/>
      <point x="220" y="0" type="line"/>
      <point x="77" y="0" type="line"/>
      <point x="77" y="698" type="line"/>
      <point x="243" y="698" type="line"/>
      <point x="434" y="368" type="line"/>
      <point x="501" y="228" type="line"/>
      <point x="504" y="228" type="line"/>
      <point x="504" y="698" type="line"/>
      <point x="647" y="698" type="line"/>
      <point x="647" y="0" type="line"/>
    </contour>
    <contour>
      <point x="437" y="762" type="qcurve" smooth="yes"/>
      <point x="414" y="762"/>
      <point x="396" y="768" type="qcurve"/>
      <point x="354" y="784" type="line"/>
      <point x="335" y="793"/>
      <point x="301" y="804"/>
      <point x="282" y="804" type="qcurve" smooth="yes"/>
      <point x="265" y="804"/>
      <point x="238" y="792"/>
      <point x="223" y="779" type="qcurve"/>
      <point x="171" y="847" type="line"/>
      <point x="212" y="911"/>
      <point x="285" y="911" type="qcurve" smooth="yes"/>
      <point x="308" y="911"/>
      <point x="326" y="905" type="qcurve"/>
      <point x="368" y="889" type="line"/>
      <point x="387" y="880"/>
      <point x="421" y="869"/>
      <point x="440" y="869" type="qcurve" smooth="yes"/>
      <point x="457" y="869"/>
      <point x="484" y="881"/>
      <point x="499" y="894" type="qcurve"/>
      <point x="551" y="826" type="line"/>
      <point x="510" y="762"/>
    </contour>
  </outline>
</glyph>
<glyph name="Otilde" format="2">
  <advance width="714"/>
  <unicode hex="00D5"/>
  <outline>
    <contour>
      <point x="357" y="123" type="qcurve"/>
      <point x="503" y="129"/>
      <point x="503" y="297" type="qcurve" smooth="yes"/>
      <point x="503" y="401" type="line" smooth="yes"/>
      <point x="503" y="485"/>
      <point x="426" y="575"/>
      <point x="357" y="575" type="qcurve"/>
      <point x="211" y="569"/>
      <point x="211" y="401" type="qcurve" smooth="yes"/>
      <point x="211" y="297" type="line" smooth="yes"/>
      <point x="211" y="213"/>
      <point x="288" y="123"/>
    </contour>
    <contour>
      <point x="357" y="-12" type="qcurve" smooth="yes"/>
      <point x="219" y="-12"/>
      <point x="134" y="80" type="qcurve" smooth="yes"/>
      <point x="50" y="174"/>
      <point x="50" y="349" type="qcurve" smooth="yes"/>
      <point x="50" y="523"/>
      <point x="134" y="619" type="qcurve"/>
      <point x="219" y="710"/>
      <point x="357" y="710" type="qcurve" smooth="yes"/>
      <point x="495" y="710"/>
      <point x="580" y="619" type="qcurve"/>
      <point x="664" y="523"/>
      <point x="664" y="349" type="qcurve" smooth="yes"/>
      <point x="664" y="174"/>
      <point x="580" y="80" type="qcurve" smooth="yes"/>
      <point x="495" y="-12"/>
    </contour>
    <contour>
      <point x="433" y="762" type="qcurve" smooth="yes"/>
      <point x="410" y="762"/>
      <point x="392" y="768" type="qcurve"/>
      <point x="350" y="784" type="line"/>
      <point x="331" y="793"/>
      <point x="297" y="804"/>
      <point x="278" y="804" type="qcurve" smooth="yes"/>
      <point x="261" y="804"/>
      <point x="234" y="792"/>
      <point x="219" y="779" type="qcurve"/>
      <point x="167" y="847" type="line"/>
      <point x="208" y="911"/>
      <point x="281" y="911" type="qcurve" smooth="yes"/>
      <point x="304" y="911"/>
      <point x="322" y="905" type="qcurve"/>
      <point x="364" y="889" type="line"/>
      <point x="383" y="880"/>
      <point x="417" y="869"/>
      <point x="436" y="869" type="qcurve" smooth="yes"/>
      <point x="453" y="869"/>
      <point x="480" y="881"/>
      <point x="495" y="894" type="qcurve"/>
      <point x="547" y="826" type="line"/>
      <point x="506" y="762"/>
    </contour>
  </outline>
</glyph>
<glyph name="aring" format="2">
  <advance width="553"/>
  <unicode hex="00E5"/>
  <outline>
    <contour>
      <point x="252" y="91" type="qcurve" smooth="yes"/>
      <point x="289" y="91"/>
      <point x="342" y="123"/>
      <point x="342" y="159" type="qcurve" smooth="yes"/>
      <point x="342" y="221" type="line"/>
      <point x="270" y="221" type="line" smooth="yes"/>
      <point x="183" y="221"/>
      <point x="183" y="162" type="qcurve" smooth="yes"/>
      <point x="183" y="147" type="line" smooth="yes"/>
      <point x="183" y="91"/>
    </contour>
    <contour>
      <point x="269" y="633" type="qcurve"/>
      <point x="320" y="636"/>
      <point x="320" y="684" type="qcurve" smooth="yes"/>
      <point x="320" y="718" type="line"/>
      <point x="319" y="769"/>
      <point x="269" y="769" type="qcurve"/>
      <point x="218" y="766"/>
      <point x="218" y="718" type="qcurve" smooth="yes"/>
      <point x="218" y="684" type="line"/>
      <point x="220" y="633"/>
    </contour>
    <contour>
      <point x="197" y="-12" type="qcurve" smooth="yes"/>
      <point x="118" y="-12"/>
      <point x="34" y="72"/>
      <point x="34" y="141" type="qcurve" smooth="yes"/>
      <point x="34" y="224"/>
      <point x="155" y="305"/>
      <point x="259" y="305" type="qcurve" smooth="yes"/>
      <point x="342" y="305" type="line"/>
      <point x="342" y="338" type="line" smooth="yes"/>
      <point x="342" y="421"/>
      <point x="255" y="421" type="qcurve" smooth="yes"/>
      <point x="211" y="421"/>
      <point x="159" y="384"/>
      <point x="142" y="359" type="qcurve"/>
      <point x="54" y="437" type="line"/>
      <point x="85" y="485"/>
      <point x="183" y="537"/>
      <point x="266" y="537" type="qcurve" smooth="yes"/>
      <point x="490" y="537"/>
      <point x="490" y="345" type="qcurve" smooth="yes"/>
      <point x="490" y="0" type="line"/>
      <point x="357" y="0" type="line"/>
      <point x="357" y="92" type="line"/>
      <point x="351" y="92" type="line"/>
      <point x="338" y="41"/>
      <point x="257" y="-12"/>
    </contour>
    <contour>
      <point x="269" y="558" type="qcurve" smooth="yes"/>
      <point x="208" y="558"/>
      <point x="121" y="640"/>
      <point x="121" y="701" type="qcurve" smooth="yes"/>
      <point x="121" y="763"/>
      <point x="208" y="844"/>
      <point x="269" y="844" type="qcurve" smooth="yes"/>
      <point x="331" y="844"/>
      <point x="417" y="763"/>
      <point x="417" y="701" type="qcurve" smooth="yes"/>
      <point x="417" y="640"/>
      <point x="331" y="558"/>
    </contour>
  </outline>
</glyph>
<glyph name="egrave" format="2">
  <advance width="562"/>
  <unicode hex="00E8"/>
  <outline>
    <contour>
      <point x="138" y="755" type="line"/>
      <point x="261" y="816" type="line"/>
      <point x="360" y="622" type="line"/>
      <point x="272" y="579" type="line"/>
    </contour>
    <contour>
      <point x="288" y="-12" type="qcurve" smooth="yes"/>
      <point x="168" y="-12"/>
      <point x="36" y="137"/>
      <point x="36" y="263" type="qcurve" smooth="yes"/>
      <point x="36" y="388"/>
      <point x="164" y="537"/>
      <point x="282" y="537" type="qcurve" smooth="yes"/>
      <point x="405" y="537"/>
      <point x="470" y="456" type="qcurve" smooth="yes"/>
      <point x="526" y="384"/>
      <point x="526" y="269" type="qcurve" smooth="yes"/>
      <point x="526" y="225" type="line"/>
      <point x="189" y="225" type="line"/>
      <point x="189" y="217" type="line" smooth="yes"/>
      <point x="189" y="165"/>
      <point x="245" y="104"/>
      <point x="305" y="104" type="qcurve" smooth="yes"/>
      <point x="351" y="104"/>
      <point x="410" y="140"/>
      <point x="434" y="167" type="qcurve"/>
      <point x="508" y="75" type="line"/>
      <point x="432" y="-12"/>
    </contour>
    <contour>
      <point x="373" y="321" type="line" smooth="yes"/>
      <point x="373" y="369"/>
      <point x="330" y="428"/>
      <point x="285" y="428" type="qcurve" smooth="yes"/>
      <point x="240" y="428"/>
      <point x="189" y="369"/>
      <point x="189" y="320" type="qcurve" smooth="yes"/>
      <point x="189" y="312" type="line"/>
      <point x="373" y="312" type="line"/>
    </contour>
  </outline>
</glyph>
<glyph name="eth" format="2">
  <advance width="603"/>
  <unicode hex="00F0"/>
  <outline>
    <contour>
      <point x="301" y="-12" type="qcurve" smooth="yes"/>
      <point x="180" y="-12"/>
      <point x="41" y="129"/>
      <point x="41" y="253" type="qcurve" smooth="yes"/>
      <point x="41" y="366"/>
      <point x="149" y="500"/>
      <point x="239" y="500" type="qcurve" smooth="yes"/>
      <point x="344" y="500"/>
      <point x="395" y="402" type="qcurve"/>
      <point x="402" y="405" type="line"/>
      <point x="373" y="500"/>
      <point x="290" y="581" type="qcurve"/>
      <point x="201" y="528" type="line"/>
      <point x="150" y="588" type="line"/>
      <point x="230" y="635" type="line"/>
      <point x="156" y="694"/>
      <point x="71" y="740" type="qcurve"/>
      <point x="297" y="740" type="line"/>
      <point x="310" y="732"/>
      <point x="334" y="713"/>
      <point x="346" y="704" type="qcurve"/>
      <point x="429" y="753" type="line"/>
      <point x="479" y="693" type="line"/>
      <point x="406" y="649" type="line"/>
      <point x="555" y="496"/>
      <point x="555" y="278" type="qcurve" smooth="yes"/>
      <point x="555" y="131"/>
      <point x="485" y="57" type="qcurve"/>
      <point x="415" y="-12"/>
    </contour>
    <contour>
      <point x="298" y="98" type="qcurve"/>
      <point x="402" y="102"/>
      <point x="402" y="216" type="qcurve" smooth="yes"/>
      <point x="402" y="270" type="line" smooth="yes"/>
      <point x="402" y="327"/>
      <point x="346" y="388"/>
      <point x="298" y="388" type="qcurve"/>
      <point x="194" y="384"/>
      <point x="194" y="270" type="qcurve" smooth="yes"/>
      <point x="194" y="216" type="line" smooth="yes"/>
      <point x="194" y="159"/>
      <point x="250" y="98"/>
    </contour>
  </outline>
</glyph>
<glyph name="ntilde" format="2">
  <advance width="596"/>
  <unicode hex="00F1"/>
  <outline>
    <contour>
      <point x="376" y="601" type="qcurve" smooth="yes"/>
      <point x="353" y="601"/>
      <point x="335" y="607" type="qcurve"/>
      <point x="293" y="623" type="line"/>
      <point x="274" y="632"/>
      <point x="240" y="643"/>
      <point x="221" y="643" type="qcurve" smooth="yes"/>
      <point x="204" y="643"/>
      <point x="177" y="631"/>
      <point x="162" y="618" type="qcurve"/>
      <point x="110" y="686" type="line"/>
      <point x="151" y="750"/>
      <point x="224" y="750" type="qcurve" smooth="yes"/>
      <point x="247" y="750"/>
      <point x="265" y="744" type="qcurve"/>
      <point x="307" y="728" type="line"/>
      <point x="326" y="719"/>
      <point x="360" y="708"/>
      <point x="379" y="708" type="qcurve" smooth="yes"/>
      <point x="396" y="708"/>
      <point x="423" y="720"/>
      <point x="438" y="733" type="qcurve"/>
      <point x="490" y="665" type="line"/>
      <point x="449" y="601"/>
    </contour>
    <contour>
      <point x="385" y="0" type="line"/>
      <point x="385" y="317" type="line" smooth="yes"/>
      <point x="385" y="368"/>
      <point x="353" y="417"/>
      <point x="312" y="417" type="qcurve" smooth="yes"/>
      <point x="276" y="417"/>
      <point x="217" y="378"/>
      <point x="217" y="340" type="qcurve" smooth="yes"/>
      <point x="217" y="0" type="line"/>
      <point x="69" y="0" type="line"/>
      <point x="69" y="525" type="line"/>
      <point x="217" y="525" type="line"/>
      <point x="217" y="436" type="line"/>
      <point x="223" y="436" type="line"/>
      <point x="237" y="478"/>
      <point x="307" y="537"/>
      <point x="369" y="537" type="qcurve" smooth="yes"/>
      <point x="450" y="537"/>
      <point x="533" y="429"/>
      <point x="533" y="329" type="qcurve" smooth="yes"/>
      <point x="533" y="0" type="line"/>
    </contour>
  </outline>
</glyph>
<glyph name="oacute" format="2">
  <advance width="564"/>
  <unicode hex="00F3"/>
  <outline>
    <contour>
      <point x="210" y="622" type="line"/>
      <point x="309" y="816" type="line"/>
      <point x="432" y="755" type="line"/>
      <point x="298" y="579" type="line"/>
    </contour>
    <contour>
      <point x="282" y="-12" type="qcurve" smooth="yes"/>
      <point x="167" y="-12"/>
      <point x="36" y="137"/>
      <point x="36" y="263" type="qcurve" smooth="yes"/>
      <point x="36" y="389"/>
      <point x="167" y="537"/>
      <point x="282" y="537" type="qcurve" smooth="yes"/>
      <point x="398" y="537"/>
      <point x="528" y="389"/>
      <point x="528" y="263" type="qcurve" smooth="yes"/>
      <point x="528" y="137"/>
      <point x="398" y="-12"/>
    </contour>
    <contour>
      <point x="282" y="105" type="qcurve"/>
      <point x="374" y="109"/>
      <point x="374" y="209" type="qcurve" smooth="yes"/>
      <point x="374" y="316" type="line"/>
      <point x="371" y="420"/>
      <point x="282" y="420" type="qcurve"/>
      <point x="190" y="417"/>
      <point x="190" y="316" type="qcurve" smooth="yes"/>
      <point x="190" y="209" type="line"/>
      <point x="194" y="105"/>
    </contour>
  </outline>
</glyph>
<glyph name="odieresis" format="2">
  <advance width="564"/>
  <unicode hex="00F6"/>
  <outline>
    <contour>
      <point x="282" y="105" type="qcurve"/>
      <point x="374" y="109"/>
      <point x="374" y="209" type="qcurve" smooth="yes"/>
      <point x="374" y="316" type="line"/>
      <point x="371" y="420"/>
      <point x="282" y="420" type="qcurve"/>
      <point x="190" y="417"/>
      <point x="190" y="316" type="qcurve" smooth="yes"/>
      <point x="190" y="209" type="line"/>
      <point x="194" y="105"/>
    </contour>
    <contour>
      <point x="282" y="-12" type="qcurve" smooth="yes"/>
      <point x="167" y="-12"/>
      <point x="36" y="137"/>
      <point x="36" y="263" type="qcurve" smooth="yes"/>
      <point x="36" y="389"/>
      <point x="167" y="537"/>
      <point x="282" y="537" type="qcurve" smooth="yes"/>
      <point x="398" y="537"/>
      <point x="528" y="389"/>
      <point x="528" y="263" type="qcurve" smooth="yes"/>
      <point x="528" y="137"/>
      <point x="398" y="-12"/>
    </contour>
    <contour>
      <point x="172" y="600" type="qcurve" smooth="yes"/>
      <point x="92" y="600"/>
      <point x="92" y="663" type="qcurve" smooth="yes"/>
      <point x="92" y="688" type="line" smooth="yes"/>
      <point x="92" y="751"/>
      <point x="172" y="751" type="qcurve" smooth="yes"/>
      <point x="252" y="751"/>
      <point x="252" y="688" type="qcurve" smooth="yes"/>
      <point x="252" y="663" type="line" smooth="yes"/>
      <point x="252" y="600"/>
    </contour>
    <contour>
      <point x="392" y="600" type="qcurve" smooth="yes"/>
      <point x="312" y="600"/>
      <point x="312" y="663" type="qcurve" smooth="yes"/>
      <point x="312" y="688" type="line" smooth="yes"/>
      <point x="312" y="751"/>
      <point x="392" y="751" type="qcurve" smooth="yes"/>
      <point x="472" y="751"/>
      <point x="472" y="688" type="qcurve" smooth="yes"/>
      <point x="472" y="663" type="line" smooth="yes"/>
      <point x="472" y="600"/>
    </contour>
  </outline>
</glyph>
<glyph name="udieresis" format="2">
  <advance width="596"/>
  <unicode hex="00FC"/>
  <outline>
    <contour>
      <point x="227" y="-12" type="qcurve" smooth="yes"/>
      <point x="146" y="-12"/>
      <point x="63" y="95"/>
      <point x="63" y="195" type="qcurve" smooth="yes"/>
      <point x="63" y="525" type="line"/>
      <point x="211" y="525" type="line"/>
      <point x="211" y="208" type="line" smooth="yes"/>
      <point x="211" y="160"/>
      <point x="245" y="108"/>
      <point x="286" y="108" type="qcurve" smooth="yes"/>
      <point x="321" y="108"/>
      <point x="379" y="147"/>
      <point x="379" y="184" type="qcurve" smooth="yes"/>
      <point x="379" y="525" type="line"/>
      <point x="527" y="525" type="line"/>
      <point x="527" y="0" type="line"/>
      <point x="379" y="0" type="line"/>
      <point x="379" y="88" type="line"/>
      <point x="374" y="88" type="line"/>
      <point x="361" y="47"/>
      <point x="292" y="-12"/>
    </contour>
    <contour>
      <point x="186" y="600" type="qcurve" smooth="yes"/>
      <point x="106" y="600"/>
      <point x="106" y="663" type="qcurve" smooth="yes"/>
      <point x="106" y="688" type="line" smooth="yes"/>
      <point x="106" y="751"/>
      <point x="186" y="751" type="qcurve" smooth="yes"/>
      <point x="266" y="751"/>
      <point x="266" y="688" type="qcurve" smooth="yes"/>
      <point x="266" y="663" type="line" smooth="yes"/>
      <point x="266" y="600"/>
    </contour>
    <contour>
      <point x="406" y="600" type="qcurve" smooth="yes"/>
      <point x="326" y="600"/>
      <point x="326" y="663" type="qcurve" smooth="yes"/>
      <point x="326" y="688" type="line" smooth="yes"/>
      <point x="326" y="751"/>
      <point x="406" y="751" type="qcurve" smooth="yes"/>
      <point x="486" y="751"/>
      <point x="486" y="688" type="qcurve" smooth="yes"/>
      <point x="486" y="663" type="line" smooth="yes"/>
      <point x="486" y="600"/>
    </contour>
  </outline>
</glyph>
<glyph name="yacute" format="2">
  <advance width="534"/>
  <unicode hex="00FD"/>
  <outline>
    <contour>
      <point x="73" y="-200" type="line"/>
      <point x="73" y="-85" type="line"/>
      <point x="172" y="-85" type="line"/>
      <point x="190" y="-27" type="line"/>
      <point x="6" y="525" type="line"/>
      <point x="153" y="525" type="line"/>
      <point x="230" y="280" type="line"/>
      <point x="268" y="128" type="line"/>
      <point x="274" y="128" type="line"/>
      <point x="313" y="280" type="line"/>
      <point x="390" y="525" type="line"/>
      <point x="528" y="525" type="line"/>
      <point x="326" y="-81" type="line"/>
      <point x="307" y="-142"/>
      <point x="233" y="-200"/>
      <point x="165" y="-200" type="qcurve" smooth="yes"/>
    </contour>
    <contour>
      <point x="200" y="622" type="line"/>
      <point x="299" y="816" type="line"/>
      <point x="422" y="755" type="line"/>
      <point x="288" y="579" type="line"/>
    </contour>
  </outline>
</glyph>
<glyph name="Aogonek" format="2">
  <advance width="685"/>
  <unicode hex="0104"/>
  <outline>
    <contour>
      <point x="575" y="-212" type="qcurve" smooth="yes"/>
      <point x="526" y="-212"/>
      <point x="451" y="-175"/>
      <point x="451" y="-127" type="qcurve" smooth="yes"/>
      <point x="451" y="-85"/>
      <point x="513" y="-29"/>
      <point x="570" y="-4" type="qcurve"/>
      <point x="569" y="0" type="line"/>
      <point x="507" y="0" type="line"/>
      <point x="457" y="166" type="line"/>
      <point x="224" y="166" type="line"/>
      <point x="174" y="0" type="line"/>
      <point x="20" y="0" type="line"/>
      <point x="250" y="698" type="line"/>
      <point x="438" y="698" type="line"/>
      <point x="665" y="0" type="line"/>
      <point x="593" y="-44"/>
      <point x="551" y="-86"/>
      <point x="551" y="-105" type="qcurve" smooth="yes"/>
      <point x="551" y="-138"/>
      <point x="589" y="-138" type="qcurve" smooth="yes"/>
      <point x="619" y="-138"/>
      <point x="644" y="-110" type="qcurve"/>
      <point x="697" y="-161" type="line"/>
      <point x="671" y="-212"/>
    </contour>
    <contour>
      <point x="342" y="560" type="line"/>
      <point x="337" y="560" type="line"/>
      <point x="260" y="295" type="line"/>
      <point x="420" y="295" type="line"/>
    </contour>
  </outline>
</glyph>
<glyph name="Cacute" format="2">
  <advance width="651"/>
  <unicode hex="0106"/>
  <outline>
    <contour>
      <point x="359" y="-12" type="qcurve" smooth="yes"/>
      <point x="217" y="-12"/>
      <point x="50" y="171"/>
      <point x="50" y="344" type="qcurve" smooth="yes"/>
      <point x="50" y="520"/>
      <point x="217" y="710"/>
      <point x="359" y="710" type="qcurve" smooth="yes"/>
      <point x="456" y="710"/>
      <point x="582" y="630"/>
      <point x="620" y="546" type="qcurve"/>
      <point x="489" y="478" type="line"/>
      <point x="476" y="523"/>
      <point x="416" y="575"/>
      <point x="359" y="575" type="qcurve" smooth="yes"/>
      <point x="292" y="575"/>
      <point x="211" y="488"/>
      <point x="211" y="405" type="qcurve" smooth="yes"/>
      <point x="211" y="293" type="line" smooth="yes"/>
      <point x="211" y="210"/>
      <point x="292" y="123"/>
      <point x="359" y="123" type="qcurve" smooth="yes"/>
      <point x="415" y="123"/>
      <point x="483" y="183"/>
      <point x="498" y="227" type="qcurve"/>
      <point x="622" y="155" type="line"/>
      <point x="584" y="74"/>
      <point x="456" y="-12"/>
    </contour>
    <contour>
      <point x="283" y="783" type="line"/>
      <point x="382" y="977" type="line"/>
      <point x="505" y="916" type="line"/>
      <point x="371" y="740" type="line"/>
    </contour>
  </outline>
</glyph>
<glyph name="ccircumflex" format="2">
  <advance width="517"/>
  <unicode hex="0109"/>
  <outline>
    <contour>
      <point x="281" y="-12" type="qcurve" smooth="yes"/>
      <point x="163" y="-12"/>
      <point x="36" y="137"/>
      <point x="36" y="263" type="qcurve" smooth="yes"/>
      <point x="36" y="389"/>
      <point x="163" y="537"/>
      <point x="281" y="537" type="qcurve" smooth="yes"/>
      <point x="442" y="537"/>
      <point x="491" y="400" type="qcurve"/>
      <point x="371" y="348" type="line"/>
      <point x="364" y="379"/>
      <point x="320" y="420"/>
      <point x="281" y="420" type="qcurve" smooth="yes"/>
      <point x="236" y="420"/>
      <point x="190" y="361"/>
      <point x="190" y="311" type="qcurve" smooth="yes"/>
      <point x="190" y="213" type="line" smooth="yes"/>
      <point x="190" y="163"/>
      <point x="236" y="104"/>
      <point x="281" y="104" type="qcurve" smooth="yes"/>
      <point x="325" y="104"/>
      <point x="369" y="150"/>
      <point x="379" y="183" type="qcurve"/>
      <point x="494" y="133" type="line"/>
      <point x="442" y="-12"/>
    </contour>
    <contour>
      <point x="275" y="693" type="line"/>
      <point x="154" y="578" type="line"/>
      <point x="81" y="636" type="line"/>
      <point x="213" y="795" type="line"/>
      <point x="337" y="795" type="line"/>
      <point x="469" y="636" type="line"/>
      <point x="396" y="578" type="line"/>
    </contour>
  </outline>
</glyph>
<glyph name="Ccaron" format="2">
  <advance width="651"/>
  <unicode hex="010C"/>
  <outline>
    <contour>
      <point x="293" y="748" type="line"/>
      <point x="161" y="907" type="line"/>
      <point x="234" y="965" type="line"/>
      <point x="355" y="850" type="line"/>
      <point x="476" y="965" type="line"/>
      <point x="549" y="907" type="line"/>
      <point x="417" y="748" type="line"/>
    </contour>
    <contour>
      <point x="359" y="-12" type="qcurve" smooth="yes"/>
      <point x="217" y="-12"/>
      <point x="50" y="171"/>
      <point x="50" y="344" type="qcurve" smooth="yes"/>
      <point x="50" y="520"/>
      <point x="217" y="710"/>
      <point x="359" y="710" type="qcurve" smooth="yes"/>
      <point x="456" y="710"/>
      <point x="582" y="630"/>
      <point x="620" y="546" type="qcurve"/>
      <point x="489" y="478" type="line"/>
      <point x="476" y="523"/>
      <point x="416" y="575"/>
      <point x="359" y="575" type="qcurve" smooth="yes"/>
      <point x="292" y="575"/>
      <point x="211" y="488"/>
      <point x="211" y="405" type="qcurve" smooth="yes"/>
      <point x="211" y="293" type="line" smooth="yes"/>
      <point x="211" y="210"/>
      <point x="292" y="123"/>
      <point x="359" y="123" type="qcurve" smooth="yes"/>
      <point x="415" y="123"/>
      <point x="483" y="183"/>
      <point x="498" y="227" type="qcurve"/>
      <point x="622" y="155" type="line"/>
      <point x="584" y="74"/>
      <point x="456" y="-12"/>
    </contour>
  </outline>
</glyph>
<glyph name="ebreve" format="2">
  <advance width="562"/>
  <unicode hex="0115"/>
  <outline>
    <contour>
      <point x="288" y="579" type="qcurve" smooth="yes"/>
      <point x="208" y="579"/>
      <point x="158" y="637" type="qcurve"/>
      <point x="115" y="691"/>
      <point x="98" y="749" type="qcurve"/>
      <point x="179" y="791" type="line"/>
      <point x="199" y="758" type="line" smooth="yes"/>
      <point x="220" y="722"/>
      <point x="262" y="682"/>
      <point x="288" y="682" type="qcurve" smooth="yes"/>
      <point x="314" y="682"/>
      <point x="357" y="722"/>
      <point x="378" y="758" type="qcurve" smooth="yes"/>
      <point x="398" y="791" type="line"/>
      <point x="478" y="749" type="line"/>
      <point x="461" y="691"/>
      <point x="416" y="637" type="qcurve"/>
      <point x="363" y="579"/>
    </contour>
    <contour>
      <point x="288" y="-12" type="qcurve" smooth="yes"/>
      <point x="168" y="-12"/>
      <point x="36" y="137"/>
      <point x="36" y="263" type="qcurve" smooth="yes"/>
      <point x="36" y="388"/>
      <point x="164" y="537"/>
      <point x="282" y="537" type="qcurve" smooth="yes"/>
      <point x="405" y="537"/>
      <point x="470" y="456" type="qcurve" smooth="yes"/>
      <point x="526" y="384"/>
      <point x="526" y="269" type="qcurve" smooth="yes"/>
      <point x="526" y="225" type="line"/>
      <point x="189" y="225" type="line"/>
      <point x="189" y="217" type="line" smooth="yes"/>
      <point x="189" y="165"/>
      <point x="245" y="104"/>
      <point x="305" y="104" type="qcurve" smooth="yes"/>
      <point x="351" y="104"/>
      <point x="410" y="140"/>
      <point x="434" y="167" type="qcurve"/>
      <point x="508" y="75" type="line"/>
      <point x="432" y="-12"/>
    </contour>
    <contour>
      <point x="373" y="321" type="line" smooth="yes"/>
      <point x="373" y="369"/>
      <point x="330" y="428"/>
      <point x="285" y="428" type="qcurve" smooth="yes"/>
      <point x="240" y="428"/>
      <point x="189" y="369"/>
      <point x="189" y="320" type="qcurve" smooth="yes"/>
      <point x="189" y="312" type="line"/>
      <point x="373" y="312" type="line"/>
    </contour>
  </outline>
</glyph>
<glyph name="Ecaron" format="2">
  <advance width="607"/>
  <unicode hex="011A"/>
  <outline>
    <contour>
      <point x="77" y="0" type="line"/>
      <point x="77" y="698" type="line"/>
      <point x="552" y="698" type="line"/>
      <point x="552" y="563" type="line"/>
      <point x="229" y="563" type="line"/>
      <point x="229" y="420" type="line"/>
      <point x="506" y="420" type="line"/>
      <point x="506" y="286" type="line"/>
      <point x="229" y="286" type="line"/>
      <point x="229" y="135" type="line"/>
      <point x="552" y="135" type="line"/>
      <point x="552" y="0" type="line"/>
    </contour>
    <contour>
      <point x="253" y="748" type="line"/>
      <point x="121" y="907" type="line"/>
      <point x="194" y="965" type="line"/>
      <point x="315" y="850" type="line"/>
      <point x="436" y="965" type="line"/>
      <point x="509" y="907" type="line"/>
      <point x="377" y="748" type="line"/>
    </contour>
  </outline>
</glyph>
<glyph name="Gdotaccent" format="2">
  <advance width="681"/>
  <unicode hex="0120"/>
  <outline>
    <contour>
      <point x="39" y="349" type="qcurve" smooth="yes"/>
      <point x="39" y="468"/>
      <point x="122" y="630"/>
      <point x="266" y="710"/>
      <point x="356" y="710" type="qcurve" smooth="yes"/>
      <point x="418" y="710"/>
      <point x="508" y="679"/>
      <point x="572" y="629"/>
      <point x="613" y="572"/>
      <point x="630" y="541" type="qcurve"/>
      <point x="495" y="479" type="line"/>
      <point x="486" y="507"/>
      <point x="452" y="549"/>
      <point x="398" y="577"/>
      <point x="360" y="577" type="qcurve" smooth="yes"/>
      <point x="311" y="577"/>
      <point x="245" y="532"/>
      <point x="211" y="455"/>
      <point x="211" y="409" type="qcurve" smooth="yes"/>
      <point x="211" y="290" type="line" smooth="yes"/>
      <point x="211" y="240"/>
      <point x="237" y="174"/>
      <point x="278" y="137"/>
      <point x="328" y="121"/>
      <point x="353" y="121" type="qcurve" smooth="yes"/>
      <point x="389" y="121"/>
      <point x="447" y="147"/>
      <point x="484" y="199"/>
      <point x="484" y="241" type="qcurve" smooth="yes"/>
      <point x="484" y="262" type="line"/>
      <point x="319" y="262" type="line"/>
      <point x="319" y="395" type="line"/>
      <point x="640" y="395" type="line"/>
      <point x="640" y="246" type="line" smooth="yes"/>
      <point x="640" y="175"/>
      <point x="582" y="77"/>
      <point x="490" y="16"/>
      <point x="387" y="-12"/>
      <point x="340" y="-12" type="qcurve" smooth="yes"/>
      <point x="282" y="-12"/>
      <point x="187" y="23"/>
      <point x="115" y="89"/>
      <point x="65" y="177"/>
      <point x="39" y="287"/>
    </contour>
    <contour>
      <point x="341" y="752" type="qcurve" smooth="yes"/>
      <point x="292" y="752"/>
      <point x="252" y="793"/>
      <point x="252" y="822" type="qcurve" smooth="yes"/>
      <point x="252" y="851" type="line" smooth="yes"/>
      <point x="252" y="880"/>
      <point x="292" y="921"/>
      <point x="341" y="921" type="qcurve" smooth="yes"/>
      <point x="391" y="921"/>
      <point x="430" y="880"/>
      <point x="430" y="851" type="qcurve" smooth="yes"/>
      <point x="430" y="822" type="line" smooth="yes"/>
      <point x="430" y="793"/>
      <point x="391" y="752"/>
    </contour>
  </outline>
</glyph>
<glyph name="Itilde" format="2">
  <advance width="306"/>
  <unicode hex="0128"/>
  <outline>
    <contour>
      <point x="229" y="0" type="line"/>
      <point x="77" y="0" type="line"/>
      <point x="77" y="698" type="line"/>
      <point x="229" y="698" type="line"/>
    </contour>
    <contour>
      <point x="230" y="762" type="qcurve" smooth="yes"/>
      <point x="207" y="762"/>
      <point x="189" y="768" type="qcurve"/>
      <point x="147" y="784" type="line"/>
      <point x="128" y="793"/>
      <point x="94" y="804"/>
      <point x="75" y="804" type="qcurve" smooth="yes"/>
      <point x="58" y="804"/>
      <point x="31" y="792"/>
      <point x="16" y="779" type="qcurve"/>
      <point x="-36" y="847" type="line"/>
      <point x="5" y="911"/>
      <point x="78" y="911" type="qcurve" smooth="yes"/>
      <point x="101" y="911"/>
      <point x="119" y="905" type="qcurve"/>
      <point x="161" y="889" type="line"/>
      <point x="180" y="880"/>
      <point x="214" y="869"/>
      <point x="233" y="869" type="qcurve" smooth="yes"/>
      <point x="250" y="869"/>
      <point x="277" y="881"/>
      <point x="292" y="894" type="qcurve"/>
      <point x="344" y="826" type="line"/>
      <point x="303" y="762"/>
    </contour>
  </outline>
</glyph>
<glyph name="itilde" format="2">
  <advance width="286"/>
  <unicode hex="0129"/>
  <outline>
    <contour>
      <point x="220" y="601" type="qcurve" smooth="yes"/>
      <point x="197" y="601"/>
      <point x="179" y="607" type="qcurve"/>
      <point x="137" y="623" type="line"/>
      <point x="118" y="632"/>
      <point x="84" y="643"/>
      <point x="65" y="643" type="qcurve" smooth="yes"/>
      <point x="48" y="643"/>
      <point x="21" y="631"/>
      <point x="6" y="618" type="qcurve"/>
      <point x="-46" y="686" type="line"/>
      <point x="-5" y="750"/>
      <point x="68" y="750" type="qcurve" smooth="yes"/>
      <point x="91" y="750"/>
      <point x="109" y="744" type="qcurve"/>
      <point x="151" y="728" type="line"/>
      <point x="170" y="719"/>
      <point x="204" y="708"/>
      <point x="223" y="708" type="qcurve" smooth="yes"/>
      <point x="240" y="708"/>
      <point x="267" y="720"/>
      <point x="282" y="733" type="qcurve"/>
      <point x="334" y="665" type="line"/>
      <point x="293" y="601"/>
    </contour>
    <contour>
      <point x="69" y="0" type="line"/>
      <point x="69" y="525" type="line"/>
      <point x="217" y="525" type="line"/>
      <point x="217" y="0" type="line"/>
    </contour>
  </outline>
</glyph>
<glyph name="Imacron" format="2">
  <advance width="306"/>
  <unicode hex="012A"/>
  <outline>
    <contour>
      <point x="307" y="785" type="line"/>
      <point x="1" y="785" type="line"/>
      <point x="1" y="888" type="line"/>
      <point x="307" y="888" type="line"/>
    </contour>
    <contour>
      <point x="229" y="0" type="line"/>
      <point x="77" y="0" type="line"/>
      <point x="77" y="698" type="line"/>
      <point x="229" y="698" type="line"/>
    </contour>
  </outline>
</glyph>
<glyph name="imacron" format="2">
  <advance width="286"/>
  <unicode hex="012B"/>
  <outline>
    <contour>
      <point x="69" y="0" type="line"/>
      <point x="69" y="525" type="line"/>
      <point x="217" y="525" type="line"/>
      <point x="217" y="0" type="line"/>
    </contour>
    <contour>
      <point x="-9" y="624" type="line"/>
      <point x="-9" y="727" type="line"/>
      <point x="297" y="727" type="line"/>
      <point x="297" y="624" type="line"/>
    </contour>
  </outline>
</glyph>
<glyph name="iogonek" format="2">
  <advance width="286"/>
  <unicode hex="012F"/>
  <outline>
    <contour>
      <point x="143" y="581" type="qcurve" smooth="yes"/>
      <point x="98" y="581"/>
      <point x="57" y="622"/>
      <point x="57" y="654" type="qcurve" smooth="yes"/>
      <point x="57" y="676" type="line" smooth="yes"/>
      <point x="57" y="708"/>
      <point x="98" y="749"/>
      <point x="143" y="749" type="qcurve" smooth="yes"/>
      <point x="188" y="749"/>
      <point x="229" y="708"/>
      <point x="229" y="676" type="qcurve" smooth="yes"/>
      <point x="229" y="654" type="line" smooth="yes"/>
      <point x="229" y="622"/>
      <point x="188" y="581"/>
    </contour>
    <contour>
      <point x="127" y="-212" type="qcurve" smooth="yes"/>
      <point x="78" y="-212"/>
      <point x="3" y="-175"/>
      <point x="3" y="-127" type="qcurve" smooth="yes"/>
      <point x="3" y="-85"/>
      <point x="65" y="-29"/>
      <point x="122" y="-4" type="qcurve"/>
      <point x="121" y="0" type="line"/>
      <point x="69" y="0" type="line"/>
      <point x="69" y="525" type="line"/>
      <point x="217" y="525" type="line"/>
      <point x="217" y="0" type="line"/>
      <point x="145" y="-44"/>
      <point x="103" y="-86"/>
      <point x="103" y="-105" type="qcurve" smooth="yes"/>
      <point x="103" y="-138"/>
      <point x="141" y="-138" type="qcurve" smooth="yes"/>
      <point x="171" y="-138"/>
      <point x="196" y="-110" type="qcurve"/>
      <point x="249" y="-161" type="line"/>
      <point x="223" y="-212"/>
    </contour>
  </outline>
</glyph>
<glyph name="jcircumflex" format="2">
  <advance width="286"/>
  <unicode hex="0135"/>
  <outline>
    <contour>
      <point x="-9" y="-200" type="line"/>
      <point x="-9" y="-85" type="line"/>
      <point x="69" y="-85" type="line"/>
      <point x="69" y="525" type="line"/>
      <point x="217" y="525" type="line"/>
      <point x="217" y="-56" type="line" smooth="yes"/>
      <point x="217" y="-126"/>
      <point x="147" y="-200"/>
      <point x="69" y="-200" type="qcurve" smooth="yes"/>
    </contour>
    <contour>
      <point x="144" y="693" type="line"/>
      <point x="23" y="578" type="line"/>
      <point x="-50" y="636" type="line"/>
      <point x="82" y="795" type="line"/>
      <point x="206" y="795" type="line"/>
      <point x="338" y="636" type="line"/>
      <point x="265" y="578" type="line"/>
    </contour>
  </outline>
</glyph>
<glyph name="u0136" format="2">
  <advance width="696"/>
  <unicode hex="0136"/>
  <outline>
    <contour>
      <point x="282" y="-275" type="line"/>
      <point x="331" y="-234"/>
      <point x="344" y="-176" type="qcurve"/>
      <point x="294" y="-171"/>
      <point x="294" y="-115" type="qcurve" smooth="yes"/>
      <point x="294" y="-104" type="line"/>
      <point x="298" y="-42"/>
      <point x="364" y="-42" type="qcurve"/>
      <point x="434" y="-44"/>
      <point x="434" y="-104" type="qcurve" smooth="yes"/>
      <point x="434" y="-118" type="line" smooth="yes"/>
      <point x="434" y="-164"/>
      <point x="397" y="-249"/>
      <point x="367" y="-275" type="qcurve"/>
    </contour>
    <contour>
      <point x="505" y="0" type="line"/>
      <point x="320" y="304" type="line"/>
      <point x="229" y="194" type="line"/>
      <point x="229" y="0" type="line"/>
      <point x="77" y="0" type="line"/>
      <point x="77" y="698" type="line"/>
      <point x="229" y="698" type="line"/>
      <point x="229" y="366" type="line"/>
      <point x="235" y="366" type="line"/>
      <point x="334" y="501" type="line"/>
      <point x="491" y="698" type="line"/>
      <point x="663" y="698" type="line"/>
      <point x="428" y="411" type="line"/>
      <point x="684" y="0" type="line"/>
    </contour>
  </outline>
</glyph>
<glyph name="kcedilla" format="2">
  <advance width="577"/>
  <unicode hex="0137"/>
  <outline>
    <contour>
      <point x="401" y="0" type="line"/>
      <point x="283" y="222" type="line"/>
      <point x="217" y="148" type="line"/>
      <point x="217" y="0" type="line"/>
      <point x="69" y="0" type="line"/>
      <point x="69" y="740" type="line"/>
      <point x="217" y="740" type="line"/>
      <point x="217" y="303" type="line"/>
      <point x="223" y="303" type="line"/>
      <point x="288" y="400" type="line"/>
      <point x="393" y="525" type="line"/>
      <point x="557" y="525" type="line"/>
      <point x="382" y="324" type="line"/>
      <point x="577" y="0" type="line"/>
    </contour>
    <contour>
      <point x="241" y="-275" type="line"/>
      <point x="290" y="-234"/>
      <point x="303" y="-176" type="qcurve"/>
      <point x="253" y="-171"/>
      <point x="253" y="-115" type="qcurve" smooth="yes"/>
      <point x="253" y="-104" type="line"/>
      <point x="257" y="-42"/>
      <point x="323" y="-42" type="qcurve"/>
      <point x="393" y="-44"/>
      <point x="393" y="-104" type="qcurve" smooth="yes"/>
      <point x="393" y="-118" type="line" smooth="yes"/>
      <point x="393" y="-164"/>
      <point x="356" y="-249"/>
      <point x="326" y="-275" type="qcurve"/>
    </contour>
  </outline>
</glyph>
<glyph name="Lcedilla" format="2">
  <advance width="530"/>
  <unicode hex="013B"/>
  <outline>
    <contour>
      <point x="77" y="0" type="line"/>
      <point x="77" y="698" type="line"/>
      <point x="229" y="698" type="line"/>
      <point x="229" y="135" type="line"/>
      <point x="495" y="135" type="line"/>
      <point x="495" y="0" type="line"/>
    </contour>
    <contour>
      <point x="203" y="-275" type="line"/>
      <point x="252" y="-234"/>
      <point x="265" y="-176" type="qcurve"/>
      <point x="215" y="-171"/>
      <point x="215" y="-115" type="qcurve" smooth="yes"/>
      <point x="215" y="-104" type="line"/>
      <point x="219" y="-42"/>
      <point x="285" y="-42" type="qcurve"/>
      <point x="355" y="-44"/>
      <point x="355" y="-104" type="qcurve" smooth="yes"/>
      <point x="355" y="-118" type="line" smooth="yes"/>
      <point x="355" y="-164"/>
      <point x="318" y="-249"/>
      <point x="288" y="-275" type="qcurve"/>
    </contour>
  </outline>
</glyph>
<glyph name="lcedilla" format="2">
  <advance width="303"/>
  <unicode hex="013C"/>
  <outline>
    <contour>
      <point x="216" y="0" type="line" smooth="yes"/>
      <point x="69" y="0"/>
      <point x="69" y="144" type="qcurve" smooth="yes"/>
      <point x="69" y="740" type="line"/>
      <point x="217" y="740" type="line"/>
      <point x="217" y="115" type="line"/>
      <point x="283" y="115" type="line"/>
      <point x="283" y="0" type="line"/>
    </contour>
    <contour>
      <point x="92" y="-275" type="line"/>
      <point x="141" y="-234"/>
      <point x="154" y="-176" type="qcurve"/>
      <point x="104" y="-171"/>
      <point x="104" y="-115" type="qcurve" smooth="yes"/>
      <point x="104" y="-104" type="line"/>
      <point x="108" y="-42"/>
      <point x="174" y="-42" type="qcurve"/>
      <point x="244" y="-44"/>
      <point x="244" y="-104" type="qcurve" smooth="yes"/>
      <point x="244" y="-118" type="line" smooth="yes"/>
      <point x="244" y="-164"/>
      <point x="207" y="-249"/>
      <point x="177" y="-275" type="qcurve"/>
    </contour>
  </outline>
</glyph>
<glyph name="u0145" format="2">
  <advance width="724"/>
  <unicode hex="0145"/>
  <outline>
    <contour>
      <point x="278" y="-275" type="line"/>
      <point x="327" y="-234"/>
      <point x="340" y="-176" type="qcurve"/>
      <point x="290" y="-171"/>
      <point x="290" y="-115" type="qcurve" smooth="yes"/>
      <point x="290" y="-104" type="line"/>
      <point x="294" y="-42"/>
      <point x="360" y="-42" type="qcurve"/>
      <point x="430" y="-44"/>
      <point x="430" y="-104" type="qcurve" smooth="yes"/>
      <point x="430" y="-118" type="line" smooth="yes"/>
      <point x="430" y="-164"/>
      <point x="393" y="-249"/>
      <point x="363" y="-275" type="qcurve"/>
    </contour>
    <contour>
      <point x="481" y="0" type="line"/>
      <point x="290" y="330" type="line"/>
      <point x="223" y="470" type="line"/>
      <point x="220" y="470" type="line"/>
      <point x="220" y="0" type="line"/>
      <point x="77" y="0" type="line"/>
      <point x="77" y="698" type="line"/>
      <point x="243" y="698" type="line"/>
      <point x="434" y="368" type="line"/>
      <point x="501" y="228" type="line"/>
      <point x="504" y="228" type="line"/>
      <point x="504" y="698" type="line"/>
      <point x="647" y="698" type="line"/>
      <point x="647" y="0" type="line"/>
    </contour>
  </outline>
</glyph>
<glyph name="obreve" format="2">
  <advance width="564"/>
  <unicode hex="014F"/>
  <outline>
    <contour>
      <point x="282" y="105" type="qcurve"/>
      <point x="374" y="109"/>
      <point x="374" y="209" type="qcurve" smooth="yes"/>
      <point x="374" y="316" type="line"/>
      <point x="371" y="420"/>
      <point x="282" y="420" type="qcurve"/>
      <point x="190" y="417"/>
      <point x="190" y="316" type="qcurve" smooth="yes"/>
      <point x="190" y="209" type="line"/>
      <point x="194" y="105"/>
    </contour>
    <contour>
      <point x="282" y="-12" type="qcurve" smooth="yes"/>
      <point x="167" y="-12"/>
      <point x="36" y="137"/>
      <point x="36" y="263" type="qcurve" smooth="yes"/>
      <point x="36" y="389"/>
      <point x="167" y="537"/>
      <point x="282" y="537" type="qcurve" smooth="yes"/>
      <point x="398" y="537"/>
      <point x="528" y="389"/>
      <point x="528" y="263" type="qcurve" smooth="yes"/>
      <point x="528" y="137"/>
      <point x="398" y="-12"/>
    </contour>
    <contour>
      <point x="282" y="579" type="qcurve" smooth="yes"/>
      <point x="202" y="579"/>
      <point x="152" y="637" type="qcurve"/>
      <point x="109" y="691"/>
      <point x="92" y="749" type="qcurve"/>
      <point x="173" y="791" type="line"/>
      <point x="193" y="758" type="line" smooth="yes"/>
      <point x="214" y="722"/>
      <point x="256" y="682"/>
      <point x="282" y="682" type="qcurve" smooth="yes"/>
      <point x="308" y="682"/>
      <point x="351" y="722"/>
      <point x="372" y="758" type="qcurve" smooth="yes"/>
      <point x="392" y="791" type="line"/>
      <point x="472" y="749" type="line"/>
      <point x="455" y="691"/>
      <point x="410" y="637" type="qcurve"/>
      <point x="357" y="579"/>
    </contour>
  </outline>
</glyph>
<glyph name="Racute" format="2">
  <advance width="674"/>
  <unicode hex="0154"/>
  <outline>
    <contour>
      <point x="389" y="384" type="line"/>
      <point x="462" y="386"/>
      <point x="462" y="453" type="qcurve" smooth="yes"/>
      <point x="462" y="497" type="line" smooth="yes"/>
      <point x="462" y="531"/>
      <point x="423" y="566"/>
      <point x="389" y="566" type="qcurve" smooth="yes"/>
      <point x="229" y="566" type="line"/>
      <point x="229" y="384" type="line"/>
    </contour>
    <contour>
      <point x="460" y="0" type="line"/>
      <point x="338" y="256" type="line"/>
      <point x="229" y="256" type="line"/>
      <point x="229" y="0" type="line"/>
      <point x="77" y="0" type="line"/>
      <point x="77" y="698" type="line"/>
      <point x="408" y="698" type="line" smooth="yes"/>
      <point x="504" y="698"/>
      <point x="619" y="576"/>
      <point x="619" y="475" type="qcurve" smooth="yes"/>
      <point x="619" y="404"/>
      <point x="556" y="299"/>
      <point x="492" y="274" type="qcurve"/>
      <point x="629" y="0" type="line"/>
    </contour>
    <contour>
      <point x="252" y="783" type="line"/>
      <point x="351" y="977" type="line"/>
      <point x="474" y="916" type="line"/>
      <point x="340" y="740" type="line"/>
    </contour>
  </outline>
</glyph>
<glyph name="racute" format="2">
  <advance width="404"/>
  <unicode hex="0155"/>
  <outline>
    <contour>
      <point x="69" y="0" type="line"/>
      <point x="69" y="525" type="line"/>
      <point x="217" y="525" type="line"/>
      <point x="217" y="411" type="line"/>
      <point x="222" y="411" type="line"/>
      <point x="230" y="457"/>
      <point x="299" y="525"/>
      <point x="356" y="525" type="qcurve" smooth="yes"/>
      <point x="382" y="525" type="line"/>
      <point x="382" y="387" type="line"/>
      <point x="345" y="387" type="line" smooth="yes"/>
      <point x="280" y="387"/>
      <point x="217" y="353"/>
      <point x="217" y="307" type="qcurve" smooth="yes"/>
      <point x="217" y="0" type="line"/>
    </contour>
    <contour>
      <point x="153" y="622" type="line"/>
      <point x="252" y="816" type="line"/>
      <point x="375" y="755" type="line"/>
      <point x="241" y="579" type="line"/>
    </contour>
  </outline>
</glyph>
<glyph name="Rcedilla" format="2">
  <advance width="674"/>
  <unicode hex="0156"/>
  <outline>
    <contour>
      <point x="460" y="0" type="line"/>
      <point x="338" y="256" type="line"/>
      <point x="229" y="256" type="line"/>
      <point x="229" y="0" type="line"/>
      <point x="77" y="0" type="line"/>
      <point x="77" y="698" type="line"/>
      <point x="408" y="698" type="line" smooth="yes"/>
      <point x="504" y="698"/>
      <point x="619" y="576"/>
      <point x="619" y="475" type="qcurve" smooth="yes"/>
      <point x="619" y="404"/>
      <point x="556" y="299"/>
      <point x="492" y="274" type="qcurve"/>
      <point x="629" y="0" type="line"/>
    </contour>
    <contour>
      <point x="389" y="384" type="line"/>
      <point x="462" y="386"/>
      <point x="462" y="453" type="qcurve" smooth="yes"/>
      <point x="462" y="497" type="line" smooth="yes"/>
      <point x="462" y="531"/>
      <point x="423" y="566"/>
      <point x="389" y="566" type="qcurve" smooth="yes"/>
      <point x="229" y="566" type="line"/>
      <point x="229" y="384" type="line"/>
    </contour>
    <contour>
      <point x="271" y="-275" type="line"/>
      <point x="320" y="-234"/>
      <point x="333" y="-176" type="qcurve"/>
      <point x="283" y="-171"/>
      <point x="283" y="-115" type="qcurve" smooth="yes"/>
      <point x="283" y="-104" type="line"/>
      <point x="287" y="-42"/>
      <point x="353" y="-42" type="qcurve"/>
      <point x="423" y="-44"/>
      <point x="423" y="-104" type="qcurve" smooth="yes"/>
      <point x="423" y="-118" type="line" smooth="yes"/>
      <point x="423" y="-164"/>
      <point x="386" y="-249"/>
      <point x="356" y="-275" type="qcurve"/>
    </contour>
  </outline>
</glyph>
<glyph name="rcaron" format="2">
  <advance width="404"/>
  <unicode hex="0159"/>
  <outline>
    <contour>
      <point x="69" y="0" type="line"/>
      <point x="69" y="525" type="line"/>
      <point x="217" y="525" type="line"/>
      <point x="217" y="411" type="line"/>
      <point x="222" y="411" type="line"/>
      <point x="230" y="457"/>
      <point x="299" y="525"/>
      <point x="356" y="525" type="qcurve" smooth="yes"/>
      <point x="382" y="525" type="line"/>
      <point x="382" y="387" type="line"/>
      <point x="345" y="387" type="line" smooth="yes"/>
      <point x="280" y="387"/>
      <point x="217" y="353"/>
      <point x="217" y="307" type="qcurve" smooth="yes"/>
      <point x="217" y="0" type="line"/>
    </contour>
    <contour>
      <point x="163" y="587" type="line"/>
      <point x="31" y="746" type="line"/>
      <point x="104" y="804" type="line"/>
      <point x="225" y="689" type="line"/>
      <point x="346" y="804" type="line"/>
      <point x="419" y="746" type="line"/>
      <point x="287" y="587" type="line"/>
    </contour>
  </outline>
</glyph>
<glyph name="sacute" format="2">
  <advance width="504"/>
  <unicode hex="015B"/>
  <outline>
    <contour>
      <point x="179" y="622" type="line"/>
      <point x="278" y="816" type="line"/>
      <point x="401" y="755" type="line"/>
      <point x="267" y="579" type="line"/>
    </contour>
    <contour>
      <point x="247" y="-12" type="qcurve" smooth="yes"/>
      <point x="171" y="-12"/>
      <point x="66" y="37"/>
      <point x="26" y="82" type="qcurve"/>
      <point x="113" y="170" type="line"/>
      <point x="173" y="103"/>
      <point x="252" y="103" type="qcurve" smooth="yes"/>
      <point x="296" y="103"/>
      <point x="330" y="130"/>
      <point x="330" y="153" type="qcurve" smooth="yes"/>
      <point x="330" y="191"/>
      <point x="277" y="197" type="qcurve" smooth="yes"/>
      <point x="220" y="204" type="line" smooth="yes"/>
      <point x="43" y="227"/>
      <point x="43" y="366" type="qcurve" smooth="yes"/>
      <point x="43" y="443"/>
      <point x="153" y="537"/>
      <point x="247" y="537" type="qcurve" smooth="yes"/>
      <point x="330" y="537"/>
      <point x="422" y="494"/>
      <point x="461" y="455" type="qcurve"/>
      <point x="376" y="368" type="line"/>
      <point x="321" y="422"/>
      <point x="255" y="422" type="qcurve" smooth="yes"/>
      <point x="185" y="422"/>
      <point x="185" y="378" type="qcurve" smooth="yes"/>
      <point x="185" y="357"/>
      <point x="208" y="334"/>
      <point x="270" y="325"/>
      <point x="299" y="321" type="qcurve" smooth="yes"/>
      <point x="472" y="298"/>
      <point x="472" y="163" type="qcurve" smooth="yes"/>
      <point x="472" y="87"/>
      <point x="349" y="-12"/>
    </contour>
  </outline>
</glyph>
<glyph name="Scaron" format="2">
  <advance width="624"/>
  <unicode hex="0160"/>
  <outline>
    <contour>
      <point x="248" y="748" type="line"/>
      <point x="116" y="907" type="line"/>
      <point x="189" y="965" type="line"/>
      <point x="310" y="850" type="line"/>
      <point x="431" y="965" type="line"/>
      <point x="504" y="907" type="line"/>
      <point x="372" y="748" type="line"/>
    </contour>
    <contour>
      <point x="303" y="-12" type="qcurve" smooth="yes"/>
      <point x="136" y="-12"/>
      <point x="38" y="101" type="qcurve"/>
      <point x="138" y="202" type="line"/>
      <point x="210" y="122"/>
      <point x="313" y="122" type="qcurve" smooth="yes"/>
      <point x="369" y="122"/>
      <point x="423" y="168"/>
      <point x="423" y="206" type="qcurve" smooth="yes"/>
      <point x="423" y="235"/>
      <point x="390" y="274"/>
      <point x="342" y="281" type="qcurve" smooth="yes"/>
      <point x="273" y="290" type="line" smooth="yes"/>
      <point x="59" y="318"/>
      <point x="59" y="498" type="qcurve" smooth="yes"/>
      <point x="59" y="593"/>
      <point x="129" y="651" type="qcurve"/>
      <point x="197" y="710"/>
      <point x="321" y="710" type="qcurve" smooth="yes"/>
      <point x="479" y="710"/>
      <point x="563" y="612" type="qcurve"/>
      <point x="462" y="510" type="line"/>
      <point x="408" y="576"/>
      <point x="312" y="576" type="qcurve" smooth="yes"/>
      <point x="261" y="576"/>
      <point x="211" y="540"/>
      <point x="211" y="508" type="qcurve" smooth="yes"/>
      <point x="211" y="472"/>
      <point x="250" y="439"/>
      <point x="294" y="433" type="qcurve"/>
      <point x="363" y="422" type="line" smooth="yes"/>
      <point x="471" y="405"/>
      <point x="575" y="306"/>
      <point x="575" y="215" type="qcurve" smooth="yes"/>
      <point x="575" y="115"/>
      <point x="434" y="-12"/>
    </contour>
  </outline>
</glyph>
<glyph name="scaron" format="2">
  <advance width="504"/>
  <unicode hex="0161"/>
  <outline>
    <contour>
      <point x="247" y="-12" type="qcurve" smooth="yes"/>
      <point x="171" y="-12"/>
      <point x="66" y="37"/>
      <point x="26" y="82" type="qcurve"/>
      <point x="113" y="170" type="line"/>
      <point x="173" y="103"/>
      <point x="252" y="103" type="qcurve" smooth="yes"/>
      <point x="296" y="103"/>
      <point x="330" y="130"/>
      <point x="330" y="153" type="qcurve" smooth="yes"/>
      <point x="330" y="191"/>
      <point x="277" y="197" type="qcurve" smooth="yes"/>
      <point x="220" y="204" type="line" smooth="yes"/>
      <point x="43" y="227"/>
      <point x="43" y="366" type="qcurve" smooth="yes"/>
      <point x="43" y="443"/>
      <point x="153" y="537"/>
      <point x="247" y="537" type="qcurve" smooth="yes"/>
      <point x="330" y="537"/>
      <point x="422" y="494"/>
      <point x="461" y="455" type="qcurve"/>
      <point x="376" y="368" type="line"/>
      <point x="321" y="422"/>
      <point x="255" y="422" type="qcurve" smooth="yes"/>
      <point x="185" y="422"/>
      <point x="185" y="378" type="qcurve" smooth="yes"/>
      <point x="185" y="357"/>
      <point x="208" y="334"/>
      <point x="270" y="325"/>
      <point x="299" y="321" type="qcurve" smooth="yes"/>
      <point x="472" y="298"/>
      <point x="472" y="163" type="qcurve" smooth="yes"/>
      <point x="472" y="87"/>
      <point x="349" y="-12"/>
    </contour>
    <contour>
      <point x="189" y="587" type="line"/>
      <point x="57" y="746" type="line"/>
      <point x="130" y="804" type="line"/>
      <point x="251" y="689" type="line"/>
      <point x="372" y="804" type="line"/>
      <point x="445" y="746" type="line"/>
      <point x="313" y="587" type="line"/>
    </contour>
  </outline>
</glyph>
<glyph name="Utilde" format="2">
  <advance width="694"/>
  <unicode hex="0168"/>
  <outline>
    <contour>
      <point x="347" y="-12" type="qcurve" smooth="yes"/>
      <point x="197" y="-12"/>
      <point x="135" y="60" type="qcurve"/>
      <point x="73" y="128"/>
      <point x="73" y="286" type="qcurve" smooth="yes"/>
      <point x="73" y="698" type="line"/>
      <point x="221" y="698" type="line"/>
      <point x="221" y="270" type="line" smooth="yes"/>
      <point x="221" y="196"/>
      <point x="279" y="123"/>
      <point x="347" y="123" type="qcurve" smooth="yes"/>
      <point x="415" y="123"/>
      <point x="473" y="196"/>
      <point x="473" y="270" type="qcurve" smooth="yes"/>
      <point x="473" y="698" type="line"/>
      <point x="621" y="698" type="line"/>
      <point x="621" y="286" type="line" smooth="yes"/>
      <point x="621" y="128"/>
      <point x="559" y="60" type="qcurve"/>
      <point x="497" y="-12"/>
    </contour>
    <contour>
      <point x="423" y="762" type="qcurve" smooth="yes"/>
      <point x="400" y="762"/>
      <point x="382" y="768" type="qcurve"/>
      <point x="340" y="784" type="line"/>
      <point x="321" y="793"/>
      <point x="287" y="804"/>
      <point x="268" y="804" type="qcurve" smooth="yes"/>
      <point x="251" y="804"/>
      <point x="224" y="792"/>
      <point x="209" y="779" type="qcurve"/>
      <point x="157" y="847" type="line"/>
      <point x="198" y="911"/>
      <point x="271" y="911" type="qcurve" smooth="yes"/>
      <point x="294" y="911"/>
      <point x="312" y="905" type="qcurve"/>
      <point x="354" y="889" type="line"/>
      <point x="373" y="880"/>
      <point x="407" y="869"/>
      <point x="426" y="869" type="qcurve" smooth="yes"/>
      <point x="443" y="869"/>
      <point x="470" y="881"/>
      <point x="485" y="894" type="qcurve"/>
      <point x="537" y="826" type="line"/>
      <point x="496" y="762"/>
    </contour>
  </outline>
</glyph>
<glyph name="Umacron" format="2">
  <advance width="694"/>
  <unicode hex="016A"/>
  <outline>
    <contour>
      <point x="194" y="785" type="line"/>
      <point x="194" y="888" type="line"/>
      <point x="500" y="888" type="line"/>
      <point x="500" y="785" type="line"/>
    </contour>
    <contour>
      <point x="347" y="-12" type="qcurve" smooth="yes"/>
      <point x="197" y="-12"/>
      <point x="135" y="60" type="qcurve"/>
      <point x="73" y="128"/>
      <point x="73" y="286" type="qcurve" smooth="yes"/>
      <point x="73" y="698" type="line"/>
      <point x="221" y="698" type="line"/>
      <point x="221" y="270" type="line" smooth="yes"/>
      <point x="221" y="196"/>
      <point x="279" y="123"/>
      <point x="347" y="123" type="qcurve" smooth="yes"/>
      <point x="415" y="123"/>
      <point x="473" y="196"/>
      <point x="473" y="270" type="qcurve" smooth="yes"/>
      <point x="473" y="698" type="line"/>
      <point x="621" y="698" type="line"/>
      <point x="621" y="286" type="line" smooth="yes"/>
      <point x="621" y="128"/>
      <point x="559" y="60" type="qcurve"/>
      <point x="497" y="-12"/>
    </contour>
  </outline>
</glyph>
<glyph name="uring" format="2">
  <advance width="596"/>
  <unicode hex="016F"/>
  <outline>
    <contour>
      <point x="296" y="558" type="qcurve" smooth="yes"/>
      <point x="235" y="558"/>
      <point x="148" y="640"/>
      <point x="148" y="701" type="qcurve" smooth="yes"/>
      <point x="148" y="763"/>
      <point x="235" y="844"/>
      <point x="296" y="844" type="qcurve" smooth="yes"/>
      <point x="358" y="844"/>
      <point x="444" y="763"/>
      <point x="444" y="701" type="qcurve" smooth="yes"/>
      <point x="444" y="640"/>
      <point x="358" y="558"/>
    </contour>
    <contour>
      <point x="296" y="633" type="qcurve"/>
      <point x="347" y="636"/>
      <point x="347" y="684" type="qcurve" smooth="yes"/>
      <point x="347" y="718" type="line"/>
      <point x="346" y="769"/>
      <point x="296" y="769" type="qcurve"/>
      <point x="245" y="766"/>
      <point x="245" y="718" type="qcurve" smooth="yes"/>
      <point x="245" y="684" type="line"/>
      <point x="247" y="633"/>
    </contour>
    <contour>
      <point x="227" y="-12" type="qcurve" smooth="yes"/>
      <point x="146" y="-12"/>
      <point x="63" y="95"/>
      <point x="63" y="195" type="qcurve" smooth="yes"/>
      <point x="63" y="525" type="line"/>
      <point x="211" y="525" type="line"/>
      <point x="211" y="208" type="line" smooth="yes"/>
      <point x="211" y="160"/>
      <point x="245" y="108"/>
      <point x="286" y="108" type="qcurve" smooth="yes"/>
      <point x="321" y="108"/>
      <point x="379" y="147"/>
      <point x="379" y="184" type="qcurve" smooth="yes"/>
      <point x="379" y="525" type="line"/>
      <point x="527" y="525" type="line"/>
      <point x="527" y="0" type="line"/>
      <point x="379" y="0" type="line"/>
      <point x="379" y="88" type="line"/>
      <point x="374" y="88" type="line"/>
      <point x="361" y="47"/>
      <point x="292" y="-12"/>
    </contour>
  </outline>
</glyph>
<glyph name="Wcircumflex" format="2">
  <advance width="973"/>
  <unicode hex="0174"/>
  <outline>
    <contour>
      <point x="487" y="854" type="line"/>
      <point x="366" y="739" type="line"/>
      <point x="293" y="797" type="line"/>
      <point x="425" y="956" type="line"/>
      <point x="549" y="956" type="line"/>
      <point x="681" y="797" type="line"/>
      <point x="608" y="739" type="line"/>
    </contour>
    <contour>
      <point x="609" y="0" type="line"/>
      <point x="521" y="378"/>
      <point x="487" y="531" type="qcurve"/>
      <point x="484" y="531" type="line"/>
      <point x="423" y="265"/>
      <point x="361" y="0" type="qcurve"/>
      <point x="187" y="0" type="line"/>
      <point x="29" y="698" type="line"/>
      <point x="179" y="698" type="line"/>
      <point x="231" y="434"/>
      <point x="282" y="169" type="qcurve"/>
      <point x="285" y="169" type="line"/>
      <point x="406" y="698" type="line"/>
      <point x="572" y="698" type="line"/>
      <point x="634" y="434"/>
      <point x="693" y="169" type="qcurve"/>
      <point x="696" y="169" type="line"/>
      <point x="747" y="434"/>
      <point x="800" y="698" type="qcurve"/>
      <point x="944" y="698" type="line"/>
      <point x="782" y="0" type="line"/>
    </contour>
  </outline>
</glyph>
<glyph name="Zdot" format="2">
  <advance width="607"/>
  <unicode hex="017B"/>
  <outline>
    <contour>
      <point x="303" y="752" type="qcurve" smooth="yes"/>
      <point x="214" y="752"/>
      <point x="214" y="822" type="qcurve" smooth="yes"/>
      <point x="214" y="851" type="line" smooth="yes"/>
      <point x="214" y="921"/>
      <point x="303" y="921" type="qcurve" smooth="yes"/>
      <point x="392" y="921"/>
      <point x="392" y="851" type="qcurve" smooth="yes"/>
      <point x="392" y="822" type="line" smooth="yes"/>
      <point x="392" y="752"/>
    </contour>
    <contour>
      <point x="39" y="0" type="line"/>
      <point x="39" y="135" type="line"/>
      <point x="384" y="564" type="line"/>
      <point x="56" y="564" type="line"/>
      <point x="56" y="698" type="line"/>
      <point x="560" y="698" type="line"/>
      <point x="560" y="563" type="line"/>
      <point x="214" y="134" type="line"/>
      <point x="568" y="134" type="line"/>
      <point x="568" y="0" type="line"/>
    </contour>
  </outline>
</glyph>
<glyph name="zdot" format="2">
  <advance width="518"/>
  <unicode hex="017C"/>
  <outline>
    <contour>
      <point x="260" y="591" type="qcurve" smooth="yes"/>
      <point x="171" y="591"/>
      <point x="171" y="661" type="qcurve" smooth="yes"/>
      <point x="171" y="690" type="line" smooth="yes"/>
      <point x="171" y="760"/>
      <point x="260" y="760" type="qcurve" smooth="yes"/>
      <point x="349" y="760"/>
      <point x="349" y="690" type="qcurve" smooth="yes"/>
      <point x="349" y="661" type="line" smooth="yes"/>
      <point x="349" y="591"/>
    </contour>
    <contour>
      <point x="39" y="0" type="line"/>
      <point x="39" y="117" type="line"/>
      <point x="300" y="410" type="line"/>
      <point x="48" y="410" type="line"/>
      <point x="48" y="525" type="line"/>
      <point x="472" y="525" type="line"/>
      <point x="472" y="409" type="line"/>
      <point x="210" y="115" type="line"/>
      <point x="479" y="115" type="line"/>
      <point x="479" y="0" type="line"/>
    </contour>
  </outline>
</glyph>
<glyph name="Zcaron" format="2">
  <advance width="607"/>
  <unicode hex="017D"/>
  <outline>
    <contour>
      <point x="39" y="0" type="line"/>
      <point x="39" y="135" type="line"/>
      <point x="384" y="564" type="line"/>
      <point x="56" y="564" type="line"/>
      <point x="56" y="698" type="line"/>
      <point x="560" y="698" type="line"/>
      <point x="560" y="563" type="line"/>
      <point x="214" y="134" type="line"/>
      <point x="568" y="134" type="line"/>
      <point x="568" y="0" type="line"/>
    </contour>
    <contour>
      <point x="241" y="748" type="line"/>
      <point x="109" y="907" type="line"/>
      <point x="182" y="965" type="line"/>
      <point x="303" y="850" type="line"/>
      <point x="424" y="965" type="line"/>
      <point x="497" y="907" type="line"/>
      <point x="365" y="748" type="line"/>
    </contour>
  </outline>
</glyph>
<glyph name="zcaron" format="2">
  <advance width="518"/>
  <unicode hex="017E"/>
  <outline>
    <contour>
      <point x="39" y="0" type="line"/>
      <point x="39" y="117" type="line"/>
      <point x="300" y="410" type="line"/>
      <point x="48" y="410" type="line"/>
      <point x="48" y="525" type="line"/>
      <point x="472" y="525" type="line"/>
      <point x="472" y="409" type="line"/>
      <point x="210" y="115" type="line"/>
      <point x="479" y="115" type="line"/>
      <point x="479" y="0" type="line"/>
    </contour>
    <contour>
      <point x="198" y="587" type="line"/>
      <point x="66" y="746" type="line"/>
      <point x="139" y="804" type="line"/>
      <point x="260" y="689" type="line"/>
      <point x="381" y="804" type="line"/>
      <point x="454" y="746" type="line"/>
      <point x="322" y="587" type="line"/>
    </contour>
  </outline>
</glyph>
<glyph name="aringacute" format="2">
  <advance width="553"/>
  <unicode hex="01FB"/>
  <outline>
    <contour>
      <point x="252" y="91" type="qcurve" smooth="yes"/>
      <point x="289" y="91"/>
      <point x="342" y="123"/>
      <point x="342" y="159" type="qcurve" smooth="yes"/>
      <point x="342" y="221" type="line"/>
      <point x="270" y="221" type="line" smooth="yes"/>
      <point x="183" y="221"/>
      <point x="183" y="162" type="qcurve" smooth="yes"/>
      <point x="183" y="147" type="line" smooth="yes"/>
      <point x="183" y="91"/>
    </contour>
    <contour>
      <point x="269" y="634" type="qcurve" smooth="yes"/>
      <point x="324" y="634"/>
      <point x="324" y="679" type="qcurve" smooth="yes"/>
      <point x="324" y="691" type="line" smooth="yes"/>
      <point x="324" y="734"/>
      <point x="269" y="734" type="qcurve" smooth="yes"/>
      <point x="214" y="734"/>
      <point x="214" y="689" type="qcurve" smooth="yes"/>
      <point x="214" y="679" type="line" smooth="yes"/>
      <point x="214" y="634"/>
    </contour>
    <contour>
      <point x="197" y="-12" type="qcurve" smooth="yes"/>
      <point x="118" y="-12"/>
      <point x="34" y="72"/>
      <point x="34" y="141" type="qcurve" smooth="yes"/>
      <point x="34" y="224"/>
      <point x="155" y="305"/>
      <point x="259" y="305" type="qcurve" smooth="yes"/>
      <point x="342" y="305" type="line"/>
      <point x="342" y="338" type="line" smooth="yes"/>
      <point x="342" y="421"/>
      <point x="255" y="421" type="qcurve" smooth="yes"/>
      <point x="211" y="421"/>
      <point x="159" y="384"/>
      <point x="142" y="359" type="qcurve"/>
      <point x="54" y="437" type="line"/>
      <point x="85" y="485"/>
      <point x="183" y="537"/>
      <point x="266" y="537" type="qcurve" smooth="yes"/>
      <point x="490" y="537"/>
      <point x="490" y="345" type="qcurve" smooth="yes"/>
      <point x="490" y="0" type="line"/>
      <point x="357" y="0" type="line"/>
      <point x="357" y="92" type="line"/>
      <point x="351" y="92" type="line"/>
      <point x="338" y="41"/>
      <point x="257" y="-12"/>
    </contour>
    <contour>
      <point x="262" y="815" type="line"/>
      <point x="209" y="872" type="line"/>
      <point x="338" y="989" type="line"/>
      <point x="412" y="908" type="line"/>
    </contour>
    <contour>
      <point x="269" y="564" type="qcurve" smooth="yes"/>
      <point x="205" y="564"/>
      <point x="162" y="596" type="qcurve"/>
      <point x="117" y="626"/>
      <point x="117" y="684" type="qcurve" smooth="yes"/>
      <point x="117" y="740"/>
      <point x="205" y="804"/>
      <point x="269" y="804" type="qcurve" smooth="yes"/>
      <point x="334" y="804"/>
      <point x="421" y="740"/>
      <point x="421" y="684" type="qcurve" smooth="yes"/>
      <point x="421" y="626"/>
      <point x="377" y="596" type="qcurve"/>
      <point x="334" y="564"/>
    </contour>
  </outline>
</glyph>
<glyph name="Oslashacute" format="2">
  <advance width="714"/>
  <unicode hex="01FE"/>
  <outline>
    <contour>
      <point x="357" y="112" type="qcurve"/>
      <point x="510" y="119"/>
      <point x="510" y="294" type="qcurve" smooth="yes"/>
      <point x="510" y="404" type="line" smooth="yes"/>
      <point x="510" y="451"/>
      <point x="498" y="487" type="qcurve"/>
      <point x="275" y="133" type="line"/>
      <point x="308" y="112"/>
    </contour>
    <contour>
      <point x="439" y="565" type="line"/>
      <point x="407" y="586"/>
      <point x="357" y="586" type="qcurve"/>
      <point x="204" y="580"/>
      <point x="204" y="404" type="qcurve" smooth="yes"/>
      <point x="204" y="294" type="line" smooth="yes"/>
      <point x="204" y="248"/>
      <point x="216" y="211" type="qcurve"/>
    </contour>
    <contour>
      <point x="62" y="3" type="line"/>
      <point x="123" y="93" type="line"/>
      <point x="50" y="183"/>
      <point x="50" y="349" type="qcurve" smooth="yes"/>
      <point x="50" y="523"/>
      <point x="134" y="619" type="qcurve"/>
      <point x="219" y="710"/>
      <point x="357" y="710" type="qcurve" smooth="yes"/>
      <point x="441" y="710"/>
      <point x="507" y="676" type="qcurve"/>
      <point x="560" y="754" type="line"/>
      <point x="652" y="695" type="line"/>
      <point x="591" y="605" type="line"/>
      <point x="664" y="516"/>
      <point x="664" y="349" type="qcurve" smooth="yes"/>
      <point x="664" y="174"/>
      <point x="580" y="80" type="qcurve" smooth="yes"/>
      <point x="495" y="-12"/>
      <point x="357" y="-12" type="qcurve" smooth="yes"/>
      <point x="273" y="-12"/>
      <point x="207" y="22" type="qcurve"/>
      <point x="154" y="-56" type="line"/>
    </contour>
    <contour>
      <point x="285" y="783" type="line"/>
      <point x="384" y="977" type="line"/>
      <point x="507" y="916" type="line"/>
      <point x="373" y="740" type="line"/>
    </contour>
  </outline>
</glyph>
<glyph name="u0237" format="2">
  <advance width="286"/>
  <unicode hex="0237"/>
  <outline>
    <contour>
      <point x="-9" y="-200" type="line"/>
      <point x="-9" y="-85" type="line"/>
      <point x="69" y="-85" type="line"/>
      <point x="69" y="525" type="line"/>
      <point x="217" y="525" type="line"/>
      <point x="217" y="-56" type="line" smooth="yes"/>
      <point x="217" y="-126"/>
      <point x="147" y="-200"/>
      <point x="69" y="-200" type="qcurve" smooth="yes"/>
    </contour>
  </outline>
</glyph>
<glyph name="u02BB" format="2">
  <advance width="600"/>
  <unicode hex="02BB"/>
  <outline>
    <contour>
      <point x="301" y="576" type="qcurve"/>
      <point x="231" y="578"/>
      <point x="231" y="638" type="qcurve" smooth="yes"/>
      <point x="231" y="652" type="line" smooth="yes"/>
      <point x="231" y="698"/>
      <point x="268" y="783"/>
      <point x="298" y="809" type="qcurve"/>
      <point x="383" y="809" type="line"/>
      <point x="334" y="768"/>
      <point x="321" y="710" type="qcurve"/>
      <point x="371" y="705"/>
      <point x="371" y="649" type="qcurve" smooth="yes"/>
      <point x="371" y="638" type="line"/>
      <point x="367" y="576"/>
    </contour>
  </outline>
</glyph>
<glyph name="hungarumlaut" format="2">
  <advance width="600"/>
  <unicode hex="02DD"/>
  <outline>
    <contour>
      <point x="129" y="618" type="line"/>
      <point x="228" y="812" type="line"/>
      <point x="344" y="755" type="line"/>
      <point x="210" y="579" type="line"/>
    </contour>
    <contour>
      <point x="334" y="618" type="line"/>
      <point x="433" y="812" type="line"/>
      <point x="549" y="755" type="line"/>
      <point x="415" y="579" type="line"/>
    </contour>
  </outline>
</glyph>
<glyph name="circumflexcmb" format="2">
  <unicode hex="0302"/>
  <outline>
    <contour>
      <point x="1" y="693" type="line"/>
      <point x="-120" y="578" type="line"/>
      <point x="-193" y="636" type="line"/>
      <point x="-61" y="795" type="line"/>
      <point x="63" y="795" type="line"/>
      <point x="195" y="636" type="line"/>
      <point x="122" y="578" type="line"/>
    </contour>
  </outline>
</glyph>
<glyph name="tildecomb" format="2">
  <unicode hex="0303"/>
  <outline>
    <contour>
      <point x="77" y="601" type="qcurve" smooth="yes"/>
      <point x="54" y="601"/>
      <point x="36" y="607" type="qcurve"/>
      <point x="-6" y="623" type="line"/>
      <point x="-25" y="632"/>
      <point x="-59" y="643"/>
      <point x="-78" y="643" type="qcurve" smooth="yes"/>
      <point x="-95" y="643"/>
      <point x="-122" y="631"/>
      <point x="-137" y="618" type="qcurve"/>
      <point x="-189" y="686" type="line"/>
      <point x="-148" y="750"/>
      <point x="-75" y="750" type="qcurve" smooth="yes"/>
      <point x="-52" y="750"/>
      <point x="-34" y="744" type="qcurve"/>
      <point x="8" y="728" type="line"/>
      <point x="27" y="719"/>
      <point x="61" y="708"/>
      <point x="80" y="708" type="qcurve" smooth="yes"/>
      <point x="97" y="708"/>
      <point x="124" y="720"/>
      <point x="139" y="733" type="qcurve"/>
      <point x="191" y="665" type="line"/>
      <point x="150" y="601"/>
    </contour>
  </outline>
</glyph>
<glyph name="macroncomb" format="2">
  <unicode hex="0304"/>
  <outline>
    <contour>
      <point x="-152" y="624" type="line"/>
      <point x="-152" y="727" type="line"/>
      <point x="154" y="727" type="line"/>
      <point x="154" y="624" type="line"/>
    </contour>
  </outline>
</glyph>
<glyph name="u0307" format="2">
  <advance width="0"/>
  <unicode hex="0307"/>
  <outline>
    <contour>
      <point x="1" y="591" type="qcurve" smooth="yes"/>
      <point x="-88" y="591"/>
      <point x="-88" y="661" type="qcurve" smooth="yes"/>
      <point x="-88" y="690" type="line" smooth="yes"/>
      <point x="-88" y="760"/>
      <point x="1" y="760" type="qcurve" smooth="yes"/>
      <point x="90" y="760"/>
      <point x="90" y="690" type="qcurve" smooth="yes"/>
      <point x="90" y="661" type="line" smooth="yes"/>
      <point x="90" y="591"/>
    </contour>
  </outline>
</glyph>
<glyph name="hookabovecomb" format="2">
  <unicode hex="0309"/>
  <outline>
    <contour>
      <point x="-39" y="604" type="line"/>
      <point x="2" y="696" type="line"/>
      <point x="-120" y="696" type="line"/>
      <point x="-120" y="802" type="line"/>
      <point x="23" y="802" type="line" smooth="yes"/>
      <point x="121" y="802"/>
      <point x="121" y="729" type="qcurve" smooth="yes"/>
      <point x="121" y="671"/>
      <point x="64" y="603" type="qcurve" smooth="yes"/>
      <point x="36" y="569" type="line"/>
    </contour>
  </outline>
</glyph>
<glyph name="caroncomb" format="2">
  <unicode hex="030C"/>
  <outline>
    <contour>
      <point x="-61" y="587" type="line"/>
      <point x="-193" y="746" type="line"/>
      <point x="-120" y="804" type="line"/>
      <point x="1" y="689" type="line"/>
      <point x="122" y="804" type="line"/>
      <point x="195" y="746" type="line"/>
      <point x="63" y="587" type="line"/>
    </contour>
  </outline>
</glyph>
<glyph name="u0312" format="2">
  <advance width="0"/>
  <unicode hex="0312"/>
  <outline>
    <contour>
      <point x="2" y="576" type="qcurve"/>
      <point x="-68" y="578"/>
      <point x="-68" y="638" type="qcurve" smooth="yes"/>
      <point x="-68" y="652" type="line" smooth="yes"/>
      <point x="-68" y="698"/>
      <point x="-31" y="783"/>
      <point x="-1" y="809" type="qcurve"/>
      <point x="84" y="809" type="line"/>
      <point x="35" y="768"/>
      <point x="22" y="710" type="qcurve"/>
      <point x="72" y="705"/>
      <point x="72" y="649" type="qcurve" smooth="yes"/>
      <point x="72" y="638" type="line"/>
      <point x="68" y="576"/>
    </contour>
  </outline>
</glyph>
<glyph name="commaaboverightcmb" format="2">
  <unicode hex="0315"/>
  <outline>
    <contour>
      <point x="1" y="525" type="line"/>
      <point x="7" y="740" type="line"/>
      <point x="164" y="740" type="line"/>
      <point x="98" y="525" type="line"/>
    </contour>
  </outline>
</glyph>
<glyph name="dotbelowcmb" format="2">
  <unicode hex="0323"/>
  <outline>
    <contour>
      <point x="0" y="-204" type="qcurve" smooth="yes"/>
      <point x="-81" y="-204"/>
      <point x="-81" y="-141" type="qcurve" smooth="yes"/>
      <point x="-81" y="-115" type="line" smooth="yes"/>
      <point x="-81" y="-52"/>
      <point x="0" y="-52" type="qcurve" smooth="yes"/>
      <point x="81" y="-52"/>
      <point x="81" y="-115" type="qcurve" smooth="yes"/>
      <point x="81" y="-141" type="line" smooth="yes"/>
      <point x="81" y="-204"/>
    </contour>
  </outline>
</glyph>
<glyph name="cedillacmb" format="2">
  <unicode hex="0327"/>
  <outline>
    <contour>
      <point x="15" y="-212" type="qcurve" smooth="yes"/>
      <point x="-75" y="-212"/>
      <point x="-109" y="-168" type="qcurve"/>
      <point x="-63" y="-112" type="line"/>
      <point x="-40" y="-141"/>
      <point x="3" y="-141" type="qcurve" smooth="yes"/>
      <point x="22" y="-141"/>
      <point x="47" y="-129"/>
      <point x="47" y="-116" type="qcurve" smooth="yes"/>
      <point x="47" y="-104"/>
      <point x="33" y="-92" type="qcurve"/>
      <point x="15" y="-80"/>
      <point x="-49" y="-74" type="qcurve"/>
      <point x="-27" y="30" type="line"/>
      <point x="40" y="30" type="line"/>
      <point x="22" y="-55" type="line"/>
      <point x="26" y="-59" type="line"/>
      <point x="50" y="-52"/>
      <point x="74" y="-52" type="qcurve" smooth="yes"/>
      <point x="104" y="-52"/>
      <point x="147" y="-84"/>
      <point x="147" y="-121" type="qcurve" smooth="yes"/>
      <point x="147" y="-168"/>
      <point x="107" y="-192" type="qcurve" smooth="yes"/>
      <point x="73" y="-212"/>
    </contour>
  </outline>
</glyph>
<glyph name="u037E" format="2">
  <advance width="330"/>
  <unicode hex="037E"/>
  <outline>
    <contour>
      <point x="165" y="169" type="qcurve" smooth="yes"/>
      <point x="210" y="169"/>
      <point x="253" y="124"/>
      <point x="253" y="89" type="qcurve" smooth="yes"/>
      <point x="253" y="69" type="line" smooth="yes"/>
      <point x="253" y="8"/>
      <point x="194" y="-110"/>
      <point x="146" y="-147" type="qcurve"/>
      <point x="46" y="-147" type="line"/>
      <point x="81" y="-114"/>
      <point x="131" y="-49"/>
      <point x="144" y="-9" type="qcurve"/>
      <point x="109" y="-3"/>
      <point x="77" y="40"/>
      <point x="77" y="69" type="qcurve" smooth="yes"/>
      <point x="77" y="89" type="line" smooth="yes"/>
      <point x="77" y="124"/>
      <point x="120" y="169"/>
    </contour>
    <contour>
      <point x="164" y="355" type="qcurve" smooth="yes"/>
      <point x="119" y="355"/>
      <point x="76" y="400"/>
      <point x="76" y="435" type="qcurve" smooth="yes"/>
      <point x="76" y="455" type="line" smooth="yes"/>
      <point x="76" y="490"/>
      <point x="119" y="535"/>
      <point x="164" y="535" type="qcurve" smooth="yes"/>
      <point x="209" y="535"/>
      <point x="252" y="490"/>
      <point x="252" y="455" type="qcurve" smooth="yes"/>
      <point x="252" y="435" type="line" smooth="yes"/>
      <point x="252" y="400"/>
      <point x="209" y="355"/>
    </contour>
  </outline>
</glyph>
<glyph name="dieresistonos" format="2">
  <advance width="600"/>
  <unicode hex="0385"/>
  <outline>
    <contour>
      <point x="477" y="605" type="qcurve" smooth="yes"/>
      <point x="413" y="605"/>
      <point x="413" y="663" type="qcurve" smooth="yes"/>
      <point x="413" y="687" type="line" smooth="yes"/>
      <point x="413" y="746"/>
      <point x="477" y="746" type="qcurve" smooth="yes"/>
      <point x="541" y="746"/>
      <point x="541" y="688" type="qcurve" smooth="yes"/>
      <point x="541" y="664" type="line" smooth="yes"/>
      <point x="541" y="605"/>
    </contour>
    <contour>
      <point x="338" y="579" type="line"/>
      <point x="275" y="590" type="line"/>
      <point x="310" y="816" type="line"/>
      <point x="411" y="799" type="line"/>
    </contour>
    <contour>
      <point x="183" y="605" type="qcurve" smooth="yes"/>
      <point x="119" y="605"/>
      <point x="119" y="663" type="qcurve" smooth="yes"/>
      <point x="119" y="687" type="line" smooth="yes"/>
      <point x="119" y="746"/>
      <point x="183" y="746" type="qcurve" smooth="yes"/>
      <point x="247" y="746"/>
      <point x="247" y="688" type="qcurve" smooth="yes"/>
      <point x="247" y="664" type="line" smooth="yes"/>
      <point x="247" y="605"/>
    </contour>
  </outline>
</glyph>
<glyph name="Alphatonos" format="2">
  <advance width="685"/>
  <unicode hex="0386"/>
  <outline>
    <contour>
      <point x="137" y="579" type="line"/>
      <point x="42" y="593" type="line"/>
      <point x="77" y="816" type="line"/>
      <point x="210" y="796" type="line"/>
    </contour>
    <contour>
      <point x="507" y="0" type="line"/>
      <point x="457" y="166" type="line"/>
      <point x="224" y="166" type="line"/>
      <point x="174" y="0" type="line"/>
      <point x="20" y="0" type="line"/>
      <point x="250" y="698" type="line"/>
      <point x="438" y="698" type="line"/>
      <point x="665" y="0" type="line"/>
    </contour>
    <contour>
      <point x="342" y="560" type="line"/>
      <point x="337" y="560" type="line"/>
      <point x="260" y="295" type="line"/>
      <point x="420" y="295" type="line"/>
    </contour>
  </outline>
</glyph>
<glyph name="Iotatonos" format="2">
  <advance width="506"/>
  <unicode hex="038A"/>
  <outline>
    <contour>
      <point x="57" y="579" type="line"/>
      <point x="-38" y="593" type="line"/>
      <point x="-3" y="816" type="line"/>
      <point x="130" y="796" type="line"/>
    </contour>
    <contour>
      <point x="329" y="0" type="line"/>
      <point x="177" y="0" type="line"/>
      <point x="177" y="698" type="line"/>
      <point x="329" y="698" type="line"/>
    </contour>
  </outline>
</glyph>
<glyph name="Upsilontonos" format="2">
  <advance width="793"/>
  <unicode hex="038E"/>
  <outline>
    <contour>
      <point x="80" y="579" type="line"/>
      <point x="-15" y="593" type="line"/>
      <point x="20" y="816" type="line"/>
      <point x="153" y="796" type="line"/>
    </contour>
    <contour>
      <point x="392" y="0" type="line"/>
      <point x="392" y="273" type="line"/>
      <point x="153" y="698" type="line"/>
      <point x="323" y="698" type="line"/>
      <point x="473" y="420" type="line"/>
      <point x="475" y="420" type="line"/>
      <point x="619" y="698" type="line"/>
      <point x="784" y="698" type="line"/>
      <point x="545" y="274" type="line"/>
      <point x="545" y="0" type="line"/>
    </contour>
  </outline>
</glyph>
<glyph name="iotadieresistonos" format="2">
  <advance width="329"/>
  <unicode hex="0390"/>
  <outline>
    <contour>
      <point x="313" y="0" type="line"/>
      <point x="225" y="0" type="line" smooth="yes"/>
      <point x="148" y="0"/>
      <point x="69" y="78"/>
      <point x="69" y="153" type="qcurve" smooth="yes"/>
      <point x="69" y="525" type="line"/>
      <point x="217" y="525" type="line"/>
      <point x="217" y="115" type="line"/>
      <point x="313" y="115" type="line"/>
    </contour>
    <contour>
      <point x="164" y="579" type="line"/>
      <point x="101" y="590" type="line"/>
      <point x="136" y="816" type="line"/>
      <point x="237" y="799" type="line"/>
    </contour>
    <contour>
      <point x="9" y="605" type="qcurve" smooth="yes"/>
      <point x="-55" y="605"/>
      <point x="-55" y="663" type="qcurve" smooth="yes"/>
      <point x="-55" y="687" type="line" smooth="yes"/>
      <point x="-55" y="746"/>
      <point x="9" y="746" type="qcurve" smooth="yes"/>
      <point x="73" y="746"/>
      <point x="73" y="688" type="qcurve" smooth="yes"/>
      <point x="73" y="664" type="line" smooth="yes"/>
      <point x="73" y="605"/>
    </contour>
    <contour>
      <point x="303" y="605" type="qcurve" smooth="yes"/>
      <point x="239" y="605"/>
      <point x="239" y="663" type="qcurve" smooth="yes"/>
      <point x="239" y="687" type="line" smooth="yes"/>
      <point x="239" y="746"/>
      <point x="303" y="746" type="qcurve" smooth="yes"/>
      <point x="367" y="746"/>
      <point x="367" y="688" type="qcurve" smooth="yes"/>
      <point x="367" y="664" type="line" smooth="yes"/>
      <point x="367" y="605"/>
    </contour>
  </outline>
</glyph>
<glyph name="Beta" format="2">
  <advance width="667"/>
  <unicode hex="0392"/>
  <outline>
    <contour>
      <point x="229" y="128" type="line"/>
      <point x="404" y="128" type="line" smooth="yes"/>
      <point x="434" y="128"/>
      <point x="469" y="161"/>
      <point x="469" y="191" type="qcurve" smooth="yes"/>
      <point x="469" y="225" type="line" smooth="yes"/>
      <point x="469" y="255"/>
      <point x="434" y="288"/>
      <point x="404" y="288" type="qcurve" smooth="yes"/>
      <point x="229" y="288" type="line"/>
    </contour>
    <contour>
      <point x="229" y="412" type="line"/>
      <point x="380" y="412" type="line" smooth="yes"/>
      <point x="410" y="412"/>
      <point x="444" y="446"/>
      <point x="444" y="476" type="qcurve" smooth="yes"/>
      <point x="444" y="506" type="line" smooth="yes"/>
      <point x="444" y="536"/>
      <point x="410" y="570"/>
      <point x="380" y="570" type="qcurve" smooth="yes"/>
      <point x="229" y="570" type="line"/>
    </contour>
    <contour>
      <point x="77" y="698" type="line"/>
      <point x="416" y="698" type="line" smooth="yes"/>
      <point x="503" y="698"/>
      <point x="600" y="600"/>
      <point x="600" y="519" type="qcurve" smooth="yes"/>
      <point x="600" y="479"/>
      <point x="579" y="423"/>
      <point x="544" y="387"/>
      <point x="497" y="370"/>
      <point x="470" y="369" type="qcurve"/>
      <point x="470" y="363" type="line"/>
      <point x="495" y="363"/>
      <point x="550" y="345"/>
      <point x="596" y="306"/>
      <point x="627" y="244"/>
      <point x="627" y="199" type="qcurve" smooth="yes"/>
      <point x="627" y="158"/>
      <point x="600" y="85"/>
      <point x="552" y="31"/>
      <point x="486" y="0"/>
      <point x="447" y="0" type="qcurve" smooth="yes"/>
      <point x="77" y="0" type="line"/>
    </contour>
  </outline>
</glyph>
<glyph name="Omicron" format="2">
  <advance width="714"/>
  <unicode hex="039F"/>
  <outline>
    <contour>
      <point x="357" y="123" type="qcurve" smooth="yes"/>
      <point x="426" y="123"/>
      <point x="503" y="213"/>
      <point x="503" y="297" type="qcurve" smooth="yes"/>
      <point x="503" y="401" type="line" smooth="yes"/>
      <point x="503" y="485"/>
      <point x="426" y="575"/>
      <point x="357" y="575" type="qcurve" smooth="yes"/>
      <point x="288" y="575"/>
      <point x="211" y="485"/>
      <point x="211" y="401" type="qcurve" smooth="yes"/>
      <point x="211" y="297" type="line" smooth="yes"/>
      <point x="211" y="213"/>
      <point x="288" y="123"/>
    </contour>
    <contour>
      <point x="357" y="-12" type="qcurve" smooth="yes"/>
      <point x="288" y="-12"/>
      <point x="174" y="34"/>
      <point x="94" y="125"/>
      <point x="50" y="260"/>
      <point x="50" y="349" type="qcurve" smooth="yes"/>
      <point x="50" y="438"/>
      <point x="94" y="573"/>
      <point x="174" y="664"/>
      <point x="288" y="710"/>
      <point x="357" y="710" type="qcurve" smooth="yes"/>
      <point x="426" y="710"/>
      <point x="540" y="664"/>
      <point x="620" y="573"/>
      <point x="664" y="438"/>
      <point x="664" y="349" type="qcurve" smooth="yes"/>
      <point x="664" y="260"/>
      <point x="620" y="125"/>
      <point x="540" y="34"/>
      <point x="426" y="-12"/>
    </contour>
  </outline>
</glyph>
<glyph name="Rho" format="2">
  <advance width="656"/>
  <unicode hex="03A1"/>
  <outline>
    <contour>
      <point x="229" y="384" type="line"/>
      <point x="389" y="384" type="line" smooth="yes"/>
      <point x="423" y="384"/>
      <point x="462" y="419"/>
      <point x="462" y="453" type="qcurve" smooth="yes"/>
      <point x="462" y="497" type="line" smooth="yes"/>
      <point x="462" y="531"/>
      <point x="423" y="566"/>
      <point x="389" y="566" type="qcurve" smooth="yes"/>
      <point x="229" y="566" type="line"/>
    </contour>
    <contour>
      <point x="77" y="0" type="line"/>
      <point x="77" y="698" type="line"/>
      <point x="407" y="698" type="line" smooth="yes"/>
      <point x="456" y="698"/>
      <point x="534" y="665"/>
      <point x="589" y="607"/>
      <point x="619" y="524"/>
      <point x="619" y="475" type="qcurve" smooth="yes"/>
      <point x="619" y="425"/>
      <point x="589" y="343"/>
      <point x="534" y="285"/>
      <point x="456" y="252"/>
      <point x="407" y="252" type="qcurve" smooth="yes"/>
      <point x="229" y="252" type="line"/>
      <point x="229" y="0" type="line"/>
    </contour>
  </outline>
</glyph>
<glyph name="Tau" format="2">
  <advance width="584"/>
  <unicode hex="03A4"/>
  <outline>
    <contour>
      <point x="368" y="563" type="line"/>
      <point x="368" y="0" type="line"/>
      <point x="216" y="0" type="line"/>
      <point x="216" y="563" type="line"/>
      <point x="27" y="563" type="line"/>
      <point x="27" y="698" type="line"/>
      <point x="557" y="698" type="line"/>
      <point x="557" y="563" type="line"/>
    </contour>
  </outline>
</glyph>
<glyph name="Phi" format="2">
  <advance width="848"/>
  <unicode hex="03A6"/>
  <outline>
    <contour>
      <point x="508" y="157" type="line" smooth="yes"/>
      <point x="536" y="157"/>
      <point x="588" y="180"/>
      <point x="628" y="222"/>
      <point x="652" y="284"/>
      <point x="652" y="323" type="qcurve" smooth="yes"/>
      <point x="652" y="385" type="line" smooth="yes"/>
      <point x="652" y="424"/>
      <point x="628" y="486"/>
      <point x="588" y="528"/>
      <point x="536" y="551"/>
      <point x="508" y="551" type="qcurve" smooth="yes"/>
      <point x="498" y="551" type="line"/>
      <point x="498" y="157" type="line"/>
    </contour>
    <contour>
      <point x="350" y="551" type="line"/>
      <point x="340" y="551" type="line" smooth="yes"/>
      <point x="312" y="551"/>
      <point x="260" y="528"/>
      <point x="220" y="486"/>
      <point x="196" y="424"/>
      <point x="196" y="385" type="qcurve" smooth="yes"/>
      <point x="196" y="323" type="line" smooth="yes"/>
      <point x="196" y="284"/>
      <point x="220" y="222"/>
      <point x="260" y="180"/>
      <point x="312" y="157"/>
      <point x="340" y="157" type="qcurve" smooth="yes"/>
      <point x="350" y="157" type="line"/>
    </contour>
    <contour>
      <point x="347" y="32" type="line"/>
      <point x="337" y="32" type="line" smooth="yes"/>
      <point x="269" y="32"/>
      <point x="159" y="77"/>
      <point x="82" y="161"/>
      <point x="40" y="279"/>
      <point x="40" y="353" type="qcurve" smooth="yes"/>
      <point x="40" y="427"/>
      <point x="82" y="547"/>
      <point x="159" y="631"/>
      <point x="269" y="676"/>
      <point x="337" y="676" type="qcurve" smooth="yes"/>
      <point x="347" y="676" type="line"/>
      <point x="347" y="740" type="line"/>
      <point x="501" y="740" type="line"/>
      <point x="501" y="676" type="line"/>
      <point x="511" y="676" type="line" smooth="yes"/>
      <point x="579" y="676"/>
      <point x="689" y="631"/>
      <point x="766" y="547"/>
      <point x="808" y="428"/>
      <point x="808" y="355" type="qcurve" smooth="yes"/>
      <point x="808" y="281"/>
      <point x="766" y="161"/>
      <point x="689" y="77"/>
      <point x="579" y="32"/>
      <point x="511" y="32" type="qcurve" smooth="yes"/>
      <point x="501" y="32" type="line"/>
      <point x="501" y="-44" type="line"/>
      <point x="347" y="-44" type="line"/>
    </contour>
  </outline>
</glyph>
<glyph name="upsilondieresistonos" format="2">
  <advance width="582"/>
  <unicode hex="03B0"/>
  <outline>
    <contour>
      <point x="312" y="579" type="line"/>
      <point x="249" y="590" type="line"/>
      <point x="284" y="816" type="line"/>
      <point x="385" y="799" type="line"/>
    </contour>
    <contour>
      <point x="157" y="605" type="qcurve" smooth="yes"/>
      <point x="93" y="605"/>
      <point x="93" y="663" type="qcurve" smooth="yes"/>
      <point x="93" y="687" type="line" smooth="yes"/>
      <point x="93" y="746"/>
      <point x="157" y="746" type="qcurve" smooth="yes"/>
      <point x="221" y="746"/>
      <point x="221" y="688" type="qcurve" smooth="yes"/>
      <point x="221" y="664" type="line" smooth="yes"/>
      <point x="221" y="605"/>
    </contour>
    <contour>
      <point x="451" y="605" type="qcurve" smooth="yes"/>
      <point x="387" y="605"/>
      <point x="387" y="663" type="qcurve" smooth="yes"/>
      <point x="387" y="687" type="line" smooth="yes"/>
      <point x="387" y="746"/>
      <point x="451" y="746" type="qcurve" smooth="yes"/>
      <point x="515" y="746"/>
      <point x="515" y="688" type="qcurve" smooth="yes"/>
      <point x="515" y="664" type="line" smooth="yes"/>
      <point x="515" y="605"/>
    </contour>
    <contour>
      <point x="207" y="210" type="line" smooth="yes"/>
      <point x="207" y="157"/>
      <point x="247" y="105"/>
      <point x="291" y="105" type="qcurve" smooth="yes"/>
      <point x="335" y="105"/>
      <point x="375" y="157"/>
      <point x="375" y="210" type="qcurve" smooth="yes"/>
      <point x="375" y="525" type="line"/>
      <point x="523" y="525" type="line"/>
      <point x="523" y="239" type="line" smooth="yes"/>
      <point x="523" y="-12"/>
      <point x="291" y="-12" type="qcurve" smooth="yes"/>
      <point x="59" y="-12"/>
      <point x="59" y="239" type="qcurve" smooth="yes"/>
      <point x="59" y="525" type="line"/>
      <point x="207" y="525" type="line"/>
    </contour>
  </outline>
</glyph>
<glyph name="alpha" format="2">
  <advance width="667"/>
  <unicode hex="03B1"/>
  <outline>
    <contour>
      <point x="264" y="108" type="qcurve" smooth="yes"/>
      <point x="288" y="108"/>
      <point x="329" y="151"/>
      <point x="346" y="199" type="qcurve" smooth="yes"/>
      <point x="368" y="263" type="line"/>
      <point x="346" y="326" type="line" smooth="yes"/>
      <point x="329" y="374"/>
      <point x="288" y="417"/>
      <point x="264" y="417" type="qcurve" smooth="yes"/>
      <point x="231" y="417"/>
      <point x="197" y="362"/>
      <point x="197" y="302" type="qcurve" smooth="yes"/>
      <point x="197" y="223" type="line" smooth="yes"/>
      <point x="197" y="163"/>
      <point x="231" y="108"/>
    </contour>
    <contour>
      <point x="633" y="0" type="line"/>
      <point x="574" y="0" type="line" smooth="yes"/>
      <point x="515" y="0"/>
      <point x="458" y="45"/>
      <point x="446" y="104" type="qcurve" smooth="yes"/>
      <point x="437" y="148" type="line"/>
      <point x="434" y="148" type="line"/>
      <point x="410" y="68"/>
      <point x="325" y="-12"/>
      <point x="251" y="-12" type="qcurve" smooth="yes"/>
      <point x="154" y="-12"/>
      <point x="43" y="128"/>
      <point x="43" y="262" type="qcurve" smooth="yes"/>
      <point x="43" y="396"/>
      <point x="154" y="537"/>
      <point x="251" y="537" type="qcurve" smooth="yes"/>
      <point x="325" y="537"/>
      <point x="416" y="460"/>
      <point x="440" y="377" type="qcurve"/>
      <point x="444" y="377" type="line"/>
      <point x="462" y="448" type="line"/>
      <point x="485" y="525" type="line"/>
      <point x="633" y="525" type="line"/>
      <point x="517" y="266" type="line"/>
      <point x="577" y="115" type="line"/>
      <point x="633" y="115" type="line"/>
    </contour>
  </outline>
</glyph>
<glyph name="beta" format="2">
  <advance width="609"/>
  <unicode hex="03B2"/>
  <outline>
    <contour>
      <point x="69" y="478" type="line" smooth="yes"/>
      <point x="69" y="612"/>
      <point x="184" y="752"/>
      <point x="301" y="752" type="qcurve" smooth="yes"/>
      <point x="362" y="752"/>
      <point x="451" y="722"/>
      <point x="507" y="669"/>
      <point x="534" y="599"/>
      <point x="534" y="560" type="qcurve" smooth="yes"/>
      <point x="534" y="492"/>
      <point x="473" y="407"/>
      <point x="416" y="389" type="qcurve"/>
      <point x="416" y="384" type="line"/>
      <point x="487" y="375"/>
      <point x="565" y="290"/>
      <point x="565" y="217" type="qcurve" smooth="yes"/>
      <point x="565" y="167"/>
      <point x="539" y="83"/>
      <point x="489" y="22"/>
      <point x="414" y="-12"/>
      <point x="365" y="-12" type="qcurve" smooth="yes"/>
      <point x="311" y="-12"/>
      <point x="233" y="45"/>
      <point x="222" y="88" type="qcurve"/>
      <point x="217" y="88" type="line"/>
      <point x="217" y="-200" type="line"/>
      <point x="69" y="-200" type="line"/>
    </contour>
    <contour>
      <point x="277" y="435" type="line"/>
      <point x="310" y="435" type="line" smooth="yes"/>
      <point x="342" y="435"/>
      <point x="385" y="479"/>
      <point x="385" y="514" type="qcurve" smooth="yes"/>
      <point x="385" y="544" type="line" smooth="yes"/>
      <point x="385" y="585"/>
      <point x="345" y="635"/>
      <point x="301" y="635" type="qcurve" smooth="yes"/>
      <point x="263" y="635"/>
      <point x="217" y="581"/>
      <point x="217" y="531" type="qcurve" smooth="yes"/>
      <point x="217" y="185" type="line" smooth="yes"/>
      <point x="217" y="147"/>
      <point x="271" y="105"/>
      <point x="316" y="105" type="qcurve" smooth="yes"/>
      <point x="363" y="105"/>
      <point x="416" y="155"/>
      <point x="416" y="200" type="qcurve" smooth="yes"/>
      <point x="416" y="234" type="line" smooth="yes"/>
      <point x="416" y="274"/>
      <point x="363" y="320"/>
      <point x="316" y="320" type="qcurve" smooth="yes"/>
      <point x="277" y="320" type="line"/>
    </contour>
  </outline>
</glyph>
<glyph name="theta" format="2">
  <advance width="576"/>
  <unicode hex="03B8"/>
  <outline>
    <contour>
      <point x="288" y="105" type="qcurve" smooth="yes"/>
      <point x="310" y="105"/>
      <point x="345" y="119"/>
      <point x="368" y="154"/>
      <point x="380" y="214"/>
      <point x="380" y="260" type="qcurve" smooth="yes"/>
      <point x="380" y="313" type="line"/>
      <point x="196" y="313" type="line"/>
      <point x="196" y="260" type="line" smooth="yes"/>
      <point x="196" y="214"/>
      <point x="208" y="154"/>
      <point x="231" y="119"/>
      <point x="265" y="105"/>
    </contour>
    <contour>
      <point x="196" y="428" type="line"/>
      <point x="380" y="428" type="line"/>
      <point x="380" y="480" type="line" smooth="yes"/>
      <point x="380" y="526"/>
      <point x="368" y="586"/>
      <point x="345" y="621"/>
      <point x="310" y="635"/>
      <point x="288" y="635" type="qcurve" smooth="yes"/>
      <point x="265" y="635"/>
      <point x="231" y="621"/>
      <point x="208" y="586"/>
      <point x="196" y="526"/>
      <point x="196" y="480" type="qcurve" smooth="yes"/>
    </contour>
    <contour>
      <point x="288" y="752" type="qcurve" smooth="yes"/>
      <point x="345" y="752"/>
      <point x="436" y="713"/>
      <point x="500" y="624"/>
      <point x="534" y="478"/>
      <point x="534" y="370" type="qcurve" smooth="yes"/>
      <point x="534" y="262"/>
      <point x="500" y="116"/>
      <point x="436" y="27"/>
      <point x="345" y="-12"/>
      <point x="288" y="-12" type="qcurve" smooth="yes"/>
      <point x="231" y="-12"/>
      <point x="140" y="27"/>
      <point x="76" y="116"/>
      <point x="42" y="262"/>
      <point x="42" y="370" type="qcurve" smooth="yes"/>
      <point x="42" y="478"/>
      <point x="76" y="624"/>
      <point x="140" y="713"/>
      <point x="231" y="752"/>
    </contour>
  </outline>
</glyph>
<glyph name="mugreek" format="2">
  <advance width="616"/>
  <unicode hex="03BC"/>
  <outline>
    <contour>
      <point x="69" y="-200" type="line"/>
      <point x="69" y="525" type="line"/>
      <point x="217" y="525" type="line"/>
      <point x="217" y="206" type="line" smooth="yes"/>
      <point x="217" y="158"/>
      <point x="251" y="108"/>
      <point x="291" y="108" type="qcurve" smooth="yes"/>
      <point x="329" y="108"/>
      <point x="385" y="149"/>
      <point x="385" y="185" type="qcurve" smooth="yes"/>
      <point x="385" y="525" type="line"/>
      <point x="533" y="525" type="line"/>
      <point x="533" y="115" type="line"/>
      <point x="582" y="115" type="line"/>
      <point x="582" y="0" type="line"/>
      <point x="532" y="0" type="line" smooth="yes"/>
      <point x="468" y="0"/>
      <point x="401" y="51"/>
      <point x="390" y="96" type="qcurve"/>
      <point x="385" y="96" type="line"/>
      <point x="373" y="40"/>
      <point x="318" y="-12"/>
      <point x="277" y="-12" type="qcurve" smooth="yes"/>
      <point x="245" y="-12"/>
      <point x="203" y="14"/>
      <point x="183" y="44" type="qcurve"/>
      <point x="178" y="44" type="line"/>
      <point x="216" y="-96" type="line"/>
      <point x="216" y="-200" type="line"/>
    </contour>
  </outline>
</glyph>
<glyph name="chi" format="2">
  <advance width="545"/>
  <unicode hex="03C7"/>
  <outline>
    <contour>
      <point x="88" y="525" type="line" smooth="yes"/>
      <point x="145" y="525"/>
      <point x="202" y="484"/>
      <point x="220" y="435" type="qcurve" smooth="yes"/>
      <point x="278" y="279" type="line"/>
      <point x="282" y="279" type="line"/>
      <point x="379" y="525" type="line"/>
      <point x="535" y="525" type="line"/>
      <point x="365" y="172" type="line"/>
      <point x="471" y="-85" type="line"/>
      <point x="537" y="-85" type="line"/>
      <point x="537" y="-200" type="line"/>
      <point x="468" y="-200" type="line" smooth="yes"/>
      <point x="411" y="-200"/>
      <point x="353" y="-158"/>
      <point x="336" y="-110" type="qcurve" smooth="yes"/>
      <point x="275" y="63" type="line"/>
      <point x="271" y="63" type="line"/>
      <point x="168" y="-200" type="line"/>
      <point x="12" y="-200" type="line"/>
      <point x="189" y="169" type="line"/>
      <point x="85" y="410" type="line"/>
      <point x="19" y="410" type="line"/>
      <point x="19" y="525" type="line"/>
    </contour>
  </outline>
</glyph>
<glyph name="iotadieresis" format="2">
  <advance width="329"/>
  <unicode hex="03CA"/>
  <outline>
    <contour>
      <point x="313" y="0" type="line"/>
      <point x="225" y="0" type="line" smooth="yes"/>
      <point x="148" y="0"/>
      <point x="69" y="78"/>
      <point x="69" y="153" type="qcurve" smooth="yes"/>
      <point x="69" y="525" type="line"/>
      <point x="217" y="525" type="line"/>
      <point x="217" y="115" type="line"/>
      <point x="313" y="115" type="line"/>
    </contour>
    <contour>
      <point x="40" y="600" type="qcurve" smooth="yes"/>
      <point x="-5" y="600"/>
      <point x="-40" y="637"/>
      <point x="-40" y="663" type="qcurve" smooth="yes"/>
      <point x="-40" y="688" type="line" smooth="yes"/>
      <point x="-40" y="714"/>
      <point x="-5" y="751"/>
      <point x="40" y="751" type="qcurve" smooth="yes"/>
      <point x="85" y="751"/>
      <point x="120" y="714"/>
      <point x="120" y="688" type="qcurve" smooth="yes"/>
      <point x="120" y="663" type="line" smooth="yes"/>
      <point x="120" y="637"/>
      <point x="85" y="600"/>
    </contour>
    <contour>
      <point x="260" y="600" type="qcurve" smooth="yes"/>
      <point x="215" y="600"/>
      <point x="180" y="637"/>
      <point x="180" y="663" type="qcurve" smooth="yes"/>
      <point x="180" y="688" type="line" smooth="yes"/>
      <point x="180" y="714"/>
      <point x="215" y="751"/>
      <point x="260" y="751" type="qcurve" smooth="yes"/>
      <point x="305" y="751"/>
      <point x="340" y="714"/>
      <point x="340" y="688" type="qcurve" smooth="yes"/>
      <point x="340" y="663" type="line" smooth="yes"/>
      <point x="340" y="637"/>
      <point x="305" y="600"/>
    </contour>
  </outline>
</glyph>
<glyph name="upsilontonos" format="2">
  <advance width="582"/>
  <unicode hex="03CD"/>
  <outline>
    <contour>
      <point x="207" y="210" type="line" smooth="yes"/>
      <point x="207" y="157"/>
      <point x="247" y="105"/>
      <point x="291" y="105" type="qcurve" smooth="yes"/>
      <point x="335" y="105"/>
      <point x="375" y="157"/>
      <point x="375" y="210" type="qcurve" smooth="yes"/>
      <point x="375" y="525" type="line"/>
      <point x="523" y="525" type="line"/>
      <point x="523" y="239" type="line" smooth="yes"/>
      <point x="523" y="-12"/>
      <point x="291" y="-12" type="qcurve" smooth="yes"/>
      <point x="59" y="-12"/>
      <point x="59" y="239" type="qcurve" smooth="yes"/>
      <point x="59" y="525" type="line"/>
      <point x="207" y="525" type="line"/>
    </contour>
    <contour>
      <point x="342" y="579" type="line"/>
      <point x="247" y="593" type="line"/>
      <point x="282" y="816" type="line"/>
      <point x="415" y="796" type="line"/>
    </contour>
  </outline>
</glyph>
<glyph name="Iegravecyr" format="2">
  <advance width="607"/>
  <unicode hex="0400"/>
  <outline>
    <contour>
      <point x="77" y="0" type="line"/>
      <point x="77" y="698" type="line"/>
      <point x="552" y="698" type="line"/>
      <point x="552" y="563" type="line"/>
      <point x="229" y="563" type="line"/>
      <point x="229" y="420" type="line"/>
      <point x="506" y="420" type="line"/>
      <point x="506" y="286" type="line"/>
      <point x="229" y="286" type="line"/>
      <point x="229" y="135" type="line"/>
      <point x="552" y="135" type="line"/>
      <point x="552" y="0" type="line"/>
    </contour>
    <contour>
      <point x="165" y="916" type="line"/>
      <point x="288" y="977" type="line"/>
      <point x="387" y="783" type="line"/>
      <point x="299" y="740" type="line"/>
    </contour>
  </outline>
</glyph>
<glyph name="u0401" format="2">
  <advance width="607"/>
  <unicode hex="0401"/>
  <outline>
    <contour>
      <point x="77" y="0" type="line"/>
      <point x="77" y="698" type="line"/>
      <point x="552" y="698" type="line"/>
      <point x="552" y="563" type="line"/>
      <point x="229" y="563" type="line"/>
      <point x="229" y="420" type="line"/>
      <point x="506" y="420" type="line"/>
      <point x="506" y="286" type="line"/>
      <point x="229" y="286" type="line"/>
      <point x="229" y="135" type="line"/>
      <point x="552" y="135" type="line"/>
      <point x="552" y="0" type="line"/>
    </contour>
    <contour>
      <point x="205" y="761" type="qcurve" smooth="yes"/>
      <point x="125" y="761"/>
      <point x="125" y="824" type="qcurve" smooth="yes"/>
      <point x="125" y="849" type="line" smooth="yes"/>
      <point x="125" y="912"/>
      <point x="205" y="912" type="qcurve" smooth="yes"/>
      <point x="285" y="912"/>
      <point x="285" y="849" type="qcurve" smooth="yes"/>
      <point x="285" y="824" type="line" smooth="yes"/>
      <point x="285" y="761"/>
    </contour>
    <contour>
      <point x="425" y="761" type="qcurve" smooth="yes"/>
      <point x="345" y="761"/>
      <point x="345" y="824" type="qcurve" smooth="yes"/>
      <point x="345" y="849" type="line" smooth="yes"/>
      <point x="345" y="912"/>
      <point x="425" y="912" type="qcurve" smooth="yes"/>
      <point x="505" y="912"/>
      <point x="505" y="849" type="qcurve" smooth="yes"/>
      <point x="505" y="824" type="line" smooth="yes"/>
      <point x="505" y="761"/>
    </contour>
  </outline>
</glyph>
<glyph name="u0402" format="2">
  <advance width="807"/>
  <unicode hex="0402"/>
  <outline>
    <contour>
      <point x="472" y="-184" type="line"/>
      <point x="472" y="-43" type="line"/>
      <point x="575" y="-43" type="line"/>
      <point x="601" y="-7"/>
      <point x="601" y="69" type="qcurve" smooth="yes"/>
      <point x="601" y="195" type="line" smooth="yes"/>
      <point x="601" y="314"/>
      <point x="487" y="314" type="qcurve" smooth="yes"/>
      <point x="408" y="314"/>
      <point x="368" y="296" type="qcurve"/>
      <point x="368" y="0" type="line"/>
      <point x="216" y="0" type="line"/>
      <point x="216" y="563" type="line"/>
      <point x="27" y="563" type="line"/>
      <point x="27" y="698" type="line"/>
      <point x="557" y="698" type="line"/>
      <point x="557" y="563" type="line"/>
      <point x="368" y="563" type="line"/>
      <point x="368" y="423" type="line"/>
      <point x="373" y="423" type="line"/>
      <point x="417" y="446"/>
      <point x="501" y="446" type="qcurve" smooth="yes"/>
      <point x="753" y="446"/>
      <point x="753" y="189" type="qcurve" smooth="yes"/>
      <point x="753" y="63" type="line" smooth="yes"/>
      <point x="753" y="-59"/>
      <point x="633" y="-184"/>
      <point x="524" y="-184" type="qcurve" smooth="yes"/>
    </contour>
  </outline>
</glyph>
<glyph name="u0404" format="2">
  <advance width="671"/>
  <unicode hex="0404"/>
  <outline>
    <contour>
      <point x="369" y="-12" type="qcurve" smooth="yes"/>
      <point x="219" y="-12"/>
      <point x="50" y="167"/>
      <point x="50" y="344" type="qcurve" smooth="yes"/>
      <point x="50" y="521"/>
      <point x="219" y="710"/>
      <point x="369" y="710" type="qcurve" smooth="yes"/>
      <point x="470" y="710"/>
      <point x="596" y="631"/>
      <point x="638" y="554" type="qcurve"/>
      <point x="511" y="482" type="line"/>
      <point x="495" y="524"/>
      <point x="434" y="575"/>
      <point x="369" y="575" type="qcurve" smooth="yes"/>
      <point x="224" y="575"/>
      <point x="211" y="420" type="qcurve"/>
      <point x="442" y="420" type="line"/>
      <point x="442" y="286" type="line"/>
      <point x="211" y="286" type="line"/>
      <point x="211" y="282" type="line"/>
      <point x="221" y="123"/>
      <point x="369" y="123" type="qcurve" smooth="yes"/>
      <point x="433" y="123"/>
      <point x="502" y="178"/>
      <point x="518" y="223" type="qcurve"/>
      <point x="641" y="147" type="line"/>
      <point x="604" y="71"/>
      <point x="474" y="-12"/>
    </contour>
  </outline>
</glyph>
<glyph name="u0407" format="2">
  <advance width="306"/>
  <unicode hex="0407"/>
  <outline>
    <contour>
      <point x="229" y="0" type="line"/>
      <point x="77" y="0" type="line"/>
      <point x="77" y="698" type="line"/>
      <point x="229" y="698" type="line"/>
    </contour>
    <contour>
      <point x="44" y="761" type="qcurve" smooth="yes"/>
      <point x="-36" y="761"/>
      <point x="-36" y="824" type="qcurve" smooth="yes"/>
      <point x="-36" y="849" type="line" smooth="yes"/>
      <point x="-36" y="912"/>
      <point x="44" y="912" type="qcurve" smooth="yes"/>
      <point x="124" y="912"/>
      <point x="124" y="849" type="qcurve" smooth="yes"/>
      <point x="124" y="824" type="line" smooth="yes"/>
      <point x="124" y="761"/>
    </contour>
    <contour>
      <point x="264" y="761" type="qcurve" smooth="yes"/>
      <point x="184" y="761"/>
      <point x="184" y="824" type="qcurve" smooth="yes"/>
      <point x="184" y="849" type="line" smooth="yes"/>
      <point x="184" y="912"/>
      <point x="264" y="912" type="qcurve" smooth="yes"/>
      <point x="344" y="912"/>
      <point x="344" y="849" type="qcurve" smooth="yes"/>
      <point x="344" y="824" type="line" smooth="yes"/>
      <point x="344" y="761"/>
    </contour>
  </outline>
</glyph>
<glyph name="afii10058" format="2">
  <advance width="1047"/>
  <unicode hex="0409"/>
  <outline>
    <contour>
      <point x="20" y="-6" type="line"/>
      <point x="20" y="135" type="line"/>
      <point x="103" y="135" type="line"/>
      <point x="134" y="167"/>
      <point x="152" y="243" type="qcurve" smooth="yes"/>
      <point x="169" y="316"/>
      <point x="169" y="476" type="qcurve" smooth="yes"/>
      <point x="169" y="698" type="line"/>
      <point x="634" y="698" type="line"/>
      <point x="634" y="446" type="line"/>
      <point x="802" y="446" type="line" smooth="yes"/>
      <point x="900" y="446"/>
      <point x="1014" y="321"/>
      <point x="1014" y="223" type="qcurve" smooth="yes"/>
      <point x="1014" y="123"/>
      <point x="900" y="0"/>
      <point x="802" y="0" type="qcurve" smooth="yes"/>
      <point x="482" y="0" type="line"/>
      <point x="482" y="563" type="line"/>
      <point x="317" y="563" type="line"/>
      <point x="317" y="455" type="line" smooth="yes"/>
      <point x="317" y="133"/>
      <point x="227" y="51" type="qcurve"/>
      <point x="197" y="21"/>
      <point x="125" y="-6"/>
      <point x="72" y="-6" type="qcurve" smooth="yes"/>
    </contour>
    <contour>
      <point x="784" y="132" type="line"/>
      <point x="857" y="134"/>
      <point x="857" y="201" type="qcurve" smooth="yes"/>
      <point x="857" y="245" type="line" smooth="yes"/>
      <point x="857" y="279"/>
      <point x="818" y="314"/>
      <point x="784" y="314" type="qcurve" smooth="yes"/>
      <point x="634" y="314" type="line"/>
      <point x="634" y="132" type="line"/>
    </contour>
  </outline>
</glyph>
<glyph name="u040A" format="2">
  <advance width="1040"/>
  <unicode hex="040A"/>
  <outline>
    <contour>
      <point x="777" y="132" type="line"/>
      <point x="850" y="134"/>
      <point x="850" y="201" type="qcurve" smooth="yes"/>
      <point x="850" y="245" type="line" smooth="yes"/>
      <point x="850" y="279"/>
      <point x="811" y="314"/>
      <point x="777" y="314" type="qcurve" smooth="yes"/>
      <point x="627" y="314" type="line"/>
      <point x="627" y="132" type="line"/>
    </contour>
    <contour>
      <point x="475" y="0" type="line"/>
      <point x="475" y="286" type="line"/>
      <point x="229" y="286" type="line"/>
      <point x="229" y="0" type="line"/>
      <point x="77" y="0" type="line"/>
      <point x="77" y="698" type="line"/>
      <point x="229" y="698" type="line"/>
      <point x="229" y="420" type="line"/>
      <point x="475" y="420" type="line"/>
      <point x="475" y="698" type="line"/>
      <point x="627" y="698" type="line"/>
      <point x="627" y="446" type="line"/>
      <point x="795" y="446" type="line" smooth="yes"/>
      <point x="893" y="446"/>
      <point x="1007" y="321"/>
      <point x="1007" y="223" type="qcurve" smooth="yes"/>
      <point x="1007" y="123"/>
      <point x="893" y="0"/>
      <point x="795" y="0" type="qcurve" smooth="yes"/>
    </contour>
  </outline>
</glyph>
<glyph name="afii10060" format="2">
  <advance width="817"/>
  <unicode hex="040B"/>
  <outline>
    <contour>
      <point x="611" y="0" type="line"/>
      <point x="611" y="195" type="line" smooth="yes"/>
      <point x="611" y="314"/>
      <point x="492" y="314" type="qcurve" smooth="yes"/>
      <point x="404" y="314"/>
      <point x="368" y="296" type="qcurve"/>
      <point x="368" y="0" type="line"/>
      <point x="216" y="0" type="line"/>
      <point x="216" y="563" type="line"/>
      <point x="27" y="563" type="line"/>
      <point x="27" y="698" type="line"/>
      <point x="557" y="698" type="line"/>
      <point x="557" y="563" type="line"/>
      <point x="368" y="563" type="line"/>
      <point x="368" y="423" type="line"/>
      <point x="373" y="423" type="line"/>
      <point x="416" y="446"/>
      <point x="506" y="446" type="qcurve" smooth="yes"/>
      <point x="763" y="446"/>
      <point x="763" y="189" type="qcurve" smooth="yes"/>
      <point x="763" y="0" type="line"/>
    </contour>
  </outline>
</glyph>
<glyph name="u040C" format="2">
  <advance width="675"/>
  <unicode hex="040C"/>
  <outline>
    <contour>
      <point x="556" y="0" type="line" smooth="yes"/>
      <point x="514" y="0"/>
      <point x="458" y="37"/>
      <point x="434" y="85" type="qcurve" smooth="yes"/>
      <point x="330" y="286" type="line"/>
      <point x="229" y="286" type="line"/>
      <point x="229" y="0" type="line"/>
      <point x="77" y="0" type="line"/>
      <point x="77" y="698" type="line"/>
      <point x="229" y="698" type="line"/>
      <point x="229" y="420" type="line"/>
      <point x="330" y="420" type="line"/>
      <point x="434" y="615" type="line" smooth="yes"/>
      <point x="457" y="657"/>
      <point x="514" y="698"/>
      <point x="559" y="698" type="qcurve" smooth="yes"/>
      <point x="621" y="698" type="line"/>
      <point x="621" y="563" type="line"/>
      <point x="559" y="563" type="line"/>
      <point x="487" y="427" type="line" smooth="yes"/>
      <point x="460" y="376"/>
      <point x="414" y="363" type="qcurve"/>
      <point x="414" y="357" type="line"/>
      <point x="465" y="350"/>
      <point x="491" y="294" type="qcurve"/>
      <point x="573" y="135" type="line"/>
      <point x="635" y="135" type="line"/>
      <point x="635" y="0" type="line"/>
    </contour>
    <contour>
      <point x="282" y="783" type="line"/>
      <point x="381" y="977" type="line"/>
      <point x="504" y="916" type="line"/>
      <point x="370" y="740" type="line"/>
    </contour>
  </outline>
</glyph>
<glyph name="u040E" format="2">
  <advance width="631"/>
  <unicode hex="040E"/>
  <outline>
    <contour>
      <point x="119" y="0" type="line"/>
      <point x="119" y="135" type="line"/>
      <point x="241" y="135" type="line"/>
      <point x="256" y="173" type="line"/>
      <point x="12" y="698" type="line"/>
      <point x="172" y="698" type="line"/>
      <point x="270" y="481" type="line"/>
      <point x="328" y="342" type="line"/>
      <point x="331" y="342" type="line"/>
      <point x="382" y="482" type="line"/>
      <point x="468" y="698" type="line"/>
      <point x="617" y="698" type="line"/>
      <point x="371" y="98" type="line" smooth="yes"/>
      <point x="350" y="45"/>
      <point x="281" y="0"/>
      <point x="219" y="0" type="qcurve" smooth="yes"/>
    </contour>
    <contour>
      <point x="318" y="740" type="qcurve" smooth="yes"/>
      <point x="252" y="740"/>
      <point x="170" y="798"/>
      <point x="147" y="852" type="qcurve" smooth="yes"/>
      <point x="126" y="903" type="line"/>
      <point x="241" y="946" type="line"/>
      <point x="273" y="845" type="line"/>
      <point x="288" y="838"/>
      <point x="318" y="838" type="qcurve" smooth="yes"/>
      <point x="348" y="838"/>
      <point x="363" y="845" type="qcurve"/>
      <point x="395" y="946" type="line"/>
      <point x="510" y="903" type="line"/>
      <point x="489" y="852" type="line" smooth="yes"/>
      <point x="466" y="798"/>
      <point x="384" y="740"/>
    </contour>
  </outline>
</glyph>
<glyph name="u0410" format="2">
  <advance width="685"/>
  <unicode hex="0410"/>
  <outline>
    <contour>
      <point x="342" y="560" type="line"/>
      <point x="337" y="560" type="line"/>
      <point x="260" y="295" type="line"/>
      <point x="420" y="295" type="line"/>
    </contour>
    <contour>
      <point x="507" y="0" type="line"/>
      <point x="457" y="166" type="line"/>
      <point x="224" y="166" type="line"/>
      <point x="174" y="0" type="line"/>
      <point x="20" y="0" type="line"/>
      <point x="250" y="698" type="line"/>
      <point x="438" y="698" type="line"/>
      <point x="665" y="0" type="line"/>
    </contour>
  </outline>
</glyph>
<glyph name="u0411" format="2">
  <advance width="657"/>
  <unicode hex="0411"/>
  <outline>
    <contour>
      <point x="389" y="132" type="line"/>
      <point x="462" y="134"/>
      <point x="462" y="201" type="qcurve" smooth="yes"/>
      <point x="462" y="231" type="line" smooth="yes"/>
      <point x="462" y="265"/>
      <point x="423" y="300"/>
      <point x="389" y="300" type="qcurve" smooth="yes"/>
      <point x="229" y="300" type="line"/>
      <point x="229" y="132" type="line"/>
    </contour>
    <contour>
      <point x="77" y="0" type="line"/>
      <point x="77" y="698" type="line"/>
      <point x="549" y="698" type="line"/>
      <point x="549" y="563" type="line"/>
      <point x="229" y="563" type="line"/>
      <point x="229" y="432" type="line"/>
      <point x="407" y="432" type="line" smooth="yes"/>
      <point x="505" y="432"/>
      <point x="619" y="310"/>
      <point x="619" y="215" type="qcurve" smooth="yes"/>
      <point x="619" y="121"/>
      <point x="505" y="0"/>
      <point x="407" y="0" type="qcurve" smooth="yes"/>
    </contour>
  </outline>
</glyph>
<glyph name="Vecyr" format="2">
  <advance width="667"/>
  <unicode hex="0412"/>
  <outline>
    <contour>
      <point x="404" y="128" type="line"/>
      <point x="469" y="131"/>
      <point x="469" y="191" type="qcurve" smooth="yes"/>
      <point x="469" y="225" type="line"/>
      <point x="464" y="288"/>
      <point x="404" y="288" type="qcurve" smooth="yes"/>
      <point x="229" y="288" type="line"/>
      <point x="229" y="128" type="line"/>
    </contour>
    <contour>
      <point x="380" y="412" type="line"/>
      <point x="444" y="416"/>
      <point x="444" y="476" type="qcurve" smooth="yes"/>
      <point x="444" y="506" type="line"/>
      <point x="440" y="570"/>
      <point x="380" y="570" type="qcurve" smooth="yes"/>
      <point x="229" y="570" type="line"/>
      <point x="229" y="412" type="line"/>
    </contour>
    <contour>
      <point x="77" y="0" type="line"/>
      <point x="77" y="698" type="line"/>
      <point x="416" y="698" type="line" smooth="yes"/>
      <point x="503" y="698"/>
      <point x="600" y="600"/>
      <point x="600" y="519" type="qcurve" smooth="yes"/>
      <point x="600" y="444"/>
      <point x="525" y="370"/>
      <point x="470" y="369" type="qcurve"/>
      <point x="470" y="363" type="line"/>
      <point x="528" y="363"/>
      <point x="573" y="326" type="qcurve" smooth="yes"/>
      <point x="627" y="282"/>
      <point x="627" y="199" type="qcurve" smooth="yes"/>
      <point x="627" y="117"/>
      <point x="525" y="0"/>
      <point x="447" y="0" type="qcurve" smooth="yes"/>
    </contour>
  </outline>
</glyph>
<glyph name="afii10027" format="2">
  <advance width="724"/>
  <unicode hex="0419"/>
  <outline>
    <contour>
      <point x="364" y="740" type="qcurve" smooth="yes"/>
      <point x="298" y="740"/>
      <point x="216" y="798"/>
      <point x="193" y="852" type="qcurve" smooth="yes"/>
      <point x="172" y="903" type="line"/>
      <point x="287" y="946" type="line"/>
      <point x="319" y="845" type="line"/>
      <point x="334" y="838"/>
      <point x="364" y="838" type="qcurve" smooth="yes"/>
      <point x="394" y="838"/>
      <point x="409" y="845" type="qcurve"/>
      <point x="441" y="946" type="line"/>
      <point x="556" y="903" type="line"/>
      <point x="535" y="852" type="line" smooth="yes"/>
      <point x="512" y="798"/>
      <point x="430" y="740"/>
    </contour>
    <contour>
      <point x="499" y="0" type="line"/>
      <point x="499" y="341" type="line"/>
      <point x="515" y="488" type="line"/>
      <point x="512" y="488" type="line"/>
      <point x="443" y="355" type="line"/>
      <point x="213" y="0" type="line"/>
      <point x="77" y="0" type="line"/>
      <point x="77" y="698" type="line"/>
      <point x="225" y="698" type="line"/>
      <point x="225" y="357" type="line"/>
      <point x="209" y="210" type="line"/>
      <point x="212" y="210" type="line"/>
      <point x="281" y="343" type="line"/>
      <point x="511" y="698" type="line"/>
      <point x="647" y="698" type="line"/>
      <point x="647" y="0" type="line"/>
    </contour>
  </outline>
</glyph>
<glyph name="Kacyr" format="2">
  <advance width="675"/>
  <unicode hex="041A"/>
  <outline>
    <contour>
      <point x="556" y="0" type="line" smooth="yes"/>
      <point x="514" y="0"/>
      <point x="458" y="37"/>
      <point x="434" y="85" type="qcurve" smooth="yes"/>
      <point x="330" y="286" type="line"/>
      <point x="229" y="286" type="line"/>
      <point x="229" y="0" type="line"/>
      <point x="77" y="0" type="line"/>
      <point x="77" y="698" type="line"/>
      <point x="229" y="698" type="line"/>
      <point x="229" y="420" type="line"/>
      <point x="330" y="420" type="line"/>
      <point x="434" y="615" type="line" smooth="yes"/>
      <point x="457" y="657"/>
      <point x="514" y="698"/>
      <point x="559" y="698" type="qcurve" smooth="yes"/>
      <point x="621" y="698" type="line"/>
      <point x="621" y="563" type="line"/>
      <point x="559" y="563" type="line"/>
      <point x="487" y="427" type="line" smooth="yes"/>
      <point x="460" y="376"/>
      <point x="414" y="363" type="qcurve"/>
      <point x="414" y="357" type="line"/>
      <point x="465" y="350"/>
      <point x="491" y="294" type="qcurve"/>
      <point x="573" y="135" type="line"/>
      <point x="635" y="135" type="line"/>
      <point x="635" y="0" type="line"/>
    </contour>
  </outline>
</glyph>
<glyph name="u041E" format="2">
  <advance width="714"/>
  <unicode hex="041E"/>
  <outline>
    <contour>
      <point x="357" y="123" type="qcurve"/>
      <point x="503" y="129"/>
      <point x="503" y="297" type="qcurve" smooth="yes"/>
      <point x="503" y="401" type="line" smooth="yes"/>
      <point x="503" y="485"/>
      <point x="426" y="575"/>
      <point x="357" y="575" type="qcurve"/>
      <point x="211" y="569"/>
      <point x="211" y="401" type="qcurve" smooth="yes"/>
      <point x="211" y="297" type="line" smooth="yes"/>
      <point x="211" y="213"/>
      <point x="288" y="123"/>
    </contour>
    <contour>
      <point x="357" y="-12" type="qcurve" smooth="yes"/>
      <point x="219" y="-12"/>
      <point x="134" y="80" type="qcurve" smooth="yes"/>
      <point x="50" y="174"/>
      <point x="50" y="349" type="qcurve" smooth="yes"/>
      <point x="50" y="523"/>
      <point x="134" y="619" type="qcurve"/>
      <point x="219" y="710"/>
      <point x="357" y="710" type="qcurve" smooth="yes"/>
      <point x="495" y="710"/>
      <point x="580" y="619" type="qcurve"/>
      <point x="664" y="523"/>
      <point x="664" y="349" type="qcurve" smooth="yes"/>
      <point x="664" y="174"/>
      <point x="580" y="80" type="qcurve" smooth="yes"/>
      <point x="495" y="-12"/>
    </contour>
  </outline>
</glyph>
<glyph name="Pecyr" format="2">
  <advance width="709"/>
  <unicode hex="041F"/>
  <outline>
    <contour>
      <point x="480" y="0" type="line"/>
      <point x="480" y="563" type="line"/>
      <point x="229" y="563" type="line"/>
      <point x="229" y="0" type="line"/>
      <point x="77" y="0" type="line"/>
      <point x="77" y="698" type="line"/>
      <point x="632" y="698" type="line"/>
      <point x="632" y="0" type="line"/>
    </contour>
  </outline>
</glyph>
<glyph name="afii10041" format="2">
  <advance width="678"/>
  <unicode hex="0427"/>
  <outline>
    <contour>
      <point x="449" y="0" type="line"/>
      <point x="449" y="247" type="line"/>
      <point x="444" y="247" type="line"/>
      <point x="401" y="224"/>
      <point x="311" y="224" type="qcurve" smooth="yes"/>
      <point x="54" y="225"/>
      <point x="54" y="481" type="qcurve" smooth="yes"/>
      <point x="54" y="698" type="line"/>
      <point x="206" y="698" type="line"/>
      <point x="206" y="475" type="line"/>
      <point x="207" y="356"/>
      <point x="325" y="356" type="qcurve" smooth="yes"/>
      <point x="414" y="356"/>
      <point x="449" y="374" type="qcurve"/>
      <point x="449" y="698" type="line"/>
      <point x="601" y="698" type="line"/>
      <point x="601" y="0" type="line"/>
    </contour>
  </outline>
</glyph>
<glyph name="Shacyr" format="2">
  <advance width="1030"/>
  <unicode hex="0428"/>
  <outline>
    <contour>
      <point x="77" y="0" type="line"/>
      <point x="77" y="698" type="line"/>
      <point x="229" y="698" type="line"/>
      <point x="229" y="135" type="line"/>
      <point x="440" y="135" type="line"/>
      <point x="440" y="698" type="line"/>
      <point x="592" y="698" type="line"/>
      <point x="592" y="135" type="line"/>
      <point x="801" y="135" type="line"/>
      <point x="801" y="698" type="line"/>
      <point x="953" y="698" type="line"/>
      <point x="953" y="0" type="line"/>
    </contour>
  </outline>
</glyph>
<glyph name="u042A" format="2">
  <advance width="758"/>
  <unicode hex="042A"/>
  <outline>
    <contour>
      <point x="495" y="132" type="line"/>
      <point x="568" y="134"/>
      <point x="568" y="201" type="qcurve" smooth="yes"/>
      <point x="568" y="245" type="line" smooth="yes"/>
      <point x="568" y="279"/>
      <point x="529" y="314"/>
      <point x="495" y="314" type="qcurve" smooth="yes"/>
      <point x="325" y="314" type="line"/>
      <point x="325" y="132" type="line"/>
    </contour>
    <contour>
      <point x="173" y="0" type="line"/>
      <point x="173" y="563" type="line"/>
      <point x="22" y="563" type="line"/>
      <point x="22" y="698" type="line"/>
      <point x="325" y="698" type="line"/>
      <point x="325" y="446" type="line"/>
      <point x="513" y="446" type="line" smooth="yes"/>
      <point x="611" y="446"/>
      <point x="725" y="321"/>
      <point x="725" y="223" type="qcurve" smooth="yes"/>
      <point x="725" y="123"/>
      <point x="611" y="0"/>
      <point x="513" y="0" type="qcurve" smooth="yes"/>
    </contour>
  </outline>
</glyph>
<glyph name="u042C" format="2">
  <advance width="662"/>
  <unicode hex="042C"/>
  <outline>
    <contour>
      <point x="399" y="132" type="line"/>
      <point x="472" y="134"/>
      <point x="472" y="201" type="qcurve" smooth="yes"/>
      <point x="472" y="245" type="line" smooth="yes"/>
      <point x="472" y="279"/>
      <point x="433" y="314"/>
      <point x="399" y="314" type="qcurve" smooth="yes"/>
      <point x="229" y="314" type="line"/>
      <point x="229" y="132" type="line"/>
    </contour>
    <contour>
      <point x="77" y="0" type="line"/>
      <point x="77" y="698" type="line"/>
      <point x="229" y="698" type="line"/>
      <point x="229" y="446" type="line"/>
      <point x="417" y="446" type="line" smooth="yes"/>
      <point x="515" y="446"/>
      <point x="629" y="321"/>
      <point x="629" y="223" type="qcurve" smooth="yes"/>
      <point x="629" y="123"/>
      <point x="515" y="0"/>
      <point x="417" y="0" type="qcurve" smooth="yes"/>
    </contour>
  </outline>
</glyph>
<glyph name="Yucyr" format="2">
  <advance width="1016"/>
  <unicode hex="042E"/>
  <outline>
    <contour>
      <point x="659" y="123" type="qcurve"/>
      <point x="805" y="129"/>
      <point x="805" y="297" type="qcurve" smooth="yes"/>
      <point x="805" y="401" type="line" smooth="yes"/>
      <point x="805" y="485"/>
      <point x="728" y="575"/>
      <point x="659" y="575" type="qcurve"/>
      <point x="513" y="569"/>
      <point x="513" y="401" type="qcurve" smooth="yes"/>
      <point x="513" y="297" type="line" smooth="yes"/>
      <point x="513" y="213"/>
      <point x="590" y="123"/>
    </contour>
    <contour>
      <point x="659" y="-12" type="qcurve" smooth="yes"/>
      <point x="531" y="-12"/>
      <point x="372" y="139"/>
      <point x="354" y="286" type="qcurve"/>
      <point x="229" y="286" type="line"/>
      <point x="229" y="0" type="line"/>
      <point x="77" y="0" type="line"/>
      <point x="77" y="698" type="line"/>
      <point x="229" y="698" type="line"/>
      <point x="229" y="420" type="line"/>
      <point x="356" y="420" type="line"/>
      <point x="372" y="563"/>
      <point x="535" y="710"/>
      <point x="659" y="710" type="qcurve" smooth="yes"/>
      <point x="797" y="710"/>
      <point x="882" y="619" type="qcurve"/>
      <point x="966" y="523"/>
      <point x="966" y="349" type="qcurve" smooth="yes"/>
      <point x="966" y="174"/>
      <point x="882" y="80" type="qcurve" smooth="yes"/>
      <point x="797" y="-12"/>
    </contour>
  </outline>
</glyph>
<glyph name="u042F" format="2">
  <advance width="678"/>
  <unicode hex="042F"/>
  <outline>
    <contour>
      <point x="449" y="566" type="line"/>
      <point x="289" y="566" type="line"/>
      <point x="216" y="565"/>
      <point x="216" y="497" type="qcurve" smooth="yes"/>
      <point x="216" y="454" type="line" smooth="yes"/>
      <point x="216" y="419"/>
      <point x="255" y="384"/>
      <point x="289" y="384" type="qcurve" smooth="yes"/>
      <point x="449" y="384" type="line"/>
    </contour>
    <contour>
      <point x="449" y="0" type="line"/>
      <point x="449" y="256" type="line"/>
      <point x="357" y="256" type="line"/>
      <point x="240" y="73" type="line"/>
      <point x="213" y="29"/>
      <point x="157" y="0"/>
      <point x="116" y="0" type="qcurve" smooth="yes"/>
      <point x="42" y="0" type="line"/>
      <point x="42" y="135" type="line"/>
      <point x="104" y="135" type="line"/>
      <point x="161" y="224" type="line"/>
      <point x="172" y="243"/>
      <point x="203" y="265"/>
      <point x="229" y="270" type="qcurve"/>
      <point x="229" y="276" type="line"/>
      <point x="151" y="285"/>
      <point x="59" y="388"/>
      <point x="59" y="475" type="qcurve" smooth="yes"/>
      <point x="59" y="576"/>
      <point x="174" y="698"/>
      <point x="270" y="698" type="qcurve" smooth="yes"/>
      <point x="601" y="698" type="line"/>
      <point x="601" y="0" type="line"/>
    </contour>
  </outline>
</glyph>
<glyph name="gecyr" format="2">
  <advance width="444"/>
  <unicode hex="0433"/>
  <outline>
    <contour>
      <point x="69" y="0" type="line"/>
      <point x="69" y="525" type="line"/>
      <point x="424" y="525" type="line"/>
      <point x="424" y="410" type="line"/>
      <point x="217" y="410" type="line"/>
      <point x="217" y="0" type="line"/>
    </contour>
  </outline>
</glyph>
<glyph name="afii10073" format="2">
  <advance width="531"/>
  <unicode hex="0437"/>
  <outline>
    <contour>
      <point x="252" y="-12" type="qcurve" smooth="yes"/>
      <point x="174" y="-12"/>
      <point x="66" y="37"/>
      <point x="23" y="82" type="qcurve"/>
      <point x="110" y="170" type="line"/>
      <point x="168" y="104"/>
      <point x="253" y="104" type="qcurve" smooth="yes"/>
      <point x="298" y="104"/>
      <point x="342" y="135"/>
      <point x="342" y="162" type="qcurve" smooth="yes"/>
      <point x="342" y="173" type="line" smooth="yes"/>
      <point x="342" y="218"/>
      <point x="283" y="218" type="qcurve" smooth="yes"/>
      <point x="167" y="218" type="line"/>
      <point x="167" y="316" type="line"/>
      <point x="270" y="316" type="line" smooth="yes"/>
      <point x="329" y="316"/>
      <point x="329" y="361" type="qcurve" smooth="yes"/>
      <point x="329" y="371" type="line" smooth="yes"/>
      <point x="329" y="421"/>
      <point x="249" y="421" type="qcurve" smooth="yes"/>
      <point x="167" y="421"/>
      <point x="122" y="359" type="qcurve"/>
      <point x="34" y="437" type="line"/>
      <point x="115" y="537"/>
      <point x="260" y="537" type="qcurve" smooth="yes"/>
      <point x="369" y="537"/>
      <point x="478" y="456"/>
      <point x="478" y="393" type="qcurve" smooth="yes"/>
      <point x="478" y="291"/>
      <point x="367" y="278" type="qcurve"/>
      <point x="367" y="273" type="line"/>
      <point x="425" y="267"/>
      <point x="491" y="206"/>
      <point x="491" y="156" type="qcurve" smooth="yes"/>
      <point x="491" y="77"/>
      <point x="365" y="-12"/>
    </contour>
  </outline>
</glyph>
<glyph name="icyr" format="2">
  <advance width="612"/>
  <unicode hex="0438"/>
  <outline>
    <contour>
      <point x="398" y="0" type="line"/>
      <point x="398" y="211" type="line"/>
      <point x="411" y="333" type="line"/>
      <point x="408" y="333" type="line"/>
      <point x="347" y="221" type="line"/>
      <point x="201" y="0" type="line"/>
      <point x="69" y="0" type="line"/>
      <point x="69" y="525" type="line"/>
      <point x="214" y="525" type="line"/>
      <point x="214" y="314" type="line"/>
      <point x="201" y="192" type="line"/>
      <point x="204" y="192" type="line"/>
      <point x="265" y="304" type="line"/>
      <point x="411" y="525" type="line"/>
      <point x="543" y="525" type="line"/>
      <point x="543" y="0" type="line"/>
    </contour>
  </outline>
</glyph>
<glyph name="afii10075" format="2">
  <advance width="612"/>
  <unicode hex="0439"/>
  <outline>
    <contour>
      <point x="307" y="579" type="qcurve" smooth="yes"/>
      <point x="241" y="579"/>
      <point x="159" y="637"/>
      <point x="136" y="691" type="qcurve" smooth="yes"/>
      <point x="115" y="742" type="line"/>
      <point x="230" y="785" type="line"/>
      <point x="262" y="684" type="line"/>
      <point x="277" y="677"/>
      <point x="307" y="677" type="qcurve" smooth="yes"/>
      <point x="337" y="677"/>
      <point x="352" y="684" type="qcurve"/>
      <point x="384" y="785" type="line"/>
      <point x="499" y="742" type="line"/>
      <point x="478" y="691" type="line" smooth="yes"/>
      <point x="455" y="637"/>
      <point x="373" y="579"/>
    </contour>
    <contour>
      <point x="398" y="0" type="line"/>
      <point x="398" y="211" type="line"/>
      <point x="411" y="333" type="line"/>
      <point x="408" y="333" type="line"/>
      <point x="347" y="221" type="line"/>
      <point x="201" y="0" type="line"/>
      <point x="69" y="0" type="line"/>
      <point x="69" y="525" type="line"/>
      <point x="214" y="525" type="line"/>
      <point x="214" y="314" type="line"/>
      <point x="201" y="192" type="line"/>
      <point x="204" y="192" type="line"/>
      <point x="265" y="304" type="line"/>
      <point x="411" y="525" type="line"/>
      <point x="543" y="525" type="line"/>
      <point x="543" y="0" type="line"/>
    </contour>
  </outline>
</glyph>
<glyph name="u043B" format="2">
  <advance width="611"/>
  <unicode hex="043B"/>
  <outline>
    <contour>
      <point x="15" y="-6" type="line"/>
      <point x="15" y="115" type="line"/>
      <point x="83" y="115" type="line"/>
      <point x="102" y="140"/>
      <point x="125" y="251"/>
      <point x="125" y="359" type="qcurve" smooth="yes"/>
      <point x="125" y="525" type="line"/>
      <point x="542" y="525" type="line"/>
      <point x="542" y="0" type="line"/>
      <point x="394" y="0" type="line"/>
      <point x="394" y="410" type="line"/>
      <point x="267" y="410" type="line"/>
      <point x="267" y="351" type="line" smooth="yes"/>
      <point x="267" y="107"/>
      <point x="194" y="38" type="qcurve"/>
      <point x="155" y="-6"/>
      <point x="60" y="-6" type="qcurve" smooth="yes"/>
    </contour>
  </outline>
</glyph>
<glyph name="afii10081" format="2">
  <advance width="597"/>
  <unicode hex="043F"/>
  <outline>
    <contour>
      <point x="380" y="0" type="line"/>
      <point x="380" y="410" type="line"/>
      <point x="217" y="410" type="line"/>
      <point x="217" y="0" type="line"/>
      <point x="69" y="0" type="line"/>
      <point x="69" y="525" type="line"/>
      <point x="528" y="525" type="line"/>
      <point x="528" y="0" type="line"/>
    </contour>
  </outline>
</glyph>
<glyph name="u0444" format="2">
  <advance width="804"/>
  <unicode hex="0444"/>
  <outline>
    <contour>
      <point x="537" y="94" type="qcurve" smooth="yes"/>
      <point x="578" y="94"/>
      <point x="612" y="151"/>
      <point x="612" y="211" type="qcurve" smooth="yes"/>
      <point x="612" y="314" type="line" smooth="yes"/>
      <point x="612" y="374"/>
      <point x="578" y="431"/>
      <point x="537" y="431" type="qcurve" smooth="yes"/>
      <point x="476" y="431"/>
      <point x="476" y="373" type="qcurve" smooth="yes"/>
      <point x="476" y="152" type="line" smooth="yes"/>
      <point x="476" y="94"/>
    </contour>
    <contour>
      <point x="267" y="94" type="qcurve" smooth="yes"/>
      <point x="328" y="94"/>
      <point x="328" y="152" type="qcurve" smooth="yes"/>
      <point x="328" y="373" type="line" smooth="yes"/>
      <point x="328" y="431"/>
      <point x="267" y="431" type="qcurve" smooth="yes"/>
      <point x="226" y="431"/>
      <point x="192" y="374"/>
      <point x="192" y="314" type="qcurve" smooth="yes"/>
      <point x="192" y="211" type="line" smooth="yes"/>
      <point x="192" y="151"/>
      <point x="226" y="94"/>
    </contour>
    <contour>
      <point x="328" y="-200" type="line"/>
      <point x="328" y="56" type="line"/>
      <point x="323" y="56" type="line"/>
      <point x="288" y="-12"/>
      <point x="208" y="-12" type="qcurve" smooth="yes"/>
      <point x="120" y="-12"/>
      <point x="40" y="115"/>
      <point x="40" y="262" type="qcurve" smooth="yes"/>
      <point x="40" y="409"/>
      <point x="120" y="537"/>
      <point x="208" y="537" type="qcurve" smooth="yes"/>
      <point x="286" y="537"/>
      <point x="323" y="467" type="qcurve"/>
      <point x="328" y="467" type="line"/>
      <point x="328" y="710" type="line"/>
      <point x="476" y="710" type="line"/>
      <point x="476" y="467" type="line"/>
      <point x="481" y="467" type="line"/>
      <point x="518" y="537"/>
      <point x="596" y="537" type="qcurve" smooth="yes"/>
      <point x="684" y="537"/>
      <point x="764" y="409"/>
      <point x="764" y="262" type="qcurve" smooth="yes"/>
      <point x="764" y="115"/>
      <point x="684" y="-12"/>
      <point x="596" y="-12" type="qcurve" smooth="yes"/>
      <point x="517" y="-12"/>
      <point x="481" y="56" type="qcurve"/>
      <point x="476" y="56" type="line"/>
      <point x="476" y="-200" type="line"/>
    </contour>
  </outline>
</glyph>
<glyph name="afii10093" format="2">
  <advance width="809"/>
  <unicode hex="044B"/>
  <outline>
    <contour>
      <point x="69" y="0" type="line"/>
      <point x="69" y="525" type="line"/>
      <point x="217" y="525" type="line"/>
      <point x="217" y="369" type="line"/>
      <point x="344" y="369" type="line" smooth="yes"/>
      <point x="421" y="369"/>
      <point x="473" y="322" type="qcurve"/>
      <point x="525" y="271"/>
      <point x="525" y="185" type="qcurve" smooth="yes"/>
      <point x="525" y="95"/>
      <point x="421" y="0"/>
      <point x="344" y="0" type="qcurve" smooth="yes"/>
    </contour>
    <contour>
      <point x="592" y="0" type="line"/>
      <point x="592" y="525" type="line"/>
      <point x="740" y="525" type="line"/>
      <point x="740" y="0" type="line"/>
    </contour>
    <contour>
      <point x="312" y="105" type="line"/>
      <point x="376" y="107"/>
      <point x="376" y="165" type="qcurve" smooth="yes"/>
      <point x="376" y="204" type="line" smooth="yes"/>
      <point x="376" y="233"/>
      <point x="341" y="264"/>
      <point x="312" y="264" type="qcurve" smooth="yes"/>
      <point x="217" y="264" type="line"/>
      <point x="217" y="105" type="line"/>
    </contour>
  </outline>
</glyph>
<glyph name="afii10094" format="2">
  <advance width="561"/>
  <unicode hex="044C"/>
  <outline>
    <contour>
      <point x="69" y="0" type="line"/>
      <point x="69" y="525" type="line"/>
      <point x="217" y="525" type="line"/>
      <point x="217" y="369" type="line"/>
      <point x="355" y="369" type="line" smooth="yes"/>
      <point x="432" y="369"/>
      <point x="484" y="322" type="qcurve"/>
      <point x="536" y="271"/>
      <point x="536" y="185" type="qcurve" smooth="yes"/>
      <point x="536" y="95"/>
      <point x="432" y="0"/>
      <point x="355" y="0" type="qcurve" smooth="yes"/>
    </contour>
    <contour>
      <point x="323" y="105" type="line"/>
      <point x="387" y="107"/>
      <point x="387" y="165" type="qcurve" smooth="yes"/>
      <point x="387" y="204" type="line" smooth="yes"/>
      <point x="387" y="233"/>
      <point x="352" y="264"/>
      <point x="323" y="264" type="qcurve" smooth="yes"/>
      <point x="217" y="264" type="line"/>
      <point x="217" y="105" type="line"/>
    </contour>
  </outline>
</glyph>
<glyph name="u044D" format="2">
  <advance width="535"/>
  <unicode hex="044D"/>
  <outline>
    <contour>
      <point x="244" y="-12" type="qcurve" smooth="yes"/>
      <point x="160" y="-12"/>
      <point x="59" y="50"/>
      <point x="23" y="120" type="qcurve"/>
      <point x="136" y="179" type="line"/>
      <point x="151" y="140"/>
      <point x="201" y="104"/>
      <point x="244" y="104" type="qcurve" smooth="yes"/>
      <point x="297" y="104"/>
      <point x="345" y="159"/>
      <point x="345" y="218" type="qcurve"/>
      <point x="181" y="218" type="line"/>
      <point x="181" y="316" type="line"/>
      <point x="345" y="316" type="line"/>
      <point x="345" y="364"/>
      <point x="295" y="421"/>
      <point x="247" y="421" type="qcurve" smooth="yes"/>
      <point x="199" y="421"/>
      <point x="154" y="385"/>
      <point x="144" y="352" type="qcurve"/>
      <point x="26" y="413" type="line"/>
      <point x="53" y="471"/>
      <point x="158" y="537"/>
      <point x="247" y="537" type="qcurve" smooth="yes"/>
      <point x="372" y="537"/>
      <point x="499" y="389"/>
      <point x="499" y="263" type="qcurve" smooth="yes"/>
      <point x="499" y="137"/>
      <point x="370" y="-12"/>
    </contour>
  </outline>
</glyph>
<glyph name="yukrcyr" format="2">
  <advance width="286"/>
  <unicode hex="0457"/>
  <outline>
    <contour>
      <point x="69" y="0" type="line"/>
      <point x="69" y="525" type="line"/>
      <point x="217" y="525" type="line"/>
      <point x="217" y="0" type="line"/>
    </contour>
    <contour>
      <point x="34" y="600" type="qcurve" smooth="yes"/>
      <point x="-46" y="600"/>
      <point x="-46" y="663" type="qcurve" smooth="yes"/>
      <point x="-46" y="688" type="line" smooth="yes"/>
      <point x="-46" y="751"/>
      <point x="34" y="751" type="qcurve" smooth="yes"/>
      <point x="114" y="751"/>
      <point x="114" y="688" type="qcurve" smooth="yes"/>
      <point x="114" y="663" type="line" smooth="yes"/>
      <point x="114" y="600"/>
    </contour>
    <contour>
      <point x="254" y="600" type="qcurve" smooth="yes"/>
      <point x="174" y="600"/>
      <point x="174" y="663" type="qcurve" smooth="yes"/>
      <point x="174" y="688" type="line" smooth="yes"/>
      <point x="174" y="751"/>
      <point x="254" y="751" type="qcurve" smooth="yes"/>
      <point x="334" y="751"/>
      <point x="334" y="688" type="qcurve" smooth="yes"/>
      <point x="334" y="663" type="line" smooth="yes"/>
      <point x="334" y="600"/>
    </contour>
  </outline>
</glyph>
<glyph name="tshecyr" format="2">
  <advance width="596"/>
  <unicode hex="045B"/>
  <outline>
    <contour>
      <point x="385" y="0" type="line"/>
      <point x="385" y="317" type="line" smooth="yes"/>
      <point x="385" y="368"/>
      <point x="353" y="417"/>
      <point x="312" y="417" type="qcurve" smooth="yes"/>
      <point x="276" y="417"/>
      <point x="217" y="378"/>
      <point x="217" y="340" type="qcurve" smooth="yes"/>
      <point x="217" y="0" type="line"/>
      <point x="69" y="0" type="line"/>
      <point x="69" y="590" type="line"/>
      <point x="7" y="590" type="line"/>
      <point x="7" y="690" type="line"/>
      <point x="69" y="690" type="line"/>
      <point x="69" y="740" type="line"/>
      <point x="217" y="740" type="line"/>
      <point x="217" y="690" type="line"/>
      <point x="357" y="690" type="line"/>
      <point x="357" y="590" type="line"/>
      <point x="217" y="590" type="line"/>
      <point x="217" y="436" type="line"/>
      <point x="223" y="436" type="line"/>
      <point x="237" y="478"/>
      <point x="307" y="537"/>
      <point x="369" y="537" type="qcurve" smooth="yes"/>
      <point x="450" y="537"/>
      <point x="533" y="429"/>
      <point x="533" y="329" type="qcurve" smooth="yes"/>
      <point x="533" y="0" type="line"/>
    </contour>
  </outline>
</glyph>
<glyph name="Ghemiddlehookcyrillic" format="2">
  <advance width="668"/>
  <unicode hex="0494"/>
  <outline>
    <contour>
      <point x="323" y="-184" type="line"/>
      <point x="323" y="-43" type="line"/>
      <point x="426" y="-43" type="line"/>
      <point x="462" y="-7"/>
      <point x="462" y="81" type="qcurve" smooth="yes"/>
      <point x="462" y="145" type="line" smooth="yes"/>
      <point x="462" y="264"/>
      <point x="348" y="264" type="qcurve" smooth="yes"/>
      <point x="269" y="264"/>
      <point x="229" y="246" type="qcurve"/>
      <point x="229" y="0" type="line"/>
      <point x="77" y="0" type="line"/>
      <point x="77" y="698" type="line"/>
      <point x="487" y="698" type="line"/>
      <point x="487" y="563" type="line"/>
      <point x="229" y="563" type="line"/>
      <point x="229" y="373" type="line"/>
      <point x="234" y="373" type="line"/>
      <point x="278" y="396"/>
      <point x="362" y="396" type="qcurve" smooth="yes"/>
      <point x="614" y="396"/>
      <point x="614" y="139" type="qcurve" smooth="yes"/>
      <point x="614" y="74" type="line" smooth="yes"/>
      <point x="614" y="-54"/>
      <point x="549" y="-121" type="qcurve" smooth="yes"/>
      <point x="488" y="-184"/>
      <point x="375" y="-184" type="qcurve" smooth="yes"/>
    </contour>
  </outline>
</glyph>
<glyph name="ghemiddlehookcyrillic" format="2">
  <advance width="574"/>
  <unicode hex="0495"/>
  <outline>
    <contour>
      <point x="273" y="-200" type="line"/>
      <point x="273" y="-85" type="line"/>
      <point x="357" y="-85" type="line"/>
      <point x="369" y="-72"/>
      <point x="380" y="-30"/>
      <point x="380" y="11" type="qcurve" smooth="yes"/>
      <point x="380" y="106" type="line" smooth="yes"/>
      <point x="380" y="156"/>
      <point x="343" y="192"/>
      <point x="301" y="192" type="qcurve" smooth="yes"/>
      <point x="259" y="192"/>
      <point x="217" y="162"/>
      <point x="217" y="139" type="qcurve" smooth="yes"/>
      <point x="217" y="0" type="line"/>
      <point x="69" y="0" type="line"/>
      <point x="69" y="525" type="line"/>
      <point x="424" y="525" type="line"/>
      <point x="424" y="410" type="line"/>
      <point x="217" y="410" type="line"/>
      <point x="217" y="243" type="line"/>
      <point x="222" y="243" type="line"/>
      <point x="260" y="312"/>
      <point x="358" y="312" type="qcurve" smooth="yes"/>
      <point x="446" y="312"/>
      <point x="528" y="218"/>
      <point x="528" y="113" type="qcurve" smooth="yes"/>
      <point x="528" y="-1" type="line" smooth="yes"/>
      <point x="528" y="-105"/>
      <point x="435" y="-200"/>
      <point x="338" y="-200" type="qcurve" smooth="yes"/>
    </contour>
  </outline>
</glyph>
<glyph name="u0498" format="2">
  <advance width="608"/>
  <unicode hex="0498"/>
  <outline>
    <contour>
      <point x="214" y="-150" type="line"/>
      <point x="214" y="-6" type="line"/>
      <point x="105" y="12"/>
      <point x="29" y="91" type="qcurve"/>
      <point x="129" y="192" type="line"/>
      <point x="196" y="123"/>
      <point x="285" y="123" type="qcurve"/>
      <point x="407" y="127"/>
      <point x="407" y="203" type="qcurve" smooth="yes"/>
      <point x="407" y="215" type="line" smooth="yes"/>
      <point x="407" y="286"/>
      <point x="308" y="286" type="qcurve" smooth="yes"/>
      <point x="187" y="286" type="line"/>
      <point x="187" y="420" type="line"/>
      <point x="302" y="420" type="line"/>
      <point x="395" y="421"/>
      <point x="395" y="497" type="qcurve" smooth="yes"/>
      <point x="395" y="502" type="line" smooth="yes"/>
      <point x="395" y="575"/>
      <point x="290" y="575" type="qcurve" smooth="yes"/>
      <point x="248" y="575"/>
      <point x="169" y="542"/>
      <point x="141" y="512" type="qcurve"/>
      <point x="49" y="608" type="line"/>
      <point x="146" y="710"/>
      <point x="290" y="710" type="qcurve" smooth="yes"/>
      <point x="415" y="710"/>
      <point x="556" y="605"/>
      <point x="556" y="515" type="qcurve" smooth="yes"/>
      <point x="556" y="443"/>
      <point x="473" y="373"/>
      <point x="411" y="367" type="qcurve"/>
      <point x="411" y="361" type="line"/>
      <point x="474" y="357"/>
      <point x="520" y="320" type="qcurve"/>
      <point x="568" y="277"/>
      <point x="568" y="207" type="qcurve" smooth="yes"/>
      <point x="568" y="123"/>
      <point x="457" y="11"/>
      <point x="357" y="-6" type="qcurve"/>
      <point x="357" y="-150" type="line"/>
    </contour>
  </outline>
</glyph>
<glyph name="zedescendercyrillic" format="2">
  <advance width="531"/>
  <unicode hex="0499"/>
  <outline>
    <contour>
      <point x="186" y="-140" type="line"/>
      <point x="186" y="-6" type="line"/>
      <point x="87" y="11"/>
      <point x="23" y="82" type="qcurve"/>
      <point x="110" y="170" type="line"/>
      <point x="168" y="104"/>
      <point x="253" y="104" type="qcurve" smooth="yes"/>
      <point x="298" y="104"/>
      <point x="342" y="135"/>
      <point x="342" y="162" type="qcurve" smooth="yes"/>
      <point x="342" y="173" type="line" smooth="yes"/>
      <point x="342" y="218"/>
      <point x="283" y="218" type="qcurve" smooth="yes"/>
      <point x="167" y="218" type="line"/>
      <point x="167" y="316" type="line"/>
      <point x="270" y="316" type="line" smooth="yes"/>
      <point x="329" y="316"/>
      <point x="329" y="361" type="qcurve" smooth="yes"/>
      <point x="329" y="371" type="line" smooth="yes"/>
      <point x="329" y="421"/>
      <point x="249" y="421" type="qcurve" smooth="yes"/>
      <point x="167" y="421"/>
      <point x="122" y="359" type="qcurve"/>
      <point x="34" y="437" type="line"/>
      <point x="115" y="537"/>
      <point x="260" y="537" type="qcurve" smooth="yes"/>
      <point x="369" y="537"/>
      <point x="478" y="456"/>
      <point x="478" y="393" type="qcurve" smooth="yes"/>
      <point x="478" y="291"/>
      <point x="367" y="278" type="qcurve"/>
      <point x="367" y="273" type="line"/>
      <point x="425" y="267"/>
      <point x="491" y="206"/>
      <point x="491" y="156" type="qcurve" smooth="yes"/>
      <point x="491" y="24"/>
      <point x="320" y="-7" type="qcurve"/>
      <point x="320" y="-140" type="line"/>
    </contour>
  </outline>
</glyph>
<glyph name="kadescendercyrillic" format="2">
  <advance width="601"/>
  <unicode hex="049B"/>
  <outline>
    <contour>
      <point x="455" y="-140" type="line"/>
      <point x="455" y="2" type="line"/>
      <point x="406" y="7"/>
      <point x="330" y="142"/>
      <point x="293" y="209" type="qcurve"/>
      <point x="217" y="209" type="line"/>
      <point x="217" y="0" type="line"/>
      <point x="69" y="0" type="line"/>
      <point x="69" y="525" type="line"/>
      <point x="217" y="525" type="line"/>
      <point x="217" y="324" type="line"/>
      <point x="293" y="324" type="line"/>
      <point x="362" y="452" type="line"/>
      <point x="382" y="491"/>
      <point x="436" y="525"/>
      <point x="478" y="525" type="qcurve" smooth="yes"/>
      <point x="539" y="525" type="line"/>
      <point x="539" y="410" type="line"/>
      <point x="486" y="410" type="line"/>
      <point x="441" y="326" type="line" smooth="yes"/>
      <point x="427" y="300"/>
      <point x="400" y="278"/>
      <point x="382" y="273" type="qcurve"/>
      <point x="382" y="268" type="line"/>
      <point x="416" y="263"/>
      <point x="440" y="222" type="qcurve"/>
      <point x="499" y="115" type="line"/>
      <point x="589" y="115" type="line"/>
      <point x="589" y="-140" type="line"/>
    </contour>
  </outline>
</glyph>
<glyph name="Kaverticalstrokecyrillic" format="2">
  <advance width="755"/>
  <unicode hex="049C"/>
  <outline>
    <contour>
      <point x="636" y="0" type="line" smooth="yes"/>
      <point x="594" y="0"/>
      <point x="537" y="36"/>
      <point x="514" y="85" type="qcurve" smooth="yes"/>
      <point x="420" y="286" type="line"/>
      <point x="385" y="286" type="line"/>
      <point x="385" y="153" type="line"/>
      <point x="271" y="153" type="line"/>
      <point x="271" y="286" type="line"/>
      <point x="229" y="286" type="line"/>
      <point x="229" y="0" type="line"/>
      <point x="77" y="0" type="line"/>
      <point x="77" y="698" type="line"/>
      <point x="229" y="698" type="line"/>
      <point x="229" y="420" type="line"/>
      <point x="271" y="420" type="line"/>
      <point x="271" y="553" type="line"/>
      <point x="385" y="553" type="line"/>
      <point x="385" y="420" type="line"/>
      <point x="420" y="420" type="line"/>
      <point x="514" y="615" type="line"/>
      <point x="537" y="657"/>
      <point x="594" y="698"/>
      <point x="639" y="698" type="qcurve" smooth="yes"/>
      <point x="701" y="698" type="line"/>
      <point x="701" y="563" type="line"/>
      <point x="639" y="563" type="line"/>
      <point x="576" y="431" type="line"/>
      <point x="554" y="380"/>
      <point x="504" y="363" type="qcurve"/>
      <point x="504" y="357" type="line"/>
      <point x="555" y="348"/>
      <point x="581" y="290" type="qcurve" smooth="yes"/>
      <point x="653" y="135" type="line"/>
      <point x="715" y="135" type="line"/>
      <point x="715" y="0" type="line"/>
    </contour>
  </outline>
</glyph>
<glyph name="Kabashkcyr" format="2">
  <advance width="771"/>
  <unicode hex="04A0"/>
  <outline>
    <contour>
      <point x="652" y="0" type="line" smooth="yes"/>
      <point x="610" y="0"/>
      <point x="554" y="37"/>
      <point x="530" y="85" type="qcurve" smooth="yes"/>
      <point x="426" y="286" type="line"/>
      <point x="325" y="286" type="line"/>
      <point x="325" y="0" type="line"/>
      <point x="173" y="0" type="line"/>
      <point x="173" y="563" type="line"/>
      <point x="22" y="563" type="line"/>
      <point x="22" y="698" type="line"/>
      <point x="325" y="698" type="line"/>
      <point x="325" y="420" type="line"/>
      <point x="426" y="420" type="line"/>
      <point x="530" y="615" type="line"/>
      <point x="551" y="658"/>
      <point x="610" y="698"/>
      <point x="655" y="698" type="qcurve" smooth="yes"/>
      <point x="717" y="698" type="line"/>
      <point x="717" y="563" type="line"/>
      <point x="655" y="563" type="line"/>
      <point x="583" y="427" type="line" smooth="yes"/>
      <point x="556" y="376"/>
      <point x="510" y="363" type="qcurve"/>
      <point x="510" y="357" type="line"/>
      <point x="561" y="350"/>
      <point x="587" y="294" type="qcurve"/>
      <point x="669" y="135" type="line"/>
      <point x="731" y="135" type="line"/>
      <point x="731" y="0" type="line"/>
    </contour>
  </outline>
</glyph>
<glyph name="Enghecyrillic" format="2">
  <advance width="912"/>
  <unicode hex="04A4"/>
  <outline>
    <contour>
      <point x="475" y="0" type="line"/>
      <point x="475" y="286" type="line"/>
      <point x="229" y="286" type="line"/>
      <point x="229" y="0" type="line"/>
      <point x="77" y="0" type="line"/>
      <point x="77" y="698" type="line"/>
      <point x="229" y="698" type="line"/>
      <point x="229" y="420" type="line"/>
      <point x="475" y="420" type="line"/>
      <point x="475" y="698" type="line"/>
      <point x="885" y="698" type="line"/>
      <point x="885" y="563" type="line"/>
      <point x="627" y="563" type="line"/>
      <point x="627" y="0" type="line"/>
    </contour>
  </outline>
</glyph>
<glyph name="enghecyrillic" format="2">
  <advance width="763"/>
  <unicode hex="04A5"/>
  <outline>
    <contour>
      <point x="388" y="0" type="line"/>
      <point x="388" y="209" type="line"/>
      <point x="217" y="209" type="line"/>
      <point x="217" y="0" type="line"/>
      <point x="69" y="0" type="line"/>
      <point x="69" y="525" type="line"/>
      <point x="217" y="525" type="line"/>
      <point x="217" y="324" type="line"/>
      <point x="388" y="324" type="line"/>
      <point x="388" y="525" type="line"/>
      <point x="743" y="525" type="line"/>
      <point x="743" y="410" type="line"/>
      <point x="536" y="410" type="line"/>
      <point x="536" y="0" type="line"/>
    </contour>
  </outline>
</glyph>
<glyph name="u04AA" format="2">
  <advance width="651"/>
  <unicode hex="04AA"/>
  <outline>
    <contour>
      <point x="288" y="-150" type="line"/>
      <point x="288" y="-6" type="line"/>
      <point x="177" y="14"/>
      <point x="50" y="190"/>
      <point x="50" y="344" type="qcurve" smooth="yes"/>
      <point x="50" y="520"/>
      <point x="217" y="710"/>
      <point x="359" y="710" type="qcurve" smooth="yes"/>
      <point x="456" y="710"/>
      <point x="582" y="630"/>
      <point x="620" y="546" type="qcurve"/>
      <point x="489" y="478" type="line"/>
      <point x="476" y="523"/>
      <point x="416" y="575"/>
      <point x="359" y="575" type="qcurve" smooth="yes"/>
      <point x="292" y="575"/>
      <point x="211" y="488"/>
      <point x="211" y="405" type="qcurve" smooth="yes"/>
      <point x="211" y="293" type="line" smooth="yes"/>
      <point x="211" y="210"/>
      <point x="292" y="123"/>
      <point x="359" y="123" type="qcurve" smooth="yes"/>
      <point x="415" y="123"/>
      <point x="483" y="183"/>
      <point x="498" y="227" type="qcurve"/>
      <point x="622" y="155" type="line"/>
      <point x="560" y="26"/>
      <point x="431" y="-5" type="qcurve"/>
      <point x="431" y="-150" type="line"/>
    </contour>
  </outline>
</glyph>
<glyph name="u04AB" format="2">
  <advance width="517"/>
  <unicode hex="04AB"/>
  <outline>
    <contour>
      <point x="214" y="-140" type="line"/>
      <point x="214" y="-5" type="line"/>
      <point x="126" y="16"/>
      <point x="36" y="155"/>
      <point x="36" y="263" type="qcurve" smooth="yes"/>
      <point x="36" y="389"/>
      <point x="163" y="537"/>
      <point x="281" y="537" type="qcurve" smooth="yes"/>
      <point x="442" y="537"/>
      <point x="491" y="400" type="qcurve"/>
      <point x="371" y="348" type="line"/>
      <point x="364" y="379"/>
      <point x="320" y="420"/>
      <point x="281" y="420" type="qcurve" smooth="yes"/>
      <point x="236" y="420"/>
      <point x="190" y="361"/>
      <point x="190" y="311" type="qcurve" smooth="yes"/>
      <point x="190" y="213" type="line" smooth="yes"/>
      <point x="190" y="163"/>
      <point x="236" y="104"/>
      <point x="281" y="104" type="qcurve" smooth="yes"/>
      <point x="325" y="104"/>
      <point x="369" y="150"/>
      <point x="379" y="183" type="qcurve"/>
      <point x="494" y="133" type="line"/>
      <point x="452" y="19"/>
      <point x="348" y="-4" type="qcurve"/>
      <point x="348" y="-140" type="line"/>
    </contour>
  </outline>
</glyph>
<glyph name="Chetailcyr" format="2">
  <advance width="741"/>
  <unicode hex="04B6"/>
  <outline>
    <contour>
      <point x="571" y="-150" type="line"/>
      <point x="571" y="0" type="line"/>
      <point x="449" y="0" type="line"/>
      <point x="449" y="247" type="line"/>
      <point x="444" y="247" type="line"/>
      <point x="401" y="224"/>
      <point x="311" y="224" type="qcurve" smooth="yes"/>
      <point x="54" y="225"/>
      <point x="54" y="481" type="qcurve" smooth="yes"/>
      <point x="54" y="698" type="line"/>
      <point x="206" y="698" type="line"/>
      <point x="206" y="475" type="line"/>
      <point x="207" y="356"/>
      <point x="325" y="356" type="qcurve" smooth="yes"/>
      <point x="414" y="356"/>
      <point x="449" y="374" type="qcurve"/>
      <point x="449" y="698" type="line"/>
      <point x="601" y="698" type="line"/>
      <point x="601" y="135" type="line"/>
      <point x="714" y="135" type="line"/>
      <point x="714" y="-150" type="line"/>
    </contour>
  </outline>
</glyph>
<glyph name="Cheverticalstrokecyrillic" format="2">
  <advance width="698"/>
  <unicode hex="04B8"/>
  <outline>
    <contour>
      <point x="469" y="0" type="line"/>
      <point x="469" y="247" type="line"/>
      <point x="464" y="247" type="line"/>
      <point x="436" y="235"/>
      <point x="399" y="229" type="qcurve"/>
      <point x="399" y="104" type="line"/>
      <point x="285" y="104" type="line"/>
      <point x="285" y="225" type="line"/>
      <point x="168" y="232"/>
      <point x="54" y="360"/>
      <point x="54" y="481" type="qcurve" smooth="yes"/>
      <point x="54" y="698" type="line"/>
      <point x="206" y="698" type="line"/>
      <point x="206" y="475" type="line" smooth="yes"/>
      <point x="206" y="378"/>
      <point x="285" y="360" type="qcurve"/>
      <point x="285" y="504" type="line"/>
      <point x="399" y="504" type="line"/>
      <point x="399" y="358" type="line"/>
      <point x="437" y="361"/>
      <point x="469" y="374" type="qcurve"/>
      <point x="469" y="698" type="line"/>
      <point x="621" y="698" type="line"/>
      <point x="621" y="0" type="line"/>
    </contour>
  </outline>
</glyph>
<glyph name="u04B9" format="2">
  <advance width="598"/>
  <unicode hex="04B9"/>
  <outline>
    <contour>
      <point x="381" y="0" type="line"/>
      <point x="381" y="206" type="line"/>
      <point x="376" y="206" type="line"/>
      <point x="361" y="183"/>
      <point x="336" y="165" type="qcurve"/>
      <point x="336" y="73" type="line"/>
      <point x="242" y="73" type="line"/>
      <point x="242" y="154" type="line"/>
      <point x="141" y="154"/>
      <point x="50" y="246"/>
      <point x="50" y="341" type="qcurve" smooth="yes"/>
      <point x="50" y="525" type="line"/>
      <point x="198" y="525" type="line"/>
      <point x="198" y="348" type="line" smooth="yes"/>
      <point x="198" y="291"/>
      <point x="242" y="279" type="qcurve"/>
      <point x="242" y="416" type="line"/>
      <point x="336" y="416" type="line"/>
      <point x="336" y="279" type="line"/>
      <point x="355" y="282"/>
      <point x="381" y="305"/>
      <point x="381" y="322" type="qcurve" smooth="yes"/>
      <point x="381" y="525" type="line"/>
      <point x="529" y="525" type="line"/>
      <point x="529" y="0" type="line"/>
    </contour>
  </outline>
</glyph>
<glyph name="u04BA" format="2">
  <advance width="678"/>
  <unicode hex="04BA"/>
  <outline>
    <contour>
      <point x="472" y="0" type="line"/>
      <point x="472" y="223" type="line" smooth="yes"/>
      <point x="472" y="342"/>
      <point x="353" y="342" type="qcurve" smooth="yes"/>
      <point x="265" y="342"/>
      <point x="229" y="324" type="qcurve"/>
      <point x="229" y="0" type="line"/>
      <point x="77" y="0" type="line"/>
      <point x="77" y="698" type="line"/>
      <point x="229" y="698" type="line"/>
      <point x="229" y="451" type="line"/>
      <point x="234" y="451" type="line"/>
      <point x="277" y="474"/>
      <point x="367" y="474" type="qcurve" smooth="yes"/>
      <point x="624" y="474"/>
      <point x="624" y="217" type="qcurve" smooth="yes"/>
      <point x="624" y="0" type="line"/>
    </contour>
  </outline>
</glyph>
<glyph name="u04C0" format="2">
  <advance width="306"/>
  <unicode hex="04C0"/>
  <outline>
    <contour>
      <point x="229" y="0" type="line"/>
      <point x="77" y="0" type="line"/>
      <point x="77" y="698" type="line"/>
      <point x="229" y="698" type="line"/>
    </contour>
  </outline>
</glyph>
<glyph name="Zhebrevecyrillic" format="2">
  <advance width="1006"/>
  <unicode hex="04C1"/>
  <outline>
    <contour>
      <point x="503" y="740" type="qcurve" smooth="yes"/>
      <point x="437" y="740"/>
      <point x="355" y="798"/>
      <point x="332" y="852" type="qcurve" smooth="yes"/>
      <point x="311" y="903" type="line"/>
      <point x="426" y="946" type="line"/>
      <point x="458" y="845" type="line"/>
      <point x="473" y="838"/>
      <point x="503" y="838" type="qcurve" smooth="yes"/>
      <point x="533" y="838"/>
      <point x="548" y="845" type="qcurve"/>
      <point x="580" y="946" type="line"/>
      <point x="695" y="903" type="line"/>
      <point x="674" y="852" type="line" smooth="yes"/>
      <point x="651" y="798"/>
      <point x="569" y="740"/>
    </contour>
    <contour>
      <point x="886" y="0" type="line" smooth="yes"/>
      <point x="844" y="0"/>
      <point x="787" y="38"/>
      <point x="764" y="87" type="qcurve" smooth="yes"/>
      <point x="670" y="286" type="line"/>
      <point x="579" y="286" type="line"/>
      <point x="579" y="0" type="line"/>
      <point x="427" y="0" type="line"/>
      <point x="427" y="286" type="line"/>
      <point x="336" y="286" type="line"/>
      <point x="242" y="87" type="line" smooth="yes"/>
      <point x="219" y="38"/>
      <point x="162" y="0"/>
      <point x="120" y="0" type="qcurve" smooth="yes"/>
      <point x="40" y="0" type="line"/>
      <point x="40" y="135" type="line"/>
      <point x="102" y="135" type="line"/>
      <point x="179" y="298" type="line" smooth="yes"/>
      <point x="203" y="350"/>
      <point x="254" y="357" type="qcurve"/>
      <point x="254" y="363" type="line"/>
      <point x="209" y="373"/>
      <point x="181" y="429" type="qcurve" smooth="yes"/>
      <point x="116" y="563" type="line"/>
      <point x="54" y="563" type="line"/>
      <point x="54" y="698" type="line"/>
      <point x="117" y="698" type="line" smooth="yes"/>
      <point x="207" y="698"/>
      <point x="242" y="614" type="qcurve"/>
      <point x="336" y="420" type="line"/>
      <point x="427" y="420" type="line"/>
      <point x="427" y="698" type="line"/>
      <point x="579" y="698" type="line"/>
      <point x="579" y="420" type="line"/>
      <point x="670" y="420" type="line"/>
      <point x="764" y="614" type="line"/>
      <point x="799" y="698"/>
      <point x="889" y="698" type="qcurve" smooth="yes"/>
      <point x="951" y="698" type="line"/>
      <point x="951" y="563" type="line"/>
      <point x="889" y="563" type="line"/>
      <point x="825" y="429" type="line" smooth="yes"/>
      <point x="798" y="373"/>
      <point x="752" y="363" type="qcurve"/>
      <point x="752" y="357" type="line"/>
      <point x="803" y="350"/>
      <point x="827" y="298" type="qcurve" smooth="yes"/>
      <point x="904" y="135" type="line"/>
      <point x="966" y="135" type="line"/>
      <point x="966" y="0" type="line"/>
    </contour>
  </outline>
</glyph>
